<svg version="1.1" id="Layer_1" xmlns="http://www.w3.org/2000/svg" xmlns:xlink="http://www.w3.org/1999/xlink" x="0px" y="0px"
	 width="100%" viewBox="0 0 225 225" enable-background="new 0 0 225 225" xml:space="preserve">
<path fill="#FFFEFE" opacity="1.000000" stroke="none" 
	d="
M1.000000,84.000000 
	C1.000000,56.000004 1.000000,28.500010 1.000000,1.000011 
	C75.999977,1.000007 150.999954,1.000007 225.999954,1.000004 
	C225.999969,75.999969 225.999969,150.999939 225.999985,225.999939 
	C151.000046,225.999954 76.000092,225.999954 1.000068,225.999969 
	C1.000000,178.833328 1.000000,131.666672 1.000000,84.000000 
M27.642853,74.811821 
	C27.745617,75.550560 27.848381,76.289299 27.963823,77.510841 
	C27.963823,77.510841 27.992393,77.992950 27.989710,78.492851 
	C27.989710,78.492851 27.984438,78.992737 27.402063,79.590416 
	C27.274277,81.403419 27.036173,83.216362 27.035023,85.029442 
	C27.012936,119.853195 27.018312,154.676956 27.018850,189.500717 
	C27.019005,199.508911 31.501223,203.981339 41.564957,203.982193 
	C90.051628,203.986313 138.538300,203.985214 187.024963,203.983017 
	C194.833145,203.982666 199.949707,198.962692 199.960464,190.977539 
	C200.008926,154.987488 200.001740,118.997322 199.946121,83.007301 
	C199.941483,80.001968 199.427414,76.997421 199.362503,73.179520 
	C199.316513,62.152134 199.270523,51.124752 199.445679,39.826916 
	C199.288834,39.557293 199.132004,39.287666 198.696457,38.392708 
	C196.011581,32.758606 191.262741,31.211155 185.279099,30.918453 
	C185.342453,26.790232 184.670135,23.091236 179.471268,22.882317 
	C175.622162,22.727636 173.810028,25.527225 173.652954,31.212288 
	C173.497253,31.414886 173.355530,31.626841 172.131149,31.710567 
	C171.394867,31.699450 170.658569,31.688334 170.031647,31.693777 
	C170.031647,31.693777 170.085526,31.691919 168.908417,31.655905 
	C165.747116,31.744539 162.585831,31.833176 159.298447,31.365719 
	C159.178452,30.404606 159.055923,29.443804 158.938950,28.482323 
	C158.527802,25.102297 156.732178,22.985186 153.241760,22.938560 
	C149.822784,22.892887 147.755707,24.723042 147.319260,28.201281 
	C147.176880,29.336075 147.075378,30.475994 146.034546,31.674246 
	C141.678192,31.703657 137.321854,31.733068 132.849625,31.393108 
	C132.769196,31.119772 132.593048,30.940245 132.498657,30.046415 
	C132.572067,25.823862 130.981094,22.764584 126.333481,22.939297 
	C121.714218,23.112944 121.922394,26.951799 121.560501,30.224928 
	C121.502548,30.749050 120.987213,31.222597 119.674675,31.688648 
	C115.241180,31.719019 110.807686,31.749392 106.204941,30.973585 
	C106.254723,27.062090 105.664932,23.408810 100.829926,22.978872 
	C97.464897,22.679651 95.032928,24.124115 94.589798,28.436022 
	C94.662209,28.964804 94.734619,29.493586 94.480072,30.546160 
	C94.329582,30.927250 94.179092,31.308342 93.096931,31.651901 
	C88.742737,31.662563 84.388542,31.673225 79.896324,30.933733 
	C79.844658,30.279957 79.790390,29.626375 79.741753,28.972374 
	C79.474968,25.384851 77.772530,22.928047 73.995659,22.923231 
	C70.014717,22.918154 68.162483,25.342766 68.028816,29.244278 
	C67.998688,30.123438 67.629204,30.990971 66.211212,31.721540 
	C61.954948,31.716072 57.698681,31.710604 53.314503,30.893360 
	C53.281246,30.402452 53.204323,29.910000 53.221622,29.420881 
	C53.362385,25.440687 51.419044,23.016113 47.498589,22.932560 
	C43.772430,22.853149 41.938190,25.197475 41.753345,28.909159 
	C41.707195,29.835989 41.261990,30.742947 40.148010,31.701530 
	C34.377945,31.271589 30.352077,33.742355 27.549772,39.459354 
	C27.538363,40.074135 27.526951,40.688919 27.447109,42.196415 
	C27.545631,52.618721 27.644156,63.041027 27.751564,73.921921 
	C27.751564,73.921921 27.915237,74.352394 27.642853,74.811821 
z"/>
<path fill="#E7E6E8" opacity="1.000000" stroke="none" 
	d="
M199.150040,73.992508 
	C199.427414,76.997421 199.941483,80.001968 199.946121,83.007301 
	C200.001740,118.997322 200.008926,154.987488 199.960464,190.977539 
	C199.949707,198.962692 194.833145,203.982666 187.024963,203.983017 
	C138.538300,203.985214 90.051628,203.986313 41.564957,203.982193 
	C31.501223,203.981339 27.019005,199.508911 27.018850,189.500717 
	C27.018312,154.676956 27.012936,119.853195 27.035023,85.029442 
	C27.036173,83.216362 27.274277,81.403419 28.029409,79.294876 
	C29.102755,78.998436 29.548756,78.997528 30.177631,79.247505 
	C31.238365,79.333672 32.116226,79.168953 32.996712,78.753136 
	C32.999634,78.334625 32.999935,78.167213 33.468861,77.999161 
	C41.623257,77.998001 49.309036,77.997475 57.425762,77.998093 
	C60.567982,77.667229 63.279255,77.335220 66.459648,77.004990 
	C73.952583,76.673851 80.976402,76.340942 88.241837,76.309174 
	C90.704041,77.073502 92.921478,77.919678 95.145699,77.937874 
	C109.834167,78.058037 124.524094,78.000008 139.213547,78.000404 
	C157.475586,78.000893 175.737625,78.001747 194.034851,78.286255 
	C194.374832,78.891891 194.679642,79.213707 194.984436,79.535538 
	C195.166077,79.326324 195.347702,79.117111 195.529327,78.907890 
	C195.020370,78.605156 194.511398,78.302429 194.001953,77.628952 
	C194.001175,76.516678 194.000885,75.775162 194.354645,75.024597 
	C195.789902,74.738930 196.871109,74.462303 198.243958,74.089088 
	C198.535599,73.992500 198.842819,73.992508 198.842819,73.992508 
	C198.842819,73.992508 199.150040,73.992508 199.150040,73.992508 
M134.951614,156.317612 
	C134.574738,156.124146 134.197861,155.930695 133.353821,155.412766 
	C132.999130,155.482651 132.644424,155.552536 132.158615,155.598663 
	C132.158615,155.598663 132.099289,155.479340 131.395462,155.089279 
	C128.191330,155.314713 124.987190,155.540146 121.806221,155.801880 
	C121.806221,155.801880 121.811653,155.843643 121.277794,156.273041 
	C121.284828,157.170456 121.291862,158.067871 121.201721,159.644272 
	C121.245049,160.098038 121.288368,160.551819 121.176544,161.496918 
	C121.218323,161.663513 121.260094,161.830109 121.165421,162.750092 
	C121.203712,163.512421 121.242004,164.274765 121.095161,165.904205 
	C121.095161,168.153015 121.095161,170.401810 121.095161,172.994614 
	C123.491455,172.854126 125.073059,172.761398 126.564911,172.673935 
	C126.944626,170.488129 127.241257,168.780640 127.658089,166.381226 
	C131.008194,169.234085 131.715775,176.077957 138.037491,171.902496 
	C136.204514,168.683075 134.937164,165.534760 137.668396,161.944107 
	C138.250320,161.179092 136.604706,158.719681 135.535385,156.891190 
	C135.535385,156.891190 135.065857,156.824631 135.019608,156.932648 
	C135.019608,156.932648 135.132523,156.965240 134.951614,156.317612 
M104.999863,165.000397 
	C104.999863,165.000397 104.961266,164.974319 105.715729,164.845886 
	C107.717041,162.004761 108.023247,159.342773 104.980225,157.028015 
	C104.980225,157.028015 104.922096,157.097198 104.957870,156.252777 
	C104.098312,155.508743 103.285744,154.190384 102.371414,154.115570 
	C97.149010,153.688232 91.888771,153.237595 86.669731,153.460052 
	C84.070328,153.570862 81.531334,155.098892 78.239548,155.998001 
	C77.515312,155.975555 76.791084,155.953110 75.859436,155.193665 
	C71.542656,154.814789 67.225876,154.435913 62.307537,154.067078 
	C61.906445,154.067154 61.505356,154.067215 60.225327,154.019745 
	C55.998096,153.772583 51.770866,153.525421 46.119598,153.194992 
	C47.231266,156.339005 48.056538,158.673035 48.991940,161.918365 
	C49.003777,164.702805 48.859055,167.501999 49.119076,170.263077 
	C49.201332,171.136505 50.365082,171.908081 51.684994,172.837799 
	C52.122772,172.801666 52.560551,172.765533 53.885178,172.974243 
	C57.498341,172.932190 61.111500,172.890137 65.528481,172.987274 
	C68.011436,173.012039 70.494385,173.036819 73.466675,172.744705 
	C73.782043,172.517502 74.097412,172.290298 75.033043,171.932892 
	C76.767914,172.253357 78.502785,172.573822 80.636093,172.889404 
	C80.636093,172.889404 81.009941,173.027328 81.556915,173.589218 
	C84.451195,173.289764 87.345482,172.990295 90.218155,172.787949 
	C90.218155,172.787949 90.134865,172.733536 90.526062,173.438370 
	C95.806412,175.820465 97.255280,172.604156 97.531738,169.088043 
	C99.756996,168.182617 101.374954,167.524292 103.181015,166.706726 
	C103.181015,166.706726 103.404854,166.809875 104.098412,166.714035 
	C104.389275,166.130676 104.680145,165.547318 104.999863,165.000397 
M163.831497,117.895584 
	C167.305817,115.019707 172.778427,113.357262 170.969070,106.403496 
	C172.842468,106.595184 174.715866,106.786873 177.625336,107.084579 
	C180.903458,105.783424 185.502029,103.958153 190.100616,102.132881 
	C189.959747,101.551727 189.818878,100.970566 189.678009,100.389412 
	C180.447998,101.956619 171.217987,103.523819 161.251373,105.079185 
	C159.820587,105.439392 158.389816,105.799599 156.221848,106.081635 
	C154.138855,106.047455 152.055878,106.013275 149.183136,105.914009 
	C148.131073,105.988449 147.079010,106.062889 145.304199,106.014977 
	C141.071915,110.124199 137.514816,109.065872 134.595490,103.126480 
	C134.298264,103.753647 134.001053,104.380821 133.703842,105.007988 
	C134.445435,106.258652 135.187042,107.509315 136.214493,109.242050 
	C131.617935,110.273827 127.340942,111.233864 122.405830,112.139908 
	C118.342186,112.710800 114.278534,113.281685 110.648003,113.183609 
	C112.703720,108.561653 111.872063,105.612534 108.137192,104.280075 
	C104.076103,102.831245 100.427109,104.712311 99.262077,109.172226 
	C100.005493,108.887100 100.745842,108.838821 101.046303,108.450333 
	C103.287766,105.552101 106.214767,105.108467 108.694458,107.406647 
	C111.586365,110.086861 108.238052,111.956360 106.296600,114.325874 
	C104.193604,114.934586 102.090607,115.543289 99.386223,116.026901 
	C98.862717,116.250626 98.339203,116.474350 97.737350,116.706306 
	C97.737350,116.706306 97.669319,116.746025 96.828468,116.685387 
	C95.148819,116.768646 93.469177,116.851906 91.792053,116.019630 
	C91.792053,112.114395 91.792053,108.209160 91.792053,103.893204 
	C89.065704,104.096519 87.109703,104.242386 85.153702,104.388245 
	C89.536041,106.315643 89.503113,109.597603 89.188438,113.083664 
	C89.070107,114.394684 89.205971,115.728645 88.653717,117.628868 
	C84.933258,118.300682 81.147476,119.722519 77.513092,119.405998 
	C74.627144,119.154655 73.213539,119.772850 71.243484,121.694778 
	C68.205566,121.599174 65.167656,121.503571 61.391605,121.327965 
	C61.008831,120.619354 60.172455,119.403618 60.311928,119.278870 
	C62.144939,117.639290 64.218636,116.263420 66.008987,114.583748 
	C66.924187,113.725136 67.393578,112.391335 68.675697,110.252762 
	C66.132690,112.140541 64.851303,113.113335 63.547638,114.055275 
	C60.295902,116.404762 55.995949,117.858063 55.420670,123.541542 
	C53.264130,123.696037 51.107590,123.850533 48.832165,123.072227 
	C48.832165,116.830505 48.832165,110.588791 48.832165,103.796936 
	C46.179394,104.106819 44.206131,104.337318 42.232864,104.567825 
	C41.751785,105.179047 41.270706,105.790268 40.789627,106.401489 
	C47.388954,105.449486 46.119663,109.110641 46.154396,111.974915 
	C46.190540,114.955681 45.913479,117.970741 46.300335,120.901237 
	C46.447773,122.018082 48.059250,122.941658 48.990253,124.578850 
	C48.521069,125.356956 48.051888,126.135063 47.058292,127.782860 
	C55.065731,126.219971 62.157887,124.835732 69.900452,123.584389 
	C71.222069,123.383728 72.543694,123.183067 73.965210,122.971405 
	C73.965210,122.971405 73.945633,122.872833 74.744858,122.702644 
	C76.708893,122.372841 78.679466,122.077446 80.635544,121.705803 
	C84.286087,121.012230 88.110451,119.201378 90.877800,124.410942 
	C92.327965,118.210548 96.608871,119.029236 99.611610,119.563774 
	C99.637672,120.890045 99.145798,122.633995 99.804146,123.450386 
	C100.959305,124.882828 110.245552,123.656853 112.725769,121.537392 
	C109.859138,121.341957 107.640213,121.374641 105.504433,120.969261 
	C104.397652,120.759201 103.438118,119.773354 103.014320,118.743324 
	C105.031487,118.097481 107.013680,117.292679 109.073242,116.839600 
	C113.090645,115.955826 117.151344,115.268852 121.754013,114.572105 
	C122.452896,114.377396 123.151787,114.182678 123.950890,114.032249 
	C123.950890,114.032249 124.008453,113.939034 124.861992,114.022202 
	C128.059494,113.671112 131.256989,113.320015 133.890427,113.449432 
	C130.544556,116.111412 125.670044,117.700081 126.362831,123.036865 
	C130.874664,123.036865 134.897720,123.036865 138.920761,123.036865 
	C138.935135,122.540718 138.949493,122.044579 138.963852,121.548431 
	C135.781509,121.321892 132.599152,121.095360 128.810104,120.825638 
	C132.027084,117.842918 134.658829,115.402824 137.704620,112.961029 
	C137.961380,112.863167 138.216705,112.761658 139.274155,112.897285 
	C139.849182,114.131874 140.626297,115.314140 140.961990,116.610703 
	C142.043884,120.789261 142.901917,125.077621 148.892258,123.734818 
	C147.505966,120.536026 146.105042,117.303482 144.265869,113.059692 
	C151.169189,115.148743 150.249573,119.653671 150.598068,123.514526 
	C156.664169,121.920082 155.293396,116.386314 156.583633,112.258698 
	C158.283463,112.258698 159.770981,112.258698 161.659607,112.258698 
	C160.866409,111.262009 160.454483,110.744423 159.757507,109.868637 
	C162.998978,109.868637 165.808426,109.868637 168.509537,110.626923 
	C166.305756,112.682053 164.101974,114.737190 161.395218,116.945709 
	C161.053253,117.331573 160.711304,117.717430 159.747299,118.518364 
	C159.071548,120.010078 158.395798,121.501801 157.714218,123.006393 
	C162.648773,123.006393 166.838318,123.006393 171.027878,123.006393 
	C171.023727,122.427620 171.019577,121.848839 171.015427,121.270065 
	C168.700027,121.270065 166.369537,121.421555 164.076828,121.193352 
	C163.195358,121.105606 162.399963,120.153091 162.060379,119.326714 
	C162.433640,118.915535 162.806900,118.504364 163.831497,117.895584 
M154.608551,172.804977 
	C155.047928,172.760147 155.487320,172.715302 156.571716,172.850311 
	C157.199173,171.926773 157.826630,171.003235 158.454086,170.079681 
	C157.624969,169.757401 156.795868,169.435135 155.137146,169.037445 
	C152.778992,168.384308 150.420837,167.731155 148.776382,166.684158 
	C150.358856,166.431931 152.049011,166.439835 153.489197,165.843811 
	C154.608444,165.380615 155.416000,164.164261 157.037994,162.652832 
	C153.025696,161.996216 150.651566,161.607681 148.277435,161.219147 
	C148.330978,160.804520 148.384521,160.389877 148.438049,159.975250 
	C150.743362,159.975250 153.103378,160.262878 155.328232,159.839767 
	C156.275528,159.659637 156.940125,157.992920 157.733185,157.001740 
	C154.227646,156.379013 150.737259,155.439041 147.210007,155.270370 
	C145.503357,155.188751 142.243790,156.516022 142.223785,157.272507 
	C142.094269,162.169556 142.663986,167.085098 143.476929,172.686859 
	C146.969360,172.685165 150.461807,172.683472 154.608551,172.804977 
M172.529510,172.375702 
	C172.687729,172.309448 172.845963,172.243195 173.516342,172.230942 
	C173.678528,172.174698 173.840729,172.118439 174.682053,172.036850 
	C176.760239,170.570007 179.501221,169.461746 178.060516,165.202866 
	C177.439270,162.762833 176.818024,160.322784 176.027100,157.114120 
	C171.794250,156.471420 167.570877,155.741394 163.318314,155.280762 
	C162.685654,155.212234 161.290009,156.436142 161.312653,157.020828 
	C161.440720,160.324677 161.893768,163.615952 162.213928,167.600952 
	C162.291931,168.051056 162.369949,168.501144 162.048050,169.583038 
	C160.357193,172.030411 161.974106,172.817703 163.965454,172.890411 
	C166.345123,172.977264 168.740768,172.625977 171.599701,172.507278 
	C171.599701,172.507278 172.021301,172.294769 172.529510,172.375702 
M116.042587,159.673447 
	C115.956268,158.233154 115.869949,156.792877 115.789726,155.454315 
	C111.729225,154.354630 109.707146,155.215759 110.102577,159.575058 
	C110.370613,162.529938 110.340591,165.544067 110.106850,168.505081 
	C109.710197,173.529739 112.165260,173.556519 116.050400,172.128006 
	C116.050400,168.214676 116.050400,164.423569 116.042587,159.673447 
M176.538940,119.413994 
	C175.855759,119.148956 175.172577,118.883926 174.489395,118.618896 
	C174.405472,119.205818 174.093704,119.877472 174.275269,120.365639 
	C175.307419,123.140656 180.110825,124.707115 183.371323,123.411949 
	C186.707092,122.086884 188.216309,118.658951 186.732590,115.777359 
	C184.799744,112.023544 182.788971,111.387993 178.442520,113.524330 
	C179.807144,113.991951 181.077454,114.080444 181.804260,114.754753 
	C182.998337,115.862572 183.839996,117.350250 184.830246,118.677765 
	C183.257080,119.577103 181.766617,120.757744 180.075241,121.254997 
	C179.251495,121.497162 178.052597,120.463356 176.538940,119.413994 
z"/>
<path fill="#EB4338" opacity="1.000000" stroke="none" 
	d="
M199.256271,73.586014 
	C199.150040,73.992508 198.842819,73.992508 198.842819,73.992508 
	C198.842819,73.992508 198.535599,73.992500 197.786255,74.001572 
	C167.113632,73.984367 137.190338,73.921265 107.267120,73.942940 
	C81.171410,73.961845 55.075771,74.076340 29.018951,74.105560 
	C29.057802,74.062515 28.985218,73.972061 28.967468,73.793350 
	C28.949718,73.614647 28.882469,73.261826 28.917896,72.777954 
	C28.971083,64.195145 28.988842,56.096203 29.370457,47.927292 
	C29.822182,45.902264 29.910057,43.947208 29.967274,41.694542 
	C29.381626,40.935635 28.826639,40.474339 28.211327,39.758957 
	C28.102051,39.337799 28.053102,39.170723 28.004156,39.003647 
	C30.352077,33.742355 34.377945,31.271589 40.711678,32.095970 
	C41.147469,38.184563 41.019596,43.878716 40.585701,49.785435 
	C41.265686,54.736912 45.448242,57.243755 49.986794,55.816006 
	C53.568707,54.689205 55.510635,50.469017 54.088188,46.371147 
	C53.833733,41.213169 53.638077,36.459152 53.442417,31.705135 
	C57.698681,31.710604 61.954948,31.716072 66.930618,31.956940 
	C67.726295,36.102486 67.802574,40.012630 67.577507,44.140739 
	C64.998428,48.443726 65.603310,52.071522 69.433258,54.742500 
	C72.593544,56.946465 76.103706,56.944866 78.999062,54.259235 
	C82.289169,51.207451 83.049377,47.605927 79.956276,43.347115 
	C79.955681,39.159492 79.995010,35.421692 80.034348,31.683887 
	C84.388542,31.673225 88.742737,31.662563 93.620117,32.148743 
	C94.322998,35.437275 94.502678,38.228970 94.523788,41.356564 
	C94.310150,42.429855 94.255089,43.167240 93.907997,44.125435 
	C91.417244,48.035686 91.785423,51.871159 95.192520,54.034550 
	C97.465919,55.478085 101.197517,55.877121 103.857544,55.169220 
	C107.948196,54.080593 108.542366,49.841618 106.262299,42.981853 
	C106.249252,38.922958 106.311722,35.351360 106.374191,31.779762 
	C110.807686,31.749392 115.241180,31.719019 120.266342,32.117264 
	C120.813637,36.381035 120.769272,40.216190 120.412628,44.226608 
	C117.725769,48.504002 118.589302,52.110256 122.270744,54.759235 
	C125.414772,57.021515 128.933716,56.772068 131.851929,54.197655 
	C134.997375,51.422798 135.150665,48.091827 132.720428,44.225540 
	C132.808563,39.775913 132.887039,35.769196 132.965500,31.762478 
	C137.321854,31.733068 141.678192,31.703657 146.528793,32.135231 
	C147.018402,36.403400 147.013748,40.210579 146.721024,44.231773 
	C144.107590,48.623077 144.967667,52.243130 148.843582,54.786594 
	C152.238647,57.014519 155.868805,56.859348 158.736404,53.691738 
	C161.433853,50.712067 162.353134,47.418823 159.056732,43.637627 
	C159.157700,39.424374 159.291122,35.673092 159.424530,31.921810 
	C162.585831,31.833176 165.747116,31.744539 169.470337,31.684029 
	C170.032242,31.712152 169.922287,31.677216 169.922287,31.677216 
	C170.658569,31.688334 171.394867,31.699450 172.781052,32.182247 
	C173.217072,37.065796 173.003174,41.477669 172.531311,46.084045 
	C170.504288,50.450329 172.299973,53.450596 175.857162,55.248787 
	C179.167084,56.921982 182.826706,56.803505 185.309372,53.635616 
	C187.682846,50.607040 188.652161,47.161701 185.256958,43.480110 
	C185.303833,39.252869 185.390518,35.484592 185.477219,31.716312 
	C191.262741,31.211155 196.011581,32.758606 198.826691,38.991714 
	C199.046143,39.759602 199.135345,39.928486 199.224518,40.097366 
	C199.270523,51.124752 199.316513,62.152134 199.256271,73.586014 
M196.999313,45.900780 
	C196.999313,54.536587 196.999313,63.172394 196.999313,71.808197 
	C197.164230,71.800423 197.329132,71.792641 197.494049,71.784859 
	C197.494049,61.409317 197.494049,51.033775 197.494049,40.658234 
	C197.329102,40.664829 197.164139,40.671421 196.999191,40.678013 
	C196.999191,42.127468 196.999191,43.576920 196.999313,45.900780 
M30.516693,72.408806 
	C30.516693,72.408806 30.583616,72.519844 30.516693,72.408806 
z"/>
<path fill="#484244" opacity="1.000000" stroke="none" 
	d="
M67.878845,43.922775 
	C67.802574,40.012630 67.726295,36.102486 67.532974,32.028099 
	C67.629204,30.990971 67.998688,30.123438 68.028816,29.244278 
	C68.162483,25.342766 70.014717,22.918154 73.995659,22.923231 
	C77.772530,22.928047 79.474968,25.384851 79.741753,28.972374 
	C79.790390,29.626375 79.844658,30.279957 79.965332,31.308811 
	C79.995010,35.421692 79.955681,39.159492 79.820251,43.638176 
	C79.687790,45.033493 79.632103,45.687519 79.618279,46.342434 
	C79.538521,50.120975 78.097168,52.961178 73.920654,52.913536 
	C69.884224,52.867496 68.095741,50.336170 68.166138,46.379601 
	C68.180672,45.562618 67.980217,44.741817 67.878845,43.922775 
z"/>
<path fill="#494444" opacity="1.000000" stroke="none" 
	d="
M147.009094,44.017761 
	C147.013748,40.210579 147.018402,36.403400 146.989105,32.104893 
	C147.075378,30.475994 147.176880,29.336075 147.319260,28.201281 
	C147.755707,24.723042 149.822784,22.892887 153.241760,22.938560 
	C156.732178,22.985186 158.527802,25.102297 158.938950,28.482323 
	C159.055923,29.443804 159.178452,30.404606 159.361496,31.643764 
	C159.291122,35.673092 159.157700,39.424374 158.999985,44.034195 
	C159.011871,49.039230 158.179138,52.873550 153.118591,52.961494 
	C148.274399,53.045670 147.302658,49.505978 147.437805,45.434471 
	C147.453323,44.967495 147.159485,44.490250 147.009094,44.017761 
z"/>
<path fill="#444143" opacity="1.000000" stroke="none" 
	d="
M53.378460,31.299248 
	C53.638077,36.459152 53.833733,41.213169 53.757786,46.565361 
	C51.561138,52.943844 47.680511,54.688087 43.633614,51.598251 
	C42.730595,50.908791 41.806248,50.247261 40.891720,49.572872 
	C41.019596,43.878716 41.147469,38.184563 41.137772,32.074722 
	C41.261990,30.742947 41.707195,29.835989 41.753345,28.909159 
	C41.938190,25.197475 43.772430,22.853149 47.498589,22.932560 
	C51.419044,23.016113 53.362385,25.440687 53.221622,29.420881 
	C53.204323,29.910000 53.281246,30.402452 53.378460,31.299248 
z"/>
<path fill="#464242" opacity="1.000000" stroke="none" 
	d="
M94.682365,41.020660 
	C94.502678,38.228970 94.322998,35.437275 94.085953,32.167507 
	C94.179092,31.308342 94.329582,30.927250 94.930664,30.257877 
	C95.796883,29.635305 96.212517,29.301016 96.628151,28.966728 
	C96.035484,28.629957 95.442825,28.293184 94.850159,27.956413 
	C95.032928,24.124115 97.464897,22.679651 100.829926,22.978872 
	C105.664932,23.408810 106.254723,27.062090 106.289566,31.376675 
	C106.311722,35.351360 106.249252,38.922958 106.254807,43.365932 
	C106.103951,45.693893 106.371223,47.562675 105.561188,48.518028 
	C104.050240,50.300045 101.843834,52.782078 100.055634,52.681561 
	C98.217461,52.578236 96.302124,49.911045 94.886330,48.017544 
	C94.251137,47.168037 94.750496,45.470200 95.001709,43.991257 
	C95.073059,42.890350 94.877716,41.955505 94.682365,41.020660 
z"/>
<path fill="#454243" opacity="1.000000" stroke="none" 
	d="
M120.724899,44.051346 
	C120.769272,40.216190 120.813637,36.381035 120.770660,32.132702 
	C120.987213,31.222597 121.502548,30.749050 121.560501,30.224928 
	C121.922394,26.951799 121.714218,23.112944 126.333481,22.939297 
	C130.981094,22.764584 132.572067,25.823862 132.114975,30.629120 
	C131.835861,35.830261 131.940430,40.448696 132.038498,45.473221 
	C132.244370,49.744881 131.262802,53.012444 126.701492,52.926834 
	C122.864456,52.854820 120.674927,50.903416 121.939590,46.538349 
	C122.129822,45.881771 121.158768,44.888741 120.724899,44.051346 
z"/>
<path fill="#434143" opacity="1.000000" stroke="none" 
	d="
M185.378159,31.317383 
	C185.390518,35.484592 185.303833,39.252869 185.184753,43.907082 
	C185.019608,46.197071 184.886856,47.601135 184.372375,49.013687 
	C180.692032,48.682858 177.393387,48.343540 174.027390,47.686234 
	C173.912155,46.938213 173.864258,46.508183 174.205093,46.049393 
	C175.542953,44.307384 176.914932,42.687958 177.321793,40.854378 
	C177.725143,39.036674 176.744980,36.922043 177.107986,35.082993 
	C177.678070,32.194824 176.484680,31.208347 173.955719,30.972702 
	C173.810028,25.527225 175.622162,22.727636 179.471268,22.882317 
	C184.670135,23.091236 185.342453,26.790232 185.378159,31.317383 
z"/>
<path fill="#E73534" opacity="1.000000" stroke="none" 
	d="
M28.271650,40.013042 
	C28.826639,40.474339 29.381626,40.935635 29.923973,42.074551 
	C29.609756,44.500534 29.308180,46.248901 29.006603,47.997265 
	C28.988842,56.096203 28.971083,64.195145 28.625906,72.786453 
	C28.113220,73.340324 27.927948,73.401833 27.742678,73.463333 
	C27.644156,63.041027 27.545631,52.618721 27.668913,41.577801 
	C28.017694,40.643806 28.144672,40.328423 28.271650,40.013042 
z"/>
<path fill="#494444" opacity="1.000000" stroke="none" 
	d="
M173.804337,31.092495 
	C176.484680,31.208347 177.678070,32.194824 177.107986,35.082993 
	C176.744980,36.922043 177.725143,39.036674 177.321793,40.854378 
	C176.914932,42.687958 175.542953,44.307384 173.942520,46.033615 
	C173.123917,45.994244 172.956589,45.941891 172.789276,45.889538 
	C173.003174,41.477669 173.217072,37.065796 173.329376,32.251038 
	C173.355530,31.626841 173.497253,31.414886 173.804337,31.092495 
z"/>
<path fill="#F2EAEC" opacity="1.000000" stroke="none" 
	d="
M56.994812,77.996948 
	C49.309036,77.997475 41.623257,77.998001 33.052185,77.999001 
	C30.775393,77.997299 29.383894,77.995125 27.992393,77.992950 
	C27.992393,77.992950 27.963823,77.510841 28.340714,77.261154 
	C29.481699,77.003426 30.245794,76.995377 31.382952,76.990189 
	C32.502689,76.994652 33.249371,76.996262 34.465099,76.999329 
	C42.289032,77.001839 49.643917,77.002899 56.998367,77.252213 
	C56.997936,77.500465 56.994812,77.996948 56.994812,77.996948 
z"/>
<path fill="#494444" opacity="1.000000" stroke="none" 
	d="
M132.045013,45.067131 
	C131.940430,40.448696 131.835861,35.830261 132.026245,31.033176 
	C132.593048,30.940245 132.769196,31.119772 132.907562,31.577793 
	C132.887039,35.769196 132.808563,39.775913 132.559418,44.332504 
	C132.388733,44.882374 132.044998,45.067131 132.045013,45.067131 
z"/>
<path fill="#E7E6E8" opacity="1.000000" stroke="none" 
	d="
M31.009892,76.987335 
	C30.245794,76.995377 29.481699,77.003426 28.334373,77.019753 
	C27.848381,76.289299 27.745617,75.550560 28.049742,74.495026 
	C28.632826,74.109505 28.809023,74.040779 28.985218,73.972061 
	C28.985218,73.972061 29.057802,74.062515 29.216602,74.339951 
	C29.920231,75.407364 30.465061,76.197350 31.009892,76.987335 
z"/>
<path fill="#484244" opacity="1.000000" stroke="none" 
	d="
M94.719978,28.196217 
	C95.442825,28.293184 96.035484,28.629957 96.628151,28.966728 
	C96.212517,29.301016 95.796883,29.635305 95.094131,29.995981 
	C94.734619,29.493586 94.662209,28.964804 94.719978,28.196217 
z"/>
<path fill="#EBE1DF" opacity="1.000000" stroke="none" 
	d="
M27.991051,78.242905 
	C29.383894,77.995125 30.775393,77.997299 32.583565,77.999634 
	C32.999935,78.167213 32.999634,78.334625 32.622009,78.750793 
	C31.494707,78.998581 30.744730,78.997597 29.994755,78.996620 
	C29.548756,78.997528 29.102755,78.998436 28.320597,78.996040 
	C27.984438,78.992737 27.989710,78.492851 27.991051,78.242905 
z"/>
<path fill="#494444" opacity="1.000000" stroke="none" 
	d="
M169.976959,31.685497 
	C169.922287,31.677216 170.032242,31.712152 170.058884,31.702036 
	C170.085526,31.691919 170.031647,31.693777 169.976959,31.685497 
z"/>
<path fill="#F3AEA7" opacity="1.000000" stroke="none" 
	d="
M28.211327,39.758957 
	C28.144672,40.328423 28.017694,40.643806 27.703129,41.131443 
	C27.526951,40.688919 27.538363,40.074135 27.776964,39.231499 
	C28.053102,39.170723 28.102051,39.337799 28.211327,39.758957 
z"/>
<path fill="#F7A6A5" opacity="1.000000" stroke="none" 
	d="
M199.335114,39.962143 
	C199.135345,39.928486 199.046143,39.759602 198.966064,39.304382 
	C199.132004,39.287666 199.288834,39.557293 199.335114,39.962143 
z"/>
<path fill="#F3AEA7" opacity="1.000000" stroke="none" 
	d="
M28.967468,73.793350 
	C28.809023,74.040779 28.632826,74.109505 28.185934,74.265312 
	C27.915237,74.352394 27.751564,73.921921 27.747120,73.692627 
	C27.927948,73.401833 28.113220,73.340324 28.590481,73.270325 
	C28.882469,73.261826 28.949718,73.614647 28.967468,73.793350 
z"/>
<path fill="#EAE8E9" opacity="1.000000" stroke="none" 
	d="
M194.000610,75.033646 
	C194.000885,75.775162 194.001175,76.516678 194.000732,77.629097 
	C194.000000,78.000000 193.999664,78.002441 193.999664,78.002441 
	C175.737625,78.001747 157.475586,78.000893 139.213547,78.000404 
	C124.524094,78.000008 109.834167,78.058037 95.145699,77.937874 
	C92.921478,77.919678 90.704041,77.073502 88.535126,76.011002 
	C89.897636,75.276085 91.208427,75.022568 92.519325,75.022095 
	C126.346413,75.009895 160.173508,75.024055 194.000610,75.033646 
z"/>
<path fill="#EBE1DF" opacity="1.000000" stroke="none" 
	d="
M194.354645,75.024597 
	C160.173508,75.024055 126.346413,75.009895 92.519325,75.022095 
	C91.208427,75.022568 89.897636,75.276085 88.293503,75.709869 
	C80.976402,76.340942 73.952583,76.673851 66.273346,76.666260 
	C62.745384,75.893951 59.872856,75.462143 56.614822,75.189804 
	C52.491310,75.568748 48.750015,75.743744 45.016235,76.020256 
	C41.338875,76.292587 37.669132,76.667801 33.996048,76.997864 
	C33.249371,76.996262 32.502689,76.994652 31.382950,76.990189 
	C30.465061,76.197350 29.920231,75.407364 29.177752,74.382988 
	C55.075771,74.076340 81.171410,73.961845 107.267120,73.942940 
	C137.190338,73.921265 167.113632,73.984367 197.494614,74.098160 
	C196.871109,74.462303 195.789902,74.738930 194.354645,75.024597 
z"/>
<path fill="#E5544C" opacity="1.000000" stroke="none" 
	d="
M132.289734,155.622421 
	C132.644424,155.552536 132.999130,155.482651 133.744812,155.844040 
	C134.468048,156.505295 134.800293,156.735275 135.132523,156.965240 
	C135.132523,156.965240 135.019608,156.932648 135.091553,157.067322 
	C135.437439,157.148300 135.711395,157.094604 135.985336,157.040894 
	C136.604706,158.719681 138.250320,161.179092 137.668396,161.944107 
	C134.937164,165.534760 136.204514,168.683075 138.037491,171.902496 
	C131.715775,176.077957 131.008194,169.234085 127.658089,166.381226 
	C127.241257,168.780640 126.944626,170.488129 126.564911,172.673935 
	C125.073059,172.761398 123.491455,172.854126 121.095161,172.994614 
	C121.095161,170.401810 121.095161,168.153015 121.396988,165.711243 
	C121.948456,166.361023 122.198105,167.203751 122.586098,168.513443 
	C123.104355,164.253296 123.608360,160.555252 123.904266,156.840637 
	C123.928169,156.540512 122.523758,156.126602 121.783058,155.765594 
	C124.987190,155.540146 128.191330,155.314713 131.510529,155.561462 
	C130.542709,157.050812 129.459824,158.067978 128.026505,159.414307 
	C131.384644,159.605347 132.801666,158.565170 132.289734,155.622421 
z"/>
<path fill="#E54F45" opacity="1.000000" stroke="none" 
	d="
M103.404854,166.809875 
	C103.404854,166.809875 103.181015,166.706726 102.643372,166.791962 
	C100.186760,167.038589 98.267784,167.199966 96.250595,167.369598 
	C96.036736,169.246323 95.857124,170.822540 95.639366,172.733536 
	C93.648346,172.733536 91.891609,172.733536 90.134865,172.733536 
	C90.134865,172.733536 90.218155,172.787949 90.212250,172.299377 
	C90.206360,167.507919 90.037697,163.194351 90.309448,158.908707 
	C90.390694,157.627426 91.778114,155.320297 92.439804,155.365067 
	C96.620491,155.647858 100.765388,156.459885 104.922096,157.097198 
	C104.922096,157.097198 104.980225,157.028015 104.984299,157.406906 
	C104.979340,160.181976 104.970306,162.578140 104.961266,164.974319 
	C104.961266,164.974319 104.999863,165.000397 104.717529,165.137207 
	C104.091743,165.785980 103.748299,166.297928 103.404854,166.809875 
z"/>
<path fill="#DDDADC" opacity="1.000000" stroke="none" 
	d="
M168.617859,109.868637 
	C165.808426,109.868637 162.998978,109.868637 159.757507,109.868637 
	C160.454483,110.744423 160.866409,111.262009 161.659607,112.258698 
	C159.770981,112.258698 158.283463,112.258698 156.583633,112.258698 
	C155.293396,116.386314 156.664169,121.920082 150.598068,123.514526 
	C150.249573,119.653671 151.169189,115.148743 144.265869,113.059692 
	C146.105042,117.303482 147.505966,120.536026 148.892258,123.734818 
	C142.901917,125.077621 142.043884,120.789261 140.961990,116.610703 
	C140.626297,115.314140 139.849182,114.131874 139.100555,112.506073 
	C140.579269,111.954041 142.252609,111.908241 143.879883,111.610634 
	C148.590622,110.749123 153.282837,109.786369 158.256470,109.001617 
	C159.016602,108.787224 159.502563,108.434555 160.383759,108.027969 
	C163.144806,107.684685 165.510605,107.395332 168.009842,107.443375 
	C168.301468,108.476730 168.459656,109.172684 168.617859,109.868637 
M153.402176,115.482498 
	C153.402176,115.482498 153.514450,115.413155 153.402176,115.482498 
z"/>
<path fill="#DF4840" opacity="1.000000" stroke="none" 
	d="
M143.004532,171.994583 
	C142.663986,167.085098 142.094269,162.169556 142.223785,157.272507 
	C142.243790,156.516022 145.503357,155.188751 147.210007,155.270370 
	C150.737259,155.439041 154.227646,156.379013 157.733185,157.001740 
	C156.940125,157.992920 156.275528,159.659637 155.328232,159.839767 
	C153.103378,160.262878 150.743362,159.975250 148.438049,159.975250 
	C148.384521,160.389877 148.330978,160.804520 148.277435,161.219147 
	C150.651566,161.607681 153.025696,161.996216 157.037994,162.652832 
	C155.416000,164.164261 154.608444,165.380615 153.489197,165.843811 
	C152.049011,166.439835 150.358856,166.431931 148.334579,166.511169 
	C145.919510,164.181091 144.478622,164.280212 144.048889,167.395142 
	C143.846771,168.860321 144.031189,170.378830 143.782074,171.908630 
	C143.350647,171.960938 143.177582,171.977753 143.004532,171.994583 
z"/>
<path fill="#E74C44" opacity="1.000000" stroke="none" 
	d="
M81.009941,173.027328 
	C81.009941,173.027328 80.636093,172.889404 80.363892,172.635056 
	C79.992645,172.041183 79.893593,171.701660 79.826706,170.988159 
	C79.057877,169.061676 78.256882,167.509201 77.470268,165.984573 
	C75.217354,167.658981 73.623016,168.843918 72.015915,170.016251 
	C72.003166,170.003632 71.974648,169.982498 72.010864,169.650055 
	C72.351250,167.870270 72.655418,166.422943 72.989594,164.610489 
	C72.988312,163.514969 72.957008,162.784592 73.098495,161.921753 
	C72.888054,161.512772 72.504822,161.236267 71.859467,160.816956 
	C71.346039,160.140564 71.094742,159.606979 71.065781,158.900497 
	C71.198914,157.592392 71.109718,156.457153 71.358261,155.242828 
	C72.153038,155.216232 72.610077,155.268723 73.240189,155.501495 
	C73.891586,155.810425 74.369896,155.939087 74.899155,156.064240 
	C74.950089,156.060699 74.932922,156.161377 74.956085,156.495697 
	C75.434128,157.479309 75.889008,158.128571 76.280502,158.734711 
	C76.217110,158.691574 76.348221,158.612061 76.296219,158.821747 
	C76.499557,158.976547 76.754898,158.921646 77.327934,158.838043 
	C78.442848,157.881210 79.240067,156.953110 80.401955,155.992798 
	C82.329544,155.706451 83.892456,155.452316 86.173454,155.081421 
	C85.082016,157.265869 84.449089,158.532623 83.904343,159.898499 
	C83.992516,159.997620 83.797684,159.817291 83.516342,160.003693 
	C77.659508,165.616287 86.771675,167.951920 85.758560,172.626160 
	C84.220085,172.756134 82.615013,172.891739 81.009941,173.027328 
z"/>
<path fill="#F4D7D6" opacity="1.000000" stroke="none" 
	d="
M83.816162,159.799377 
	C84.449089,158.532623 85.082016,157.265869 86.173454,155.081421 
	C83.892456,155.452316 82.329544,155.706451 80.133888,155.983948 
	C79.322433,156.000168 79.143723,155.992996 78.965012,155.985840 
	C81.531334,155.098892 84.070328,153.570862 86.669731,153.460052 
	C91.888771,153.237595 97.149010,153.688232 102.371414,154.115570 
	C103.285744,154.190384 104.098312,155.508743 104.939987,156.674988 
	C100.765388,156.459885 96.620491,155.647858 92.439804,155.365067 
	C91.778114,155.320297 90.390694,157.627426 90.309448,158.908707 
	C90.037697,163.194351 90.206360,167.507919 90.223053,172.250824 
	C87.345482,172.990295 84.451195,173.289764 81.283432,173.308273 
	C82.615013,172.891739 84.220085,172.756134 85.758560,172.626160 
	C86.771675,167.951920 77.659508,165.616287 83.607391,160.302292 
	C84.396996,160.757629 84.812202,161.103439 85.243195,161.428314 
	C85.253677,161.436218 85.439651,161.211304 85.543777,161.094971 
	C84.967903,160.663101 84.392029,160.231247 83.816162,159.799377 
M87.050529,158.309952 
	C87.652786,158.021622 88.255043,157.733292 88.857300,157.444962 
	C88.648071,157.149628 88.438835,156.854294 88.229607,156.558960 
	C87.870895,156.958221 87.512192,157.357468 87.050529,158.309952 
z"/>
<path fill="#E33D33" opacity="1.000000" stroke="none" 
	d="
M52.998329,172.729401 
	C52.560551,172.765533 52.122772,172.801666 51.165874,172.432343 
	C50.780289,166.492188 50.913822,160.957504 51.200607,155.416061 
	C51.353863,155.409317 51.596622,155.596909 51.456974,155.899170 
	C51.427589,156.609482 51.537853,157.017548 51.648117,157.425598 
	C52.112324,157.189148 52.576530,156.952698 53.453697,156.803680 
	C55.553097,156.941757 57.239532,156.992401 58.942657,157.420609 
	C57.345055,158.744064 55.730766,159.689957 54.116478,160.635864 
	C56.044510,161.807312 57.747677,161.872467 59.444160,162.016403 
	C61.911201,162.225708 62.692883,163.555283 61.900787,165.873123 
	C61.914803,165.879501 61.887035,165.872070 61.651115,165.897781 
	C61.415199,165.923492 60.967892,166.082214 60.735943,166.052307 
	C60.503994,166.022385 60.039867,166.080383 59.694687,166.015686 
	C58.889286,166.023529 58.429070,166.096100 57.657257,166.127594 
	C56.929970,166.121628 56.514278,166.156708 55.714844,166.149811 
	C54.241112,168.562927 54.240738,168.565094 56.215248,168.904449 
	C58.473061,169.292496 60.731621,169.676208 62.798901,170.392334 
	C59.404739,171.391724 56.201534,172.060562 52.998329,172.729401 
z"/>
<path fill="#CA615D" opacity="1.000000" stroke="none" 
	d="
M157.982330,108.863358 
	C153.282837,109.786369 148.590622,110.749123 143.879883,111.610634 
	C142.252609,111.908241 140.579269,111.954041 138.698776,112.385681 
	C138.216705,112.761658 137.961380,112.863167 137.134766,112.967560 
	C135.861450,112.972374 135.157959,112.970650 134.454483,112.968918 
	C131.256989,113.320015 128.059494,113.671112 124.333435,113.753418 
	C123.557907,113.054390 123.310921,112.624146 123.063942,112.193909 
	C127.340942,111.233864 131.617935,110.273827 136.214493,109.242050 
	C135.187042,107.509315 134.445435,106.258652 133.703842,105.007988 
	C134.001053,104.380821 134.298264,103.753647 134.595490,103.126480 
	C137.514816,109.065872 141.071915,110.124199 145.667389,106.447006 
	C147.325470,107.516853 148.620361,108.154663 149.915268,108.792473 
	C149.934479,107.854683 149.953674,106.916893 149.972885,105.979095 
	C152.055878,106.013275 154.138855,106.047455 156.371582,106.347122 
	C155.673126,106.910164 154.824951,107.207710 153.998215,107.497742 
	C155.457230,107.997841 156.719772,108.430595 157.982330,108.863358 
z"/>
<path fill="#E35248" opacity="1.000000" stroke="none" 
	d="
M116.046494,160.152954 
	C116.050400,164.423569 116.050400,168.214676 116.050400,172.128006 
	C112.165260,173.556519 109.710197,173.529739 110.106850,168.505081 
	C110.340591,165.544067 110.370613,162.529938 110.102577,159.575058 
	C109.707146,155.215759 111.729225,154.354630 115.789726,155.454315 
	C115.869949,156.792877 115.956268,158.233154 116.046494,160.152954 
z"/>
<path fill="#CC5C52" opacity="1.000000" stroke="none" 
	d="
M167.876419,107.105972 
	C165.510605,107.395332 163.144806,107.684685 160.545776,107.757675 
	C160.871033,106.724548 161.429504,105.907791 161.987976,105.091026 
	C171.217987,103.523819 180.447998,101.956619 189.678009,100.389412 
	C189.818878,100.970566 189.959747,101.551727 190.100616,102.132881 
	C185.502029,103.958153 180.903458,105.783424 177.625336,107.084579 
	C174.715866,106.786873 172.842468,106.595184 170.392822,106.676376 
	C169.169861,107.001488 168.523132,107.053734 167.876419,107.105972 
z"/>
<path fill="#EF3F37" opacity="1.000000" stroke="none" 
	d="
M174.002914,172.062164 
	C173.840729,172.118439 173.678528,172.174698 173.173187,172.003448 
	C172.560455,171.948898 172.290878,172.121841 172.021301,172.294769 
	C172.021301,172.294769 171.599701,172.507278 171.245667,172.191727 
	C170.818008,171.233078 170.472534,170.437927 170.728973,169.979416 
	C171.220139,169.101181 172.053329,168.414246 172.780975,167.370499 
	C172.911224,166.732101 173.005096,166.371124 173.471436,165.988205 
	C174.533707,164.805740 175.773560,163.622421 175.726669,162.492462 
	C175.693512,161.692749 173.919373,160.965225 172.694824,160.117737 
	C172.467270,160.029999 171.998474,159.895248 171.903900,159.529633 
	C168.699783,156.951828 167.154480,157.568771 166.936432,161.565033 
	C166.769150,164.630661 166.138412,167.671021 165.651581,171.169556 
	C164.011002,170.033554 163.229477,169.492401 162.447952,168.951248 
	C162.369949,168.501144 162.291931,168.051056 162.471985,166.990570 
	C163.818832,155.815323 165.034866,154.984268 175.213043,157.826324 
	C175.522110,157.912628 175.868042,157.866913 176.196777,157.882751 
	C176.818024,160.322784 177.439270,162.762833 177.689484,165.759491 
	C176.213272,168.231476 175.108093,170.146820 174.002914,172.062164 
z"/>
<path fill="#CB6560" opacity="1.000000" stroke="none" 
	d="
M91.789528,116.935165 
	C93.469177,116.851906 95.148819,116.768646 97.458435,116.994835 
	C99.094940,117.809105 100.101486,118.313919 100.994453,118.863098 
	C100.880875,118.907463 100.464790,118.947723 100.464790,118.947723 
	C96.608871,119.029236 92.327965,118.210548 90.877800,124.410942 
	C88.110451,119.201378 84.286087,121.012230 80.635544,121.705803 
	C78.679466,122.077446 76.708893,122.372841 74.173035,122.567551 
	C73.068695,122.288795 72.536179,122.145149 72.003662,122.001503 
	C73.213539,119.772850 74.627144,119.154655 77.513092,119.405998 
	C81.147476,119.722519 84.933258,118.300682 89.262573,117.379776 
	C90.510788,117.065506 91.150162,117.000336 91.789528,116.935165 
z"/>
<path fill="#565657" opacity="1.000000" stroke="none" 
	d="
M176.781235,119.710571 
	C178.052597,120.463356 179.251495,121.497162 180.075241,121.254997 
	C181.766617,120.757744 183.257080,119.577103 184.830246,118.677765 
	C183.839996,117.350250 182.998337,115.862572 181.804260,114.754753 
	C181.077454,114.080444 179.807144,113.991951 178.442520,113.524330 
	C182.788971,111.387993 184.799744,112.023544 186.732590,115.777359 
	C188.216309,118.658951 186.707092,122.086884 183.371323,123.411949 
	C180.110825,124.707115 175.307419,123.140656 174.275269,120.365639 
	C174.093704,119.877472 174.405472,119.205818 174.489395,118.618896 
	C175.172577,118.883926 175.855759,119.148956 176.781235,119.710571 
z"/>
<path fill="#C85F59" opacity="1.000000" stroke="none" 
	d="
M71.623573,121.848145 
	C72.536179,122.145149 73.068695,122.288795 73.773422,122.652641 
	C73.945633,122.872833 73.965210,122.971405 73.567146,122.977829 
	C71.862740,123.139999 70.556389,123.295746 69.250046,123.451485 
	C62.157887,124.835732 55.065731,126.219971 47.058292,127.782860 
	C48.051888,126.135063 48.521069,125.356956 48.997780,124.293205 
	C49.005302,124.007561 48.951050,124.005028 48.951050,124.005028 
	C51.107590,123.850533 53.264130,123.696037 56.093903,123.310074 
	C58.554672,122.521721 60.342205,121.964836 62.129742,121.407959 
	C65.167656,121.503571 68.205566,121.599174 71.623573,121.848145 
z"/>
<path fill="#656567" opacity="1.000000" stroke="none" 
	d="
M49.004402,123.980438 
	C48.059250,122.941658 46.447773,122.018082 46.300335,120.901237 
	C45.913479,117.970741 46.190540,114.955681 46.154396,111.974915 
	C46.119663,109.110641 47.388954,105.449486 40.789627,106.401489 
	C41.270706,105.790268 41.751785,105.179047 42.232864,104.567825 
	C44.206131,104.337318 46.179394,104.106819 48.832165,103.796936 
	C48.832165,110.588791 48.832165,116.830505 48.891609,123.538628 
	C48.951050,124.005028 49.005302,124.007561 49.004402,123.980438 
z"/>
<path fill="#D04F4C" opacity="1.000000" stroke="none" 
	d="
M101.108032,118.818741 
	C100.101486,118.313919 99.094940,117.809105 97.878860,117.025154 
	C97.669319,116.746025 97.737350,116.706306 98.074265,116.772568 
	C98.936653,116.609879 99.462135,116.380943 99.987610,116.152000 
	C102.090607,115.543289 104.193604,114.934586 106.950890,114.184555 
	C108.475082,113.979691 109.344986,113.916138 110.214890,113.852577 
	C114.278534,113.281685 118.342186,112.710800 122.734886,112.166908 
	C123.310921,112.624146 123.557907,113.054390 123.906670,113.711830 
	C124.008453,113.939034 123.950890,114.032249 123.617706,113.992462 
	C122.587715,114.135246 121.890923,114.317825 121.194122,114.500397 
	C117.151344,115.268852 113.090645,115.955826 109.073242,116.839600 
	C107.013680,117.292679 105.031487,118.097481 102.383362,118.874390 
	C101.537621,118.943214 101.322823,118.880974 101.108032,118.818741 
z"/>
<path fill="#676769" opacity="1.000000" stroke="none" 
	d="
M134.172455,113.209183 
	C135.157959,112.970650 135.861450,112.972374 136.927734,112.968414 
	C134.658829,115.402824 132.027084,117.842918 128.810104,120.825638 
	C132.599152,121.095360 135.781509,121.321892 138.963852,121.548431 
	C138.949493,122.044579 138.935135,122.540718 138.920761,123.036865 
	C134.897720,123.036865 130.874664,123.036865 126.362831,123.036865 
	C125.670044,117.700081 130.544556,116.111412 134.172455,113.209183 
z"/>
<path fill="#F3B8B3" opacity="1.000000" stroke="none" 
	d="
M61.886772,165.866745 
	C62.692883,163.555283 61.911201,162.225708 59.444160,162.016403 
	C57.747677,161.872467 56.044510,161.807312 54.116478,160.635864 
	C55.730766,159.689957 57.345055,158.744064 59.288429,157.349274 
	C60.113098,155.956039 60.608681,155.011658 61.104263,154.067291 
	C61.505356,154.067215 61.906445,154.067154 62.634468,154.397400 
	C63.591587,155.831741 64.221771,156.935745 64.860985,158.339020 
	C64.676201,160.038193 64.250900,161.453781 64.344322,162.834244 
	C64.475494,164.772583 64.733200,166.479523 61.886772,165.866745 
z"/>
<path fill="#F03F35" opacity="1.000000" stroke="none" 
	d="
M144.040436,171.873169 
	C144.031189,170.378830 143.846771,168.860321 144.048889,167.395142 
	C144.478622,164.280212 145.919510,164.181091 147.977722,166.708099 
	C150.420837,167.731155 152.778992,168.384308 155.578125,169.430908 
	C155.988297,170.773071 155.957504,171.721771 155.926697,172.670456 
	C155.487320,172.715302 155.047928,172.760147 153.961731,172.510620 
	C150.223404,172.101898 147.131927,171.987534 144.040436,171.873169 
z"/>
<path fill="#DF534A" opacity="1.000000" stroke="none" 
	d="
M172.744614,167.647919 
	C172.053329,168.414246 171.220139,169.101181 170.728973,169.979416 
	C170.472534,170.437927 170.818008,171.233078 171.010559,172.170319 
	C168.740768,172.625977 166.345123,172.977264 163.965454,172.890411 
	C161.974106,172.817703 160.357193,172.030411 162.248001,169.267151 
	C163.229477,169.492401 164.011002,170.033554 165.651581,171.169556 
	C166.138412,167.671021 166.769150,164.630661 166.936432,161.565033 
	C167.154480,157.568771 168.699783,156.951828 171.534729,159.512222 
	C167.538895,159.661835 167.163361,160.817398 168.549561,168.765579 
	C169.969635,168.387238 171.357117,168.017578 172.744614,167.647919 
z"/>
<path fill="#4B484B" opacity="1.000000" stroke="none" 
	d="
M110.431442,113.518097 
	C109.344986,113.916138 108.475082,113.979691 107.276787,114.021454 
	C108.238052,111.956360 111.586365,110.086861 108.694458,107.406647 
	C106.214767,105.108467 103.287766,105.552101 101.046303,108.450333 
	C100.745842,108.838821 100.005493,108.887100 99.262077,109.172226 
	C100.427109,104.712311 104.076103,102.831245 108.137192,104.280075 
	C111.872063,105.612534 112.703720,108.561653 110.431442,113.518097 
z"/>
<path fill="#575A5D" opacity="1.000000" stroke="none" 
	d="
M61.760674,121.367958 
	C60.342205,121.964836 58.554672,122.521721 56.376457,123.018768 
	C55.995949,117.858063 60.295902,116.404762 63.547638,114.055275 
	C64.851303,113.113335 66.132690,112.140541 68.675697,110.252762 
	C67.393578,112.391335 66.924187,113.725136 66.008987,114.583748 
	C64.218636,116.263420 62.144939,117.639290 60.311928,119.278870 
	C60.172455,119.403618 61.008831,120.619354 61.760674,121.367958 
z"/>
<path fill="#656565" opacity="1.000000" stroke="none" 
	d="
M91.790787,116.477402 
	C91.150162,117.000336 90.510788,117.065506 89.548683,117.091415 
	C89.205971,115.728645 89.070107,114.394684 89.188438,113.083664 
	C89.503113,109.597603 89.536041,106.315643 85.153702,104.388245 
	C87.109703,104.242386 89.065704,104.096519 91.792053,103.893204 
	C91.792053,108.209160 91.792053,112.114395 91.790787,116.477402 
z"/>
<path fill="#DF534A" opacity="1.000000" stroke="none" 
	d="
M176.111938,157.498428 
	C175.868042,157.866913 175.522110,157.912628 175.213043,157.826324 
	C165.034866,154.984268 163.818832,155.815323 162.483063,166.645844 
	C161.893768,163.615952 161.440720,160.324677 161.312653,157.020828 
	C161.290009,156.436142 162.685654,155.212234 163.318314,155.280762 
	C167.570877,155.741394 171.794250,156.471420 176.111938,157.498428 
z"/>
<path fill="#EDDEDA" opacity="1.000000" stroke="none" 
	d="
M60.664795,154.043518 
	C60.608681,155.011658 60.113098,155.956039 59.271744,156.971741 
	C57.239532,156.992401 55.553097,156.941757 53.364555,156.573776 
	C52.440506,156.036606 52.018566,155.816757 51.596626,155.596893 
	C51.596622,155.596909 51.353863,155.409317 50.903076,155.280411 
	C49.928795,157.103363 49.405300,159.055206 48.881809,161.007065 
	C48.056538,158.673035 47.231266,156.339005 46.119598,153.194992 
	C51.770866,153.525421 55.998096,153.772583 60.664795,154.043518 
z"/>
<path fill="#555557" opacity="1.000000" stroke="none" 
	d="
M161.565338,119.594612 
	C162.399963,120.153091 163.195358,121.105606 164.076828,121.193352 
	C166.369537,121.421555 168.700027,121.270065 171.015427,121.270065 
	C171.019577,121.848839 171.023727,122.427620 171.027878,123.006393 
	C166.838318,123.006393 162.648773,123.006393 157.714218,123.006393 
	C158.395798,121.501801 159.071548,120.010078 160.339447,118.699112 
	C161.142838,119.118111 161.354080,119.356361 161.565338,119.594612 
z"/>
<path fill="#7D7D7E" opacity="1.000000" stroke="none" 
	d="
M100.994453,118.863098 
	C101.322823,118.880974 101.537621,118.943214 102.082237,119.071716 
	C103.438118,119.773354 104.397652,120.759201 105.504433,120.969261 
	C107.640213,121.374641 109.859138,121.341957 112.725769,121.537392 
	C110.245552,123.656853 100.959305,124.882828 99.804146,123.450386 
	C99.145798,122.633995 99.637672,120.890045 100.038200,119.255753 
	C100.464790,118.947723 100.880875,118.907463 100.994453,118.863098 
z"/>
<path fill="#E0524A" opacity="1.000000" stroke="none" 
	d="
M72.028671,170.028870 
	C73.623016,168.843918 75.217354,167.658981 77.470268,165.984573 
	C78.256882,167.509201 79.057877,169.061676 79.582977,170.769516 
	C78.517647,170.033569 77.728218,169.142258 76.656502,167.932251 
	C75.749344,169.602402 75.081062,170.832748 74.412781,172.063110 
	C74.097412,172.290298 73.782043,172.517502 72.837143,172.843613 
	C70.896210,172.790283 69.584808,172.638046 67.963608,172.449860 
	C68.898933,170.431656 69.614372,168.887909 70.322372,167.314209 
	C70.314926,167.284256 70.308578,167.224686 70.575096,167.092010 
	C71.038887,166.422699 71.236160,165.886063 71.448502,165.336365 
	C71.463577,165.323318 71.504051,165.330307 71.757690,165.331253 
	C72.327423,165.213333 72.643509,165.094482 72.959579,164.975616 
	C72.655418,166.422943 72.351250,167.870270 71.809677,169.779037 
	C71.588264,170.595093 71.604279,170.949707 71.620285,171.304321 
	C71.756409,170.879166 71.892540,170.454010 72.028671,170.028870 
z"/>
<path fill="#4F4F52" opacity="1.000000" stroke="none" 
	d="
M168.009842,107.443375 
	C168.523132,107.053734 169.169861,107.001488 170.141815,106.958679 
	C172.778427,113.357262 167.305817,115.019707 163.230820,117.844002 
	C162.386154,117.459053 162.142166,117.125694 161.898193,116.792328 
	C164.101974,114.737190 166.305756,112.682053 168.563690,110.247780 
	C168.459656,109.172684 168.301468,108.476730 168.009842,107.443375 
z"/>
<path fill="#EDDEDA" opacity="1.000000" stroke="none" 
	d="
M64.851959,158.039764 
	C64.221771,156.935745 63.591587,155.831741 62.935249,154.392365 
	C67.225876,154.435913 71.542656,154.814789 75.882370,155.642822 
	C75.905312,156.091965 75.744186,156.250977 75.543098,156.212936 
	C75.342010,156.174896 74.932922,156.161377 74.932922,156.161377 
	C74.932922,156.161377 74.950089,156.060699 74.791611,155.805603 
	C74.111130,155.474091 73.589119,155.397659 73.067116,155.321228 
	C72.610077,155.268723 72.153038,155.216232 71.074959,155.157776 
	C70.039886,155.967514 69.625854,156.783234 69.151382,157.944489 
	C69.060631,158.521881 69.030312,158.753754 68.645615,158.955719 
	C67.144806,158.630463 65.998383,158.335114 64.851959,158.039764 
z"/>
<path fill="#E9E8E8" opacity="1.000000" stroke="none" 
	d="
M57.000328,75.030334 
	C59.872856,75.462143 62.745384,75.893951 65.804214,76.664490 
	C63.279255,77.335220 60.567982,77.667229 57.425762,77.998093 
	C56.994812,77.996948 56.997936,77.500465 56.998909,76.923019 
	C57.000027,75.907166 57.000175,75.468750 57.000328,75.030334 
z"/>
<path fill="#F4D7D6" opacity="1.000000" stroke="none" 
	d="
M70.329819,167.344147 
	C69.614372,168.887909 68.898933,170.431656 67.963608,172.449860 
	C69.584808,172.638046 70.896210,172.790283 72.592476,173.002060 
	C70.494385,173.036819 68.011436,173.012039 65.189919,172.601135 
	C64.933495,171.792191 65.015633,171.369385 65.399200,170.803040 
	C67.243698,169.554367 68.786751,168.449249 70.329819,167.344147 
z"/>
<path fill="#F4D7D6" opacity="1.000000" stroke="none" 
	d="
M90.330460,173.085953 
	C91.891609,172.733536 93.648346,172.733536 95.639366,172.733536 
	C95.857124,170.822540 96.036736,169.246323 96.250595,167.369598 
	C98.267784,167.199966 100.186760,167.038589 102.549332,166.871582 
	C101.374954,167.524292 99.756996,168.182617 97.531738,169.088043 
	C97.255280,172.604156 95.806412,175.820465 90.330460,173.085953 
z"/>
<path fill="#DC3E36" opacity="1.000000" stroke="none" 
	d="
M121.794640,155.783722 
	C122.523758,156.126602 123.928169,156.540512 123.904266,156.840637 
	C123.608360,160.555252 123.104355,164.253296 122.586098,168.513443 
	C122.198105,167.203751 121.948456,166.361023 121.489555,165.277695 
	C121.242004,164.274765 121.203712,163.512421 121.367004,162.279205 
	C121.749084,161.475616 121.670120,161.208038 121.331696,161.005585 
	C121.288368,160.551819 121.245049,160.098038 121.461075,159.052032 
	C121.750839,157.587753 121.781250,156.715698 121.811661,155.843643 
	C121.811653,155.843643 121.806221,155.801880 121.794640,155.783722 
z"/>
<path fill="#DE6B60" opacity="1.000000" stroke="none" 
	d="
M48.936874,161.462708 
	C49.405300,159.055206 49.928795,157.103363 50.749821,155.287155 
	C50.913822,160.957504 50.780289,166.492188 50.840324,172.376587 
	C50.365082,171.908081 49.201332,171.136505 49.119076,170.263077 
	C48.859055,167.501999 49.003777,164.702805 48.936874,161.462708 
z"/>
<path fill="#DF534A" opacity="1.000000" stroke="none" 
	d="
M174.342484,172.049500 
	C175.108093,170.146820 176.213272,168.231476 177.626923,166.169769 
	C179.501221,169.461746 176.760239,170.570007 174.342484,172.049500 
z"/>
<path fill="#DE6B60" opacity="1.000000" stroke="none" 
	d="
M65.097763,170.946594 
	C65.015633,171.369385 64.933495,171.792191 64.788010,172.531525 
	C61.111500,172.890137 57.498341,172.932190 53.441753,172.851822 
	C56.201534,172.060562 59.404739,171.391724 63.034569,170.263367 
	C63.944057,169.601974 64.426918,169.400116 64.932404,169.491043 
	C65.002609,170.171417 65.050186,170.559006 65.097763,170.946594 
z"/>
<path fill="#CA4A48" opacity="1.000000" stroke="none" 
	d="
M161.619675,105.085106 
	C161.429504,105.907791 160.871033,106.724548 160.150543,107.811600 
	C159.502563,108.434555 159.016602,108.787224 158.256470,109.001617 
	C156.719772,108.430595 155.457230,107.997841 153.998215,107.497742 
	C154.824951,107.207710 155.673126,106.910164 156.740173,106.386208 
	C158.389816,105.799599 159.820587,105.439392 161.619675,105.085106 
z"/>
<path fill="#CA4A48" opacity="1.000000" stroke="none" 
	d="
M149.578003,105.946556 
	C149.953674,106.916893 149.934479,107.854683 149.915268,108.792473 
	C148.620361,108.154663 147.325470,107.516853 146.028748,106.508179 
	C147.079010,106.062889 148.131073,105.988449 149.578003,105.946556 
z"/>
<path fill="#F4D7D6" opacity="1.000000" stroke="none" 
	d="
M74.722916,171.998001 
	C75.081062,170.832748 75.749344,169.602402 76.656502,167.932251 
	C77.728218,169.142258 78.517647,170.033569 79.550812,171.143494 
	C79.893593,171.701660 79.992645,172.041183 80.164673,172.637497 
	C78.502785,172.573822 76.767914,172.253357 74.722916,171.998001 
z"/>
<path fill="#DC5C56" opacity="1.000000" stroke="none" 
	d="
M143.782074,171.908630 
	C147.131927,171.987534 150.223404,172.101898 153.634567,172.449020 
	C150.461807,172.683472 146.969360,172.685165 143.240723,172.340729 
	C143.177582,171.977753 143.350647,171.960938 143.782074,171.908630 
z"/>
<path fill="#F4D7D6" opacity="1.000000" stroke="none" 
	d="
M105.338501,164.910095 
	C104.970306,162.578140 104.979340,160.181976 104.939842,157.414948 
	C108.023247,159.342773 107.717041,162.004761 105.338501,164.910095 
z"/>
<path fill="#EDDEDA" opacity="1.000000" stroke="none" 
	d="
M78.602280,155.991913 
	C79.143723,155.992996 79.322433,156.000168 79.769211,156.016174 
	C79.240067,156.953110 78.442848,157.881210 77.184410,158.717575 
	C76.723190,158.625839 76.348221,158.612061 76.348221,158.612061 
	C76.348221,158.612061 76.217110,158.691574 76.259811,158.410309 
	C76.116409,157.503006 75.930298,156.876999 75.744186,156.250977 
	C75.744186,156.250977 75.905312,156.091965 75.986084,156.011322 
	C76.791084,155.953110 77.515312,155.975555 78.602280,155.991913 
z"/>
<path fill="#DC5C56" opacity="1.000000" stroke="none" 
	d="
M156.249207,172.760376 
	C155.957504,171.721771 155.988297,170.773071 155.992920,169.468628 
	C156.795868,169.435135 157.624969,169.757401 158.454086,170.079681 
	C157.826630,171.003235 157.199173,171.926773 156.249207,172.760376 
z"/>
<path fill="#CB6560" opacity="1.000000" stroke="none" 
	d="
M69.575249,123.517937 
	C70.556389,123.295746 71.862740,123.139999 73.517197,122.983337 
	C72.543694,123.183067 71.222069,123.383728 69.575249,123.517937 
z"/>
<path fill="#EBE1DF" opacity="1.000000" stroke="none" 
	d="
M194.001221,77.999847 
	C194.511398,78.302429 195.020370,78.605156 195.529327,78.907890 
	C195.347702,79.117111 195.166077,79.326324 194.984436,79.535538 
	C194.679642,79.213707 194.374832,78.891891 194.034851,78.286255 
	C193.999664,78.002441 194.000000,78.000000 194.001221,77.999847 
z"/>
<path fill="#555557" opacity="1.000000" stroke="none" 
	d="
M161.646698,116.869019 
	C162.142166,117.125694 162.386154,117.459053 162.905151,117.942810 
	C162.806900,118.504364 162.433640,118.915535 161.812866,119.460663 
	C161.354080,119.356361 161.142838,119.118111 160.650467,118.491577 
	C160.711304,117.717430 161.053253,117.331573 161.646698,116.869019 
z"/>
<path fill="#E5544C" opacity="1.000000" stroke="none" 
	d="
M121.544724,156.058350 
	C121.781250,156.715698 121.750839,157.587753 121.509666,158.712555 
	C121.291862,158.067871 121.284828,157.170456 121.544724,156.058350 
z"/>
<path fill="#CA615D" opacity="1.000000" stroke="none" 
	d="
M121.474068,114.536255 
	C121.890923,114.317825 122.587715,114.135246 123.567596,113.970322 
	C123.151787,114.182678 122.452896,114.377396 121.474068,114.536255 
z"/>
<path fill="#F2EAEC" opacity="1.000000" stroke="none" 
	d="
M30.177631,79.247505 
	C30.744730,78.997597 31.494707,78.998581 32.619385,79.001907 
	C32.116226,79.168953 31.238365,79.333672 30.177631,79.247505 
z"/>
<path fill="#F4D7D6" opacity="1.000000" stroke="none" 
	d="
M103.751633,166.761963 
	C103.748299,166.297928 104.091743,165.785980 104.703102,165.118988 
	C104.680145,165.547318 104.389275,166.130676 103.751633,166.761963 
z"/>
<path fill="#CB6560" opacity="1.000000" stroke="none" 
	d="
M99.686920,116.089447 
	C99.462135,116.380943 98.936653,116.609879 98.113434,116.768448 
	C98.339203,116.474350 98.862717,116.250626 99.686920,116.089447 
z"/>
<path fill="#E5544C" opacity="1.000000" stroke="none" 
	d="
M121.254120,161.251251 
	C121.670120,161.208038 121.749084,161.475616 121.435219,161.902527 
	C121.260094,161.830109 121.218323,161.663513 121.254120,161.251251 
z"/>
<path fill="#DC3E36" opacity="1.000000" stroke="none" 
	d="
M135.760361,156.966049 
	C135.711395,157.094604 135.437439,157.148300 135.114685,157.013321 
	C135.065857,156.824631 135.535385,156.891190 135.760361,156.966049 
z"/>
<path fill="#DC3E36" opacity="1.000000" stroke="none" 
	d="
M135.042068,156.641418 
	C134.800293,156.735275 134.468048,156.505295 133.978394,156.006287 
	C134.197861,155.930695 134.574738,156.124146 135.042068,156.641418 
z"/>
<path fill="#DF534A" opacity="1.000000" stroke="none" 
	d="
M172.275421,172.335236 
	C172.290878,172.121841 172.560455,171.948898 172.917114,171.976440 
	C172.845963,172.243195 172.687729,172.309448 172.275421,172.335236 
z"/>
<path fill="#EADDDA" opacity="1.000000" stroke="none" 
	d="
M94.735016,44.157318 
	C94.750496,45.470200 94.251137,47.168037 94.886330,48.017544 
	C96.302124,49.911045 98.217461,52.578236 100.055634,52.681561 
	C101.843834,52.782078 104.050240,50.300045 105.561188,48.518028 
	C106.371223,47.562675 106.103951,45.693893 106.330315,43.853230 
	C108.542366,49.841618 107.948196,54.080593 103.857544,55.169220 
	C101.197517,55.877121 97.465919,55.478085 95.192520,54.034550 
	C91.785423,51.871159 91.417244,48.035686 94.022736,44.227974 
	C94.429504,44.109707 94.735016,44.157318 94.735016,44.157318 
z"/>
<path fill="#EDD9D4" opacity="1.000000" stroke="none" 
	d="
M67.577499,44.140739 
	C67.980217,44.741817 68.180672,45.562618 68.166138,46.379601 
	C68.095741,50.336170 69.884224,52.867496 73.920654,52.913536 
	C78.097168,52.961178 79.538521,50.120975 79.618279,46.342434 
	C79.632103,45.687519 79.687790,45.033493 79.860168,44.087994 
	C83.049377,47.605927 82.289169,51.207451 78.999062,54.259235 
	C76.103706,56.944866 72.593544,56.946465 69.433258,54.742500 
	C65.603310,52.071522 64.998428,48.443726 67.577499,44.140739 
z"/>
<path fill="#F1DDD9" opacity="1.000000" stroke="none" 
	d="
M146.721008,44.231773 
	C147.159485,44.490250 147.453323,44.967495 147.437805,45.434471 
	C147.302658,49.505978 148.274399,53.045670 153.118591,52.961494 
	C158.179138,52.873550 159.011871,49.039230 159.032440,44.496170 
	C162.353134,47.418823 161.433853,50.712067 158.736404,53.691738 
	C155.868805,56.859348 152.238647,57.014519 148.843582,54.786594 
	C144.967667,52.243130 144.107590,48.623077 146.721008,44.231773 
z"/>
<path fill="#F0E1DB" opacity="1.000000" stroke="none" 
	d="
M132.038483,45.473221 
	C132.044998,45.067131 132.388733,44.882374 132.549744,44.775414 
	C135.150665,48.091827 134.997375,51.422798 131.851929,54.197655 
	C128.933716,56.772068 125.414772,57.021515 122.270744,54.759235 
	C118.589302,52.110256 117.725769,48.504002 120.412628,44.226608 
	C121.158768,44.888741 122.129822,45.881771 121.939590,46.538349 
	C120.674927,50.903416 122.864456,52.854820 126.701492,52.926834 
	C131.262802,53.012444 132.244370,49.744881 132.038483,45.473221 
z"/>
<path fill="#E9E0DB" opacity="1.000000" stroke="none" 
	d="
M172.531311,46.084045 
	C172.956589,45.941891 173.123917,45.994244 173.553802,46.062378 
	C173.864258,46.508183 173.912155,46.938213 173.985840,48.050079 
	C177.498291,54.647945 181.364410,54.746296 184.754089,49.005196 
	C184.886856,47.601135 185.019608,46.197071 185.224564,44.366043 
	C188.652161,47.161701 187.682846,50.607040 185.309372,53.635616 
	C182.826706,56.803505 179.167084,56.921982 175.857162,55.248787 
	C172.299973,53.450596 170.504288,50.450329 172.531311,46.084045 
z"/>
<path fill="#EEE7E5" opacity="1.000000" stroke="none" 
	d="
M40.585701,49.785435 
	C41.806248,50.247261 42.730595,50.908791 43.633614,51.598251 
	C47.680511,54.688087 51.561138,52.943844 53.816589,46.969322 
	C55.510635,50.469017 53.568707,54.689205 49.986794,55.816006 
	C45.448242,57.243755 41.265686,54.736912 40.585701,49.785435 
z"/>
<path fill="#F83F2B" opacity="1.000000" stroke="none" 
	d="
M196.999252,45.463577 
	C196.999191,43.576920 196.999191,42.127468 196.999191,40.678013 
	C197.164139,40.671421 197.329102,40.664829 197.494049,40.658234 
	C197.494049,51.033775 197.494049,61.409317 197.494049,71.784859 
	C197.329132,71.792641 197.164230,71.800423 196.999313,71.808197 
	C196.999313,63.172394 196.999313,54.536587 196.999252,45.463577 
z"/>
<path fill="#E6422C" opacity="1.000000" stroke="none" 
	d="
M29.370457,47.927292 
	C29.308180,46.248901 29.609756,44.500534 29.954632,42.372162 
	C29.910057,43.947208 29.822182,45.902264 29.370457,47.927292 
z"/>
<path fill="#484244" opacity="1.000000" stroke="none" 
	d="
M95.001709,43.991257 
	C94.735016,44.157318 94.429504,44.109707 94.314766,44.007168 
	C94.255089,43.167240 94.310150,42.429855 94.523788,41.356564 
	C94.877716,41.955505 95.073059,42.890350 95.001709,43.991257 
z"/>
<path fill="#E6422C" opacity="1.000000" stroke="none" 
	d="
M30.550156,72.464325 
	C30.583616,72.519844 30.516693,72.408806 30.550156,72.464325 
z"/>
<path fill="#494444" opacity="1.000000" stroke="none" 
	d="
M184.372375,49.013687 
	C181.364410,54.746296 177.498291,54.647945 174.053192,48.368069 
	C177.393387,48.343540 180.692032,48.682858 184.372375,49.013687 
z"/>
<path fill="#E7E6E8" opacity="1.000000" stroke="none" 
	d="
M56.614822,75.189804 
	C57.000175,75.468750 57.000027,75.907166 56.999336,76.674774 
	C49.643917,77.002899 42.289032,77.001839 34.465099,76.999321 
	C37.669132,76.667801 41.338875,76.292587 45.016235,76.020256 
	C48.750015,75.743744 52.491310,75.568748 56.614822,75.189804 
z"/>
<path fill="#DC3E36" opacity="1.000000" stroke="none" 
	d="
M132.224182,155.610535 
	C132.801666,158.565170 131.384644,159.605347 128.026505,159.414307 
	C129.459824,158.067978 130.542709,157.050812 131.862457,155.756485 
	C132.099289,155.479340 132.158615,155.598663 132.224182,155.610535 
z"/>
<path fill="#E7E6E8" opacity="1.000000" stroke="none" 
	d="
M153.458313,115.447830 
	C153.514450,115.413155 153.402176,115.482498 153.458313,115.447830 
z"/>
<path fill="#F4D7D6" opacity="1.000000" stroke="none" 
	d="
M69.000000,158.985626 
	C69.030312,158.753754 69.060631,158.521881 69.374939,158.110596 
	C70.053772,158.311920 70.448608,158.692642 70.843445,159.073380 
	C71.094742,159.606979 71.346039,160.140564 71.927277,161.042297 
	C72.405716,161.702194 72.628548,161.916779 72.925705,162.054199 
	C72.957008,162.784592 72.988312,163.514969 72.989594,164.610504 
	C72.643509,165.094482 72.327423,165.213333 71.616852,164.954102 
	C70.481583,162.712555 69.740791,160.849091 69.000000,158.985626 
z"/>
<path fill="#E0524A" opacity="1.000000" stroke="none" 
	d="
M71.065781,158.900497 
	C70.448608,158.692642 70.053772,158.311920 69.435379,157.765076 
	C69.625854,156.783234 70.039886,155.967514 70.737213,155.236862 
	C71.109718,156.457153 71.198914,157.592392 71.065781,158.900497 
z"/>
<path fill="#E0524A" opacity="1.000000" stroke="none" 
	d="
M75.543098,156.212936 
	C75.930298,156.876999 76.116409,157.503006 76.323204,158.453430 
	C75.889008,158.128571 75.434128,157.479309 74.956085,156.495697 
	C74.932922,156.161377 75.342010,156.174896 75.543098,156.212936 
z"/>
<path fill="#E0524A" opacity="1.000000" stroke="none" 
	d="
M73.098495,161.921753 
	C72.628548,161.916779 72.405716,161.702194 72.189407,161.185089 
	C72.504822,161.236267 72.888054,161.512772 73.098495,161.921753 
z"/>
<path fill="#E0524A" opacity="1.000000" stroke="none" 
	d="
M73.240189,155.501495 
	C73.589119,155.397659 74.111130,155.474091 74.740677,155.809143 
	C74.369896,155.939087 73.891586,155.810425 73.240189,155.501495 
z"/>
<path fill="#E0524A" opacity="1.000000" stroke="none" 
	d="
M76.296219,158.821747 
	C76.348221,158.612061 76.723190,158.625839 76.866714,158.746307 
	C76.754898,158.921646 76.499557,158.976547 76.296219,158.821747 
z"/>
<path fill="#E7E6E8" opacity="1.000000" stroke="none" 
	d="
M87.102005,158.033340 
	C87.512192,157.357468 87.870895,156.958221 88.229607,156.558960 
	C88.438835,156.854294 88.648071,157.149628 88.857300,157.444962 
	C88.255043,157.733292 87.652786,158.021622 87.102005,158.033340 
z"/>
<path fill="#E7E6E8" opacity="1.000000" stroke="none" 
	d="
M83.904343,159.898499 
	C84.392029,160.231247 84.967903,160.663101 85.543777,161.094971 
	C85.439651,161.211304 85.253677,161.436218 85.243195,161.428314 
	C84.812202,161.103439 84.396996,160.757629 83.888741,160.115875 
	C83.797684,159.817291 83.992516,159.997620 83.904343,159.898499 
z"/>
<path fill="#E7E6E8" opacity="1.000000" stroke="none" 
	d="
M68.645615,158.955719 
	C69.740791,160.849091 70.481583,162.712555 71.363205,164.953156 
	C71.504051,165.330307 71.463577,165.323318 71.106270,165.365601 
	C70.602165,166.013489 70.455368,166.619095 70.308578,167.224686 
	C70.308578,167.224686 70.314926,167.284256 70.322372,167.314194 
	C68.786751,168.449249 67.243698,169.554367 65.399200,170.803040 
	C65.050186,170.559006 65.002609,170.171417 64.739594,169.130219 
	C61.715633,167.714996 58.907108,166.953400 56.098587,166.191803 
	C56.514278,166.156708 56.929970,166.121628 57.830032,166.310684 
	C58.889553,166.383347 59.464710,166.231873 60.039867,166.080383 
	C60.039867,166.080383 60.503994,166.022385 60.853981,166.191681 
	C61.431660,166.198013 61.659351,166.035049 61.887039,165.872070 
	C61.887035,165.872070 61.914803,165.879501 61.900787,165.873123 
	C64.733200,166.479523 64.475494,164.772583 64.344322,162.834244 
	C64.250900,161.453781 64.676201,160.038193 64.860985,158.339020 
	C65.998383,158.335114 67.144806,158.630463 68.645615,158.955719 
z"/>
<path fill="#F3B8B3" opacity="1.000000" stroke="none" 
	d="
M55.714844,166.149811 
	C58.907108,166.953400 61.715633,167.714996 64.716965,168.837433 
	C64.426918,169.400116 63.944057,169.601974 63.225525,169.932831 
	C60.731621,169.676208 58.473061,169.292496 56.215248,168.904449 
	C54.240738,168.565094 54.241112,168.562927 55.714844,166.149811 
z"/>
<path fill="#DE6B60" opacity="1.000000" stroke="none" 
	d="
M51.456978,155.899170 
	C52.018566,155.816757 52.440506,156.036606 52.951591,156.486359 
	C52.576530,156.952698 52.112324,157.189148 51.648117,157.425598 
	C51.537853,157.017548 51.427589,156.609482 51.456978,155.899170 
z"/>
<path fill="#F3B8B3" opacity="1.000000" stroke="none" 
	d="
M59.694687,166.015686 
	C59.464710,166.231873 58.889553,166.383347 58.141624,166.351746 
	C58.429070,166.096100 58.889286,166.023529 59.694687,166.015686 
z"/>
<path fill="#F3B8B3" opacity="1.000000" stroke="none" 
	d="
M61.651119,165.897781 
	C61.659351,166.035049 61.431660,166.198013 61.085930,166.221588 
	C60.967892,166.082214 61.415199,165.923492 61.651119,165.897781 
z"/>
<path fill="#F2D5D1" opacity="1.000000" stroke="none" 
	d="
M172.780975,167.370483 
	C171.357117,168.017578 169.969635,168.387238 168.549561,168.765579 
	C167.163361,160.817398 167.538895,159.661835 171.629288,159.877838 
	C171.998474,159.895248 172.467270,160.029999 172.700928,160.531281 
	C172.989395,162.691772 173.044189,164.350967 173.098969,166.010162 
	C173.005096,166.371124 172.911224,166.732101 172.780975,167.370483 
z"/>
<path fill="#DF534A" opacity="1.000000" stroke="none" 
	d="
M173.471436,165.988205 
	C173.044189,164.350967 172.989395,162.691772 172.928497,160.619019 
	C173.919373,160.965225 175.693512,161.692749 175.726669,162.492462 
	C175.773560,163.622421 174.533707,164.805740 173.471436,165.988205 
z"/>
<path fill="#E74C44" opacity="1.000000" stroke="none" 
	d="
M72.015915,170.016235 
	C71.892540,170.454010 71.756409,170.879166 71.620285,171.304321 
	C71.604279,170.949707 71.588264,170.595093 71.773453,170.111481 
	C71.974648,169.982498 72.003166,170.003632 72.015915,170.016235 
z"/>
<path fill="#F4D7D6" opacity="1.000000" stroke="none" 
	d="
M70.575096,167.092010 
	C70.455368,166.619095 70.602165,166.013489 71.091202,165.378662 
	C71.236160,165.886063 71.038887,166.422699 70.575096,167.092010 
z"/>
</svg>