<svg version="1.1" id="Layer_1" xmlns="http://www.w3.org/2000/svg" xmlns:xlink="http://www.w3.org/1999/xlink" x="0px" y="0px"
	 width="100%" viewBox="0 0 225 225" enable-background="new 0 0 225 225" xml:space="preserve">
<path fill="#FEFFFF" opacity="1.000000" stroke="none" 
	d="
M132.000000,226.000000 
	C88.000000,226.000000 44.500004,226.000000 1.000006,226.000000 
	C1.000004,151.000000 1.000004,76.000015 1.000002,1.000016 
	C75.999992,1.000011 150.999985,1.000011 225.999969,1.000005 
	C225.999985,75.999985 225.999985,150.999969 226.000000,225.999969 
	C194.833328,226.000000 163.666672,226.000000 132.000000,226.000000 
M82.212456,194.500977 
	C82.174446,194.328568 82.136436,194.156174 82.291702,193.256287 
	C82.236412,192.511002 82.181114,191.765701 82.274345,190.188843 
	C82.222481,188.785782 82.170616,187.382721 82.290878,185.203430 
	C82.232826,184.150131 82.174767,183.096848 82.281403,181.376755 
	C82.223862,180.925003 82.166321,180.473236 82.356506,179.429520 
	C81.110809,178.863785 79.865105,178.298050 77.821693,177.370026 
	C77.821693,181.439728 77.821693,184.125397 77.821693,187.429840 
	C76.209488,185.918167 75.162712,184.936661 73.884758,183.311188 
	C71.341354,181.328720 70.435486,176.899811 65.709900,177.542816 
	C65.709900,183.838074 65.709900,189.730774 65.709900,195.568802 
	C68.639931,196.585373 70.017967,195.865204 69.786911,192.764572 
	C69.615501,190.464218 69.648735,188.148621 69.898773,185.820374 
	C69.898773,185.820374 69.791977,185.530869 70.431816,185.777542 
	C70.933609,186.237167 71.435402,186.696808 72.117920,187.765762 
	C73.389877,189.182404 74.661835,190.599060 76.054893,192.570923 
	C76.349266,192.795013 76.643639,193.019104 77.191986,193.871826 
	C78.819450,194.251984 80.446922,194.632141 82.212456,194.500977 
M65.315987,153.826904 
	C65.447205,154.593460 65.578423,155.360001 65.579758,156.477051 
	C65.612709,156.740540 65.734825,156.952805 66.041489,157.758255 
	C66.961761,158.624573 67.882027,159.490891 69.081863,160.738617 
	C69.081863,160.738617 69.514305,160.930008 69.514305,160.930008 
	C69.514305,160.930008 69.986267,160.900162 70.879631,161.220047 
	C99.944145,161.270020 129.008652,161.322723 158.073181,161.352371 
	C158.719452,161.353027 159.365967,161.090912 160.503464,160.999207 
	C160.503464,160.999207 160.936172,160.762115 161.629944,160.613037 
	C162.777985,158.039841 164.904785,155.474197 164.924698,152.892288 
	C165.158112,122.627167 165.095245,92.359550 165.028595,62.092777 
	C165.024353,60.163246 164.982651,57.683876 163.872681,56.396084 
	C156.746368,48.128117 149.316833,40.121510 141.606522,31.603611 
	C141.077530,31.452814 140.548538,31.302015 139.100418,30.939926 
	C117.236481,30.920551 95.372520,30.878788 73.508614,30.896526 
	C67.560944,30.901352 65.705261,32.843426 65.229263,39.868462 
	C65.206757,76.609741 65.181747,113.351021 65.175232,150.092300 
	C65.175056,151.078278 65.375053,152.064270 65.315987,153.826904 
M106.377167,180.919586 
	C105.928658,181.801086 105.310318,182.637222 105.060562,183.571823 
	C103.878075,187.996933 104.837143,191.766251 108.743439,194.491119 
	C112.281662,196.959244 117.899803,196.804749 121.266426,194.018448 
	C124.714890,191.164444 125.581718,187.473953 124.129166,183.299789 
	C122.534729,178.717865 118.808975,176.861740 114.408195,177.256699 
	C111.830566,177.488022 109.393173,179.281937 106.377167,180.919586 
M155.903992,183.603439 
	C155.903992,187.686813 155.903992,191.770172 155.903992,195.795044 
	C161.081360,195.795044 165.515686,195.795044 170.130280,195.795044 
	C170.466125,190.903992 166.909653,192.810196 164.792374,192.253296 
	C163.272369,191.853500 161.860733,191.041595 160.400757,190.413559 
	C161.816116,189.698959 163.204254,188.922104 164.654541,188.287323 
	C166.095917,187.656448 167.599838,187.168411 169.463715,186.473267 
	C166.213974,183.218262 160.662735,187.779327 160.200272,180.983200 
	C162.642319,180.983200 164.805450,181.156372 166.919678,180.909882 
	C167.970779,180.787323 168.932129,179.894806 169.934067,179.350586 
	C169.038574,178.665955 168.177109,177.450699 167.241531,177.390671 
	C163.632767,177.159164 160.000320,177.296707 155.907013,177.296707 
	C155.907013,179.392593 155.907013,181.017426 155.903992,183.603439 
M90.213943,191.438751 
	C91.621674,192.967957 93.029404,194.497177 94.437134,196.026382 
	C95.736061,194.561462 97.426262,193.288574 98.257812,191.594284 
	C100.429649,187.169113 102.225777,182.559555 104.636024,176.941223 
	C96.467773,178.106140 98.544739,186.241394 94.364700,189.086121 
	C90.503723,185.884064 92.522827,177.765350 84.179878,177.133759 
	C86.326668,182.206207 88.128464,186.463516 90.213943,191.438751 
M150.877808,190.936981 
	C150.407883,191.006866 149.853058,190.939209 149.481506,191.168488 
	C146.594879,192.949890 143.340408,193.271179 141.499298,190.447128 
	C140.340927,188.670319 140.212524,185.241211 141.156052,183.298294 
	C142.679337,180.161560 145.850067,180.486115 148.958939,181.736465 
	C150.017807,182.162323 151.551163,181.408356 153.550980,181.081970 
	C148.293030,176.293777 142.555695,176.017990 138.460709,179.624680 
	C135.164215,182.528091 134.462753,188.153015 136.931152,191.890213 
	C139.636581,195.986343 145.750031,197.531982 150.211731,195.147751 
	C151.731232,194.335770 154.012680,193.534424 150.877808,190.936981 
M56.907047,185.554962 
	C56.911228,188.053497 57.011097,190.556427 56.896641,193.049515 
	C56.734528,196.580765 58.608887,196.209457 60.891178,195.568329 
	C60.891178,189.490814 60.891178,183.708466 60.891178,177.826111 
	C58.065163,176.895920 56.565376,177.399918 56.855793,180.599411 
	C56.975845,181.921967 56.895973,183.262695 56.907047,185.554962 
M132.150711,192.285370 
	C132.138840,188.292618 132.064438,184.298782 132.133972,180.307449 
	C132.194565,176.830063 130.502884,176.955566 128.169464,177.961182 
	C128.169464,183.979294 128.169464,189.760330 128.169464,195.541351 
	C128.562653,195.837112 128.955856,196.132889 129.349045,196.428650 
	C130.284546,195.363785 131.220062,194.298904 132.150711,192.285370 
z"/>
<path fill="#1991D2" opacity="1.000000" stroke="none" 
	d="
M160.012375,160.951385 
	C159.365967,161.090912 158.719452,161.353027 158.073181,161.352371 
	C129.008652,161.322723 99.944145,161.270020 70.415833,160.811340 
	C69.568794,160.387497 69.185539,160.372360 68.802292,160.357208 
	C67.882027,159.490891 66.961761,158.624573 66.012833,157.260529 
	C65.966835,156.518707 65.875320,156.306625 65.709633,156.126556 
	C65.578423,155.360001 65.447205,154.593460 65.737694,153.272675 
	C66.420052,151.799240 66.907631,150.880280 66.908630,149.960785 
	C66.947594,114.228004 66.957420,78.495155 66.879959,42.762505 
	C66.877205,41.490612 65.952805,40.220718 65.457947,38.949894 
	C65.705261,32.843426 67.560944,30.901352 73.508614,30.896526 
	C95.372520,30.878788 117.236481,30.920551 139.589752,31.326347 
	C140.715042,31.818188 141.350983,31.923609 141.986923,32.029030 
	C149.316833,40.121510 156.746368,48.128117 163.872681,56.396084 
	C164.982651,57.683876 165.024353,60.163246 165.028595,62.092777 
	C165.095245,92.359550 165.158112,122.627167 164.924698,152.892288 
	C164.904785,155.474197 162.777985,158.039841 161.173462,160.559402 
	C160.482132,160.654312 160.247253,160.802856 160.012375,160.951385 
M129.963562,37.595585 
	C111.685959,37.512234 93.408356,37.428883 74.922585,36.920986 
	C74.644333,37.069714 74.366074,37.218441 73.387558,37.724495 
	C72.950478,39.505905 72.135872,41.286518 72.132088,43.068851 
	C72.057220,78.386803 72.072845,113.704948 72.086159,149.023056 
	C72.086830,150.802917 72.232368,152.582718 72.328964,154.784409 
	C74.474533,154.784409 76.268509,154.779739 78.062454,154.785110 
	C104.044273,154.862839 130.026093,154.941910 156.310669,155.477676 
	C156.862747,155.273300 157.414825,155.068909 158.092682,154.199417 
	C158.245132,153.099411 158.397583,151.999405 159.020203,150.791107 
	C159.127548,150.674011 159.234894,150.556915 159.342239,150.439804 
	C159.096252,150.245682 158.850250,150.051559 158.369385,148.961884 
	C158.355286,138.179688 158.307098,127.397408 158.335068,116.615326 
	C158.377213,100.375374 158.472595,84.135559 159.025757,67.778801 
	C158.858765,67.459183 158.691772,67.139565 157.899536,66.397209 
	C152.260574,66.242226 146.621613,66.087250 140.810806,65.612671 
	C140.546539,65.718430 140.282288,65.824188 139.344955,66.093933 
	C138.891876,66.029396 138.438812,65.964859 137.924240,65.315262 
	C136.960129,65.125702 135.996017,64.936150 134.367279,64.477913 
	C133.574982,62.255032 132.209763,60.060505 132.098083,57.803940 
	C131.766266,51.099957 131.927826,44.371555 131.831558,37.145031 
	C131.507324,37.215931 131.183075,37.286831 129.963562,37.595585 
M140.649109,59.225567 
	C145.899384,59.225567 151.149643,59.225567 157.550079,59.225567 
	C151.131790,51.937115 145.452087,45.487370 139.772369,39.037628 
	C139.356171,39.201260 138.939972,39.364895 138.523773,39.528526 
	C138.912476,46.035454 139.301178,52.542381 140.649109,59.225567 
z"/>
<path fill="#369ED7" opacity="1.000000" stroke="none" 
	d="
M65.343605,39.409180 
	C65.952805,40.220718 66.877205,41.490612 66.879959,42.762505 
	C66.957420,78.495155 66.947594,114.228004 66.908630,149.960785 
	C66.907631,150.880280 66.420052,151.799240 65.820557,152.884369 
	C65.375053,152.064270 65.175056,151.078278 65.175232,150.092300 
	C65.181747,113.351021 65.206757,76.609741 65.343605,39.409180 
z"/>
<path fill="#1991D2" opacity="1.000000" stroke="none" 
	d="
M106.634933,180.646271 
	C109.393173,179.281937 111.830566,177.488022 114.408195,177.256699 
	C118.808975,176.861740 122.534729,178.717865 124.129166,183.299789 
	C125.581718,187.473953 124.714890,191.164444 121.266426,194.018448 
	C117.899803,196.804749 112.281662,196.959244 108.743439,194.491119 
	C104.837143,191.766251 103.878075,187.996933 105.060562,183.571823 
	C105.310318,182.637222 105.928658,181.801086 106.634933,180.646271 
M109.810402,183.472092 
	C108.222633,186.956848 108.487701,190.407990 112.249245,191.717484 
	C114.187721,192.392319 118.133453,191.476364 118.996696,190.003860 
	C120.066513,188.178986 119.777832,184.363403 118.467804,182.607895 
	C116.316719,179.725357 112.980446,180.209656 109.810402,183.472092 
z"/>
<path fill="#2296D4" opacity="1.000000" stroke="none" 
	d="
M155.905502,183.122833 
	C155.907013,181.017426 155.907013,179.392593 155.907013,177.296707 
	C160.000320,177.296707 163.632767,177.159164 167.241531,177.390671 
	C168.177109,177.450699 169.038574,178.665955 169.934067,179.350586 
	C168.932129,179.894806 167.970779,180.787323 166.919678,180.909882 
	C164.805450,181.156372 162.642319,180.983200 160.200272,180.983200 
	C160.662735,187.779327 166.213974,183.218262 169.463715,186.473267 
	C167.599838,187.168411 166.095917,187.656448 164.654541,188.287323 
	C163.204254,188.922104 161.816116,189.698959 160.400757,190.413559 
	C161.860733,191.041595 163.272369,191.853500 164.792374,192.253296 
	C166.909653,192.810196 170.466125,190.903992 170.130280,195.795044 
	C165.515686,195.795044 161.081360,195.795044 155.903992,195.795044 
	C155.903992,191.770172 155.903992,187.686813 155.905502,183.122833 
z"/>
<path fill="#1A93D3" opacity="1.000000" stroke="none" 
	d="
M90.072098,191.079773 
	C88.128464,186.463516 86.326668,182.206207 84.179878,177.133759 
	C92.522827,177.765350 90.503723,185.884064 94.364700,189.086121 
	C98.544739,186.241394 96.467773,178.106140 104.636024,176.941223 
	C102.225777,182.559555 100.429649,187.169113 98.257812,191.594284 
	C97.426262,193.288574 95.736061,194.561462 94.437134,196.026382 
	C93.029404,194.497177 91.621674,192.967957 90.072098,191.079773 
z"/>
<path fill="#1991D2" opacity="1.000000" stroke="none" 
	d="
M151.150665,191.128448 
	C154.012680,193.534424 151.731232,194.335770 150.211731,195.147751 
	C145.750031,197.531982 139.636581,195.986343 136.931152,191.890213 
	C134.462753,188.153015 135.164215,182.528091 138.460709,179.624680 
	C142.555695,176.017990 148.293030,176.293777 153.550980,181.081970 
	C151.551163,181.408356 150.017807,182.162323 148.958939,181.736465 
	C145.850067,180.486115 142.679337,180.161560 141.156052,183.298294 
	C140.212524,185.241211 140.340927,188.670319 141.499298,190.447128 
	C143.340408,193.271179 146.594879,192.949890 149.481506,191.168488 
	C149.853058,190.939209 150.407883,191.006866 151.150665,191.128448 
z"/>
<path fill="#0E8DD1" opacity="1.000000" stroke="none" 
	d="
M71.937195,187.156433 
	C71.435402,186.696808 70.933609,186.237167 70.050095,185.555023 
	C69.668373,185.332504 69.296867,185.504242 69.296867,185.504242 
	C69.296867,185.504242 69.590813,185.839813 69.590813,185.839813 
	C69.648735,188.148621 69.615501,190.464218 69.786911,192.764572 
	C70.017967,195.865204 68.639931,196.585373 65.709900,195.568802 
	C65.709900,189.730774 65.709900,183.838074 65.709900,177.542816 
	C70.435486,176.899811 71.341354,181.328720 73.721756,183.805557 
	C73.018242,185.252106 72.477722,186.204269 71.937195,187.156433 
z"/>
<path fill="#2296D4" opacity="1.000000" stroke="none" 
	d="
M72.027557,187.461090 
	C72.477722,186.204269 73.018242,185.252106 73.837349,184.127533 
	C75.162712,184.936661 76.209488,185.918167 77.821693,187.429840 
	C77.821693,184.125397 77.821693,181.439728 77.821693,177.370026 
	C79.865105,178.298050 81.110809,178.863785 81.978607,179.855743 
	C81.772713,180.869171 81.944710,181.456360 82.116707,182.043549 
	C82.174767,183.096848 82.232826,184.150131 81.884689,185.607300 
	C80.934883,187.417709 80.391266,188.824219 79.847641,190.230743 
	C80.607033,190.493958 81.366425,190.757187 82.125824,191.020416 
	C82.181114,191.765701 82.236412,192.511002 81.927994,193.629547 
	C81.314957,194.121765 81.065636,194.240723 80.816307,194.359665 
	C81.235664,194.577209 81.655029,194.794754 82.074387,195.012299 
	C80.446922,194.632141 78.819450,194.251984 76.983360,193.290375 
	C76.494423,192.477844 76.214111,192.246780 75.933792,192.015717 
	C74.661835,190.599060 73.389877,189.182404 72.027557,187.461090 
z"/>
<path fill="#0E8DD1" opacity="1.000000" stroke="none" 
	d="
M56.907036,185.075058 
	C56.895973,183.262695 56.975845,181.921967 56.855793,180.599411 
	C56.565376,177.399918 58.065163,176.895920 60.891178,177.826111 
	C60.891178,183.708466 60.891178,189.490814 60.891178,195.568329 
	C58.608887,196.209457 56.734528,196.580765 56.896641,193.049515 
	C57.011097,190.556427 56.911228,188.053497 56.907036,185.075058 
z"/>
<path fill="#0E8DD1" opacity="1.000000" stroke="none" 
	d="
M132.153137,192.759705 
	C131.220062,194.298904 130.284546,195.363785 129.349045,196.428650 
	C128.955856,196.132889 128.562653,195.837112 128.169464,195.541351 
	C128.169464,189.760330 128.169464,183.979294 128.169464,177.961182 
	C130.502884,176.955566 132.194565,176.830063 132.133972,180.307449 
	C132.064438,184.298782 132.138840,188.292618 132.153137,192.759705 
z"/>
<path fill="#0B8ACE" opacity="1.000000" stroke="none" 
	d="
M82.200081,190.604614 
	C81.366425,190.757187 80.607033,190.493958 79.847641,190.230743 
	C80.391266,188.824219 80.934883,187.417709 81.798630,185.995422 
	C82.170616,187.382721 82.222481,188.785782 82.200081,190.604614 
z"/>
<path fill="#0085CD" opacity="1.000000" stroke="none" 
	d="
M141.796722,31.816320 
	C141.350983,31.923609 140.715042,31.818188 140.049316,31.431992 
	C140.548538,31.302015 141.077530,31.452814 141.796722,31.816320 
z"/>
<path fill="#0B8ACE" opacity="1.000000" stroke="none" 
	d="
M82.143417,194.756638 
	C81.655029,194.794754 81.235664,194.577209 80.816307,194.359665 
	C81.065636,194.240723 81.314957,194.121765 81.831360,193.993286 
	C82.136436,194.156174 82.174446,194.328568 82.143417,194.756638 
z"/>
<path fill="#0B8ACE" opacity="1.000000" stroke="none" 
	d="
M82.199051,181.710144 
	C81.944710,181.456360 81.772713,180.869171 81.854736,180.151733 
	C82.166321,180.473236 82.223862,180.925003 82.199051,181.710144 
z"/>
<path fill="#0085CD" opacity="1.000000" stroke="none" 
	d="
M68.942078,160.547913 
	C69.185539,160.372360 69.568794,160.387497 69.969154,160.651398 
	C69.986267,160.900162 69.514305,160.930008 69.514305,160.930008 
	C69.514305,160.930008 69.081863,160.738617 68.942078,160.547913 
z"/>
<path fill="#0085CD" opacity="1.000000" stroke="none" 
	d="
M160.257919,160.975296 
	C160.247253,160.802856 160.482132,160.654312 160.826584,160.633942 
	C160.936172,160.762115 160.503464,160.999207 160.257919,160.975296 
z"/>
<path fill="#0B8ACE" opacity="1.000000" stroke="none" 
	d="
M75.994339,192.293320 
	C76.214111,192.246780 76.494423,192.477844 76.856369,192.976044 
	C76.643639,193.019104 76.349266,192.795013 75.994339,192.293320 
z"/>
<path fill="#369ED7" opacity="1.000000" stroke="none" 
	d="
M65.644699,156.301804 
	C65.875320,156.306625 65.966835,156.518707 65.965149,156.938309 
	C65.734825,156.952805 65.612709,156.740540 65.644699,156.301804 
z"/>
<path fill="#F9FCFD" opacity="1.000000" stroke="none" 
	d="
M140.982651,65.932266 
	C146.621613,66.087250 152.260574,66.242226 158.159286,66.879105 
	C158.461151,67.539238 158.503250,67.717468 158.545334,67.895691 
	C158.472595,84.135559 158.377213,100.375374 158.335068,116.615326 
	C158.307098,127.397408 158.355286,138.179688 158.406815,149.666901 
	C158.479523,150.547729 158.514786,150.723572 158.550034,150.899399 
	C158.397583,151.999405 158.245132,153.099411 157.700882,154.528717 
	C156.875366,154.912231 156.441635,154.966461 156.007919,155.020691 
	C130.026093,154.941910 104.044273,154.862839 78.062454,154.785110 
	C76.268509,154.779739 74.474533,154.784409 72.328964,154.784409 
	C72.232368,152.582718 72.086830,150.802917 72.086159,149.023056 
	C72.072845,113.704948 72.057220,78.386803 72.132088,43.068851 
	C72.135872,41.286518 72.950478,39.505905 73.999832,37.610481 
	C74.784988,37.446159 74.957870,37.395844 75.130753,37.345528 
	C93.408356,37.428883 111.685959,37.512234 130.662292,37.580345 
	C131.539536,37.594303 131.718033,37.623501 131.896545,37.652699 
	C131.927826,44.371555 131.766266,51.099957 132.098083,57.803940 
	C132.209763,60.060505 133.574982,62.255032 134.943359,64.844940 
	C136.341522,65.441422 137.163635,65.670876 137.985733,65.900322 
	C138.438812,65.964859 138.891876,66.029396 139.922516,66.065109 
	C140.500076,66.036293 140.982651,65.932266 140.982651,65.932266 
M84.446068,96.041809 
	C84.379509,96.367912 84.312950,96.694023 84.157913,97.760330 
	C84.223557,98.495956 84.289200,99.231575 84.410774,100.517998 
	C84.932770,100.608482 85.454765,100.698967 86.906227,100.938766 
	C105.266579,100.903397 123.626938,100.868034 142.763504,100.981544 
	C147.137268,101.001068 146.293015,98.660667 144.350983,95.801872 
	C143.899582,95.857262 143.448196,95.912659 142.264206,95.752373 
	C141.507324,95.804924 140.750458,95.857468 139.075562,95.703918 
	C121.387459,95.775772 103.699348,95.847626 85.492340,95.819420 
	C85.328850,95.884987 85.165352,95.950554 84.446068,96.041809 
M145.535721,112.713608 
	C145.535721,112.713608 145.547134,112.656822 145.738998,112.195671 
	C145.806580,111.846474 145.734131,111.529282 145.670273,110.665207 
	C145.632126,110.469681 145.593979,110.274147 145.455719,109.385727 
	C128.384140,109.260643 111.312592,109.131836 94.240967,109.013741 
	C90.964157,108.991066 87.687050,109.010483 83.687309,109.010483 
	C84.246132,111.113335 84.625526,112.540977 85.920113,114.186874 
	C102.940079,114.200798 119.960144,114.242256 136.979843,114.181274 
	C138.494278,114.175858 140.006317,113.504372 141.521286,113.093964 
	C141.521286,113.093964 141.562256,113.067413 141.472702,113.014191 
	C141.472702,113.014191 141.421295,113.104790 141.652512,113.935158 
	C142.763016,113.915260 143.873535,113.895355 145.422028,113.873985 
	C145.525330,113.772667 145.719543,113.666649 145.714600,113.570930 
	C145.700684,113.302109 145.604706,113.037529 145.535721,112.713608 
M117.842339,141.158279 
	C118.600945,140.083817 119.359558,139.009338 120.118164,137.934860 
	C119.084534,137.348297 118.050896,136.761734 116.492088,136.063049 
	C116.316856,136.099564 116.141617,136.136093 115.501205,136.055603 
	C115.501205,136.055603 115.031616,136.153351 114.100502,136.006683 
	C104.721893,136.053162 95.343277,136.099625 85.369438,136.035416 
	C84.993225,136.352905 84.617004,136.670395 84.126472,137.731934 
	C84.422890,138.798447 84.719307,139.864960 85.497620,141.115295 
	C85.665413,141.077835 85.833214,141.040390 86.921913,141.194000 
	C96.947105,141.131836 106.972290,141.069656 117.842339,141.158279 
M115.026840,122.658363 
	C105.365211,122.730721 95.703583,122.803070 85.502235,122.776192 
	C85.335564,122.851578 85.168900,122.926956 84.295143,123.374626 
	C84.295143,124.777016 84.295143,126.179405 84.295143,127.926170 
	C95.646896,127.926170 106.542183,127.890091 117.436958,127.948845 
	C120.580414,127.965790 120.409470,126.130806 119.806084,123.206566 
	C118.515915,123.096283 117.225746,122.986008 115.026840,122.658363 
M131.832199,132.877762 
	C133.924698,133.553894 136.017212,134.230011 138.109711,134.906143 
	C138.043777,135.498123 137.977844,136.090088 137.911926,136.682068 
	C135.989227,136.682068 134.059784,136.583450 132.146103,136.714752 
	C130.733841,136.811661 129.342178,137.208496 127.941338,137.471725 
	C129.022705,138.616150 130.033829,139.840363 131.210587,140.876465 
	C131.972794,141.547562 133.345337,141.726303 133.804230,142.503616 
	C135.215576,144.894257 136.077789,145.005524 137.270142,142.346375 
	C137.652435,141.493820 139.158356,141.206772 139.757767,140.377396 
	C141.105713,138.512238 143.175995,136.435287 143.107788,134.509918 
	C143.051987,132.935379 140.515121,131.160858 138.730682,130.017319 
	C136.985611,128.899033 134.800827,128.466919 132.809067,127.733612 
	C132.897324,127.271599 132.985580,126.809586 133.073837,126.347572 
	C134.435410,126.204552 135.804977,126.113327 137.156494,125.905083 
	C138.759445,125.658096 140.346863,125.310364 141.941010,125.006302 
	C140.859772,123.931854 139.747025,122.886757 138.709045,121.772018 
	C138.081726,121.098335 137.711563,120.006126 136.968430,119.668434 
	C136.183228,119.311623 134.934036,119.325500 134.173996,119.723946 
	C133.163422,120.253746 132.560730,121.548859 131.555710,122.104141 
	C126.113037,125.111282 125.916321,128.904175 131.832199,132.877762 
M96.806107,75.212692 
	C96.030884,76.726135 95.255653,78.239571 94.471855,79.769753 
	C92.648552,78.141861 90.833160,76.521027 88.380463,74.331184 
	C88.380463,78.961960 88.380463,82.413330 88.380463,85.864700 
	C88.797333,85.973145 89.214211,86.081581 89.631081,86.190025 
	C90.218697,84.531059 90.806305,82.872101 91.416222,81.150154 
	C93.399170,82.971497 95.192459,84.618645 96.985748,86.265785 
	C97.346359,86.061195 97.706978,85.856606 98.067589,85.652023 
	C97.901459,82.262466 97.735336,78.872910 96.806107,75.212692 
M146.342438,83.866463 
	C145.235153,83.663834 144.127869,83.461205 143.020599,83.258575 
	C143.033844,82.931267 143.047104,82.603958 143.060364,82.276649 
	C144.660080,81.752579 146.259796,81.228508 149.088776,80.301727 
	C146.133301,79.492622 144.592270,79.070732 143.051224,78.648849 
	C143.069397,78.341187 143.087570,78.033524 143.105743,77.725861 
	C144.851501,77.323463 146.597244,76.921059 148.343002,76.518661 
	C148.264587,76.154640 148.186172,75.790627 148.107758,75.426605 
	C145.625809,75.426605 143.143875,75.426605 140.613022,75.426605 
	C140.613022,79.121902 140.613022,82.456535 140.613022,85.942741 
	C143.167679,85.942741 145.300812,85.942741 147.433945,85.942741 
	C147.331924,85.255241 147.229889,84.567741 146.342438,83.866463 
M111.157249,82.910164 
	C112.124535,83.792221 113.135208,85.455620 114.050697,85.404800 
	C116.464622,85.270767 119.439232,85.044357 121.018562,83.585724 
	C122.104713,82.582581 122.110054,78.492920 121.028831,77.510742 
	C119.427383,76.055984 115.963524,75.072151 114.170609,75.867424 
	C112.496277,76.610077 111.967064,79.934402 111.157249,82.910164 
M108.803329,75.262314 
	C107.438156,77.389114 106.072983,79.515923 104.783905,81.524178 
	C103.347115,79.177086 101.994209,76.967049 100.641312,74.757011 
	C100.151268,75.082954 99.661224,75.408897 99.171181,75.734848 
	C100.385986,78.582428 101.426048,81.528717 102.939529,84.207565 
	C103.313766,84.869980 106.180717,85.052895 106.284538,84.797867 
	C107.544312,81.703278 108.501144,78.485374 108.803329,75.262314 
M131.172058,79.746231 
	C133.359436,78.726959 135.546814,77.707687 138.368301,76.392937 
	C135.295761,74.684273 132.361679,74.004761 129.821991,77.079254 
	C127.594124,79.776268 127.860413,82.789574 130.803070,84.916512 
	C133.421295,86.808968 135.981369,86.525146 137.667862,84.990669 
	C135.077148,83.218781 133.094910,81.863045 131.172058,79.746231 
M85.214378,75.479385 
	C84.533157,75.663742 83.266319,75.825821 83.258331,76.035789 
	C83.133316,79.322823 83.170723,82.616035 83.170723,85.907822 
	C83.887810,85.946754 84.604897,85.985687 85.321976,86.024628 
	C85.435066,82.751564 85.548149,79.478500 85.214378,75.479385 
M124.017036,77.861847 
	C124.017036,80.587860 124.017036,83.313873 124.017036,86.039886 
	C124.927437,86.039406 125.837837,86.038925 126.748238,86.038445 
	C126.748238,82.784027 126.748238,79.529610 126.748238,76.275192 
	C125.847908,76.511208 124.947586,76.747223 124.017036,77.861847 
z"/>
<path fill="#FBFDFC" opacity="1.000000" stroke="none" 
	d="
M140.169495,59.137436 
	C139.301178,52.542381 138.912476,46.035454 138.523773,39.528526 
	C138.939972,39.364895 139.356171,39.201260 139.772369,39.037628 
	C145.452087,45.487370 151.131790,51.937115 157.550079,59.225567 
	C151.149643,59.225567 145.899384,59.225567 140.169495,59.137436 
z"/>
<path fill="#0085CD" opacity="1.000000" stroke="none" 
	d="
M137.954987,65.607788 
	C137.163635,65.670876 136.341522,65.441422 135.275665,64.979279 
	C135.996017,64.936150 136.960129,65.125702 137.954987,65.607788 
z"/>
<path fill="#0088D1" opacity="1.000000" stroke="none" 
	d="
M156.159302,155.249176 
	C156.441635,154.966461 156.875366,154.912231 157.638000,154.861267 
	C157.414825,155.068909 156.862747,155.273300 156.159302,155.249176 
z"/>
<path fill="#008BD0" opacity="1.000000" stroke="none" 
	d="
M158.785126,150.845245 
	C158.514786,150.723572 158.479523,150.547729 158.524261,150.114670 
	C158.850250,150.051559 159.096252,150.245682 159.342255,150.439819 
	C159.234894,150.556915 159.127548,150.674011 158.785126,150.845245 
z"/>
<path fill="#008BD0" opacity="1.000000" stroke="none" 
	d="
M158.785553,67.837250 
	C158.503250,67.717468 158.461151,67.539238 158.471909,67.090469 
	C158.691772,67.139565 158.858765,67.459183 158.785553,67.837250 
z"/>
<path fill="#0085CD" opacity="1.000000" stroke="none" 
	d="
M140.896729,65.772469 
	C140.982651,65.932266 140.500076,66.036293 140.259048,65.983124 
	C140.282288,65.824188 140.546539,65.718430 140.896729,65.772469 
z"/>
<path fill="#0088D1" opacity="1.000000" stroke="none" 
	d="
M131.864044,37.398865 
	C131.718033,37.623501 131.539536,37.594303 131.109940,37.461418 
	C131.183075,37.286831 131.507324,37.215931 131.864044,37.398865 
z"/>
<path fill="#0088D1" opacity="1.000000" stroke="none" 
	d="
M75.026672,37.133259 
	C74.957870,37.395844 74.784988,37.446159 74.349968,37.431820 
	C74.366074,37.218441 74.644333,37.069714 75.026672,37.133259 
z"/>
<path fill="#F4FAFB" opacity="1.000000" stroke="none" 
	d="
M110.058281,183.154739 
	C112.980446,180.209656 116.316719,179.725357 118.467804,182.607895 
	C119.777832,184.363403 120.066513,188.178986 118.996696,190.003860 
	C118.133453,191.476364 114.187721,192.392319 112.249245,191.717484 
	C108.487701,190.407990 108.222633,186.956848 110.058281,183.154739 
z"/>
<path fill="#2296D4" opacity="1.000000" stroke="none" 
	d="
M69.744797,185.830093 
	C69.590813,185.839813 69.296867,185.504242 69.296867,185.504242 
	C69.296867,185.504242 69.668373,185.332504 69.730179,185.431686 
	C69.791977,185.530869 69.898773,185.820374 69.744797,185.830093 
z"/>
<path fill="#1590D2" opacity="1.000000" stroke="none" 
	d="
M131.469238,132.748825 
	C125.916321,128.904175 126.113037,125.111282 131.555710,122.104141 
	C132.560730,121.548859 133.163422,120.253746 134.173996,119.723946 
	C134.934036,119.325500 136.183228,119.311623 136.968430,119.668434 
	C137.711563,120.006126 138.081726,121.098335 138.709045,121.772018 
	C139.747025,122.886757 140.859772,123.931854 141.941010,125.006302 
	C140.346863,125.310364 138.759445,125.658096 137.156494,125.905083 
	C135.804977,126.113327 134.435410,126.204552 133.073837,126.347572 
	C132.985580,126.809586 132.897324,127.271599 132.809067,127.733612 
	C134.800827,128.466919 136.985611,128.899033 138.730682,130.017319 
	C140.515121,131.160858 143.051987,132.935379 143.107788,134.509918 
	C143.175995,136.435287 141.105713,138.512238 139.757767,140.377396 
	C139.158356,141.206772 137.652435,141.493820 137.270142,142.346375 
	C136.077789,145.005524 135.215576,144.894257 133.804230,142.503616 
	C133.345337,141.726303 131.972794,141.547562 131.210587,140.876465 
	C130.033829,139.840363 129.022705,138.616150 127.941338,137.471725 
	C129.342178,137.208496 130.733841,136.811661 132.146103,136.714752 
	C134.059784,136.583450 135.989227,136.682068 137.911926,136.682068 
	C137.977844,136.090088 138.043777,135.498123 138.109711,134.906143 
	C136.017212,134.230011 133.924698,133.553894 131.469238,132.748825 
z"/>
<path fill="#1C90D3" opacity="1.000000" stroke="none" 
	d="
M85.004913,113.968613 
	C84.625526,112.540977 84.246132,111.113335 83.687309,109.010483 
	C87.687050,109.010483 90.964157,108.991066 94.240967,109.013741 
	C111.312592,109.131836 128.384140,109.260643 145.249542,109.797012 
	C145.202789,110.553566 145.362213,110.898819 145.521652,111.244080 
	C145.734131,111.529282 145.806580,111.846474 145.130310,112.519745 
	C143.488174,112.930809 142.454727,113.017799 141.421295,113.104797 
	C141.421295,113.104790 141.472702,113.014191 141.124191,112.800507 
	C138.980515,112.391624 137.185806,112.031693 135.390137,112.026917 
	C118.925659,111.983116 102.461021,112.000931 85.752563,112.163040 
	C85.340759,112.873070 85.172844,113.420837 85.004913,113.968613 
M142.529922,110.623871 
	C142.474762,110.840500 142.419586,111.057129 142.364426,111.273750 
	C142.500992,111.134476 142.637558,110.995201 142.529922,110.623871 
z"/>
<path fill="#008BD0" opacity="1.000000" stroke="none" 
	d="
M139.993576,95.910011 
	C140.750458,95.857468 141.507324,95.804924 142.631195,96.117752 
	C142.998367,96.654808 142.998566,96.826485 142.970032,97.330612 
	C142.623276,98.719589 142.305283,99.776131 141.987289,100.832672 
	C123.626938,100.868034 105.266579,100.903397 86.299484,100.670883 
	C85.246780,100.257736 84.800812,100.112465 84.354843,99.967194 
	C84.289200,99.231575 84.223557,98.495956 84.395401,97.384933 
	C84.632881,97.009529 85.020889,96.997459 85.265289,96.998375 
	C85.509689,96.999290 85.998489,97.001175 86.292526,97.298264 
	C103.466148,97.726830 120.345734,97.891304 137.225388,97.900162 
	C138.147766,97.900642 139.070831,96.603264 139.993576,95.910011 
z"/>
<path fill="#1C91D3" opacity="1.000000" stroke="none" 
	d="
M86.041954,122.875420 
	C95.703583,122.803070 105.365211,122.730721 115.699875,123.061462 
	C117.568718,123.640343 118.764526,123.816116 119.960335,123.991898 
	C120.409470,126.130806 120.580414,127.965790 117.436958,127.948845 
	C106.542183,127.890091 95.646896,127.926170 84.295143,127.926170 
	C84.295143,126.179405 84.295143,124.777016 84.757263,123.355209 
	C85.493576,123.182343 85.767769,123.028885 86.041954,122.875420 
z"/>
<path fill="#128FD2" opacity="1.000000" stroke="none" 
	d="
M115.966370,136.172623 
	C116.141617,136.136093 116.316856,136.099564 116.802185,136.420624 
	C118.517311,138.227142 119.039467,139.652115 116.997482,141.007477 
	C106.972290,141.069656 96.947105,141.131836 86.378754,140.932587 
	C85.562309,140.757935 85.289017,140.844711 85.015724,140.931473 
	C84.719307,139.864960 84.422890,138.798447 84.438721,137.341263 
	C85.155533,136.682434 85.560104,136.414261 85.964668,136.146088 
	C95.343277,136.099625 104.721893,136.053162 114.650032,136.225464 
	C115.455162,136.353699 115.710770,136.263153 115.966370,136.172623 
z"/>
<path fill="#1291D3" opacity="1.000000" stroke="none" 
	d="
M139.534576,95.806961 
	C139.070831,96.603264 138.147766,97.900642 137.225388,97.900162 
	C120.345734,97.891304 103.466148,97.726830 86.295906,97.027832 
	C86.007256,96.280022 86.009254,96.099747 86.011246,95.919479 
	C103.699348,95.847626 121.387459,95.775772 139.534576,95.806961 
z"/>
<path fill="#2496D5" opacity="1.000000" stroke="none" 
	d="
M97.187660,75.348022 
	C97.735336,78.872910 97.901459,82.262466 98.067589,85.652023 
	C97.706978,85.856606 97.346359,86.061195 96.985748,86.265785 
	C95.192459,84.618645 93.399170,82.971497 91.416222,81.150154 
	C90.806305,82.872101 90.218697,84.531059 89.631081,86.190025 
	C89.214211,86.081581 88.797333,85.973145 88.380463,85.864700 
	C88.380463,82.413330 88.380463,78.961960 88.380463,74.331184 
	C90.833160,76.521027 92.648552,78.141861 94.471855,79.769753 
	C95.255653,78.239571 96.030884,76.726135 97.187660,75.348022 
z"/>
<path fill="#2E99D5" opacity="1.000000" stroke="none" 
	d="
M146.735138,83.873352 
	C147.229889,84.567741 147.331924,85.255241 147.433945,85.942741 
	C145.300812,85.942741 143.167679,85.942741 140.613022,85.942741 
	C140.613022,82.456535 140.613022,79.121902 140.613022,75.426605 
	C143.143875,75.426605 145.625809,75.426605 148.107758,75.426605 
	C148.186172,75.790627 148.264587,76.154640 148.343002,76.518661 
	C146.597244,76.921059 144.851501,77.323463 143.105743,77.725861 
	C143.087570,78.033524 143.069397,78.341187 143.051224,78.648849 
	C144.592270,79.070732 146.133301,79.492622 149.088776,80.301727 
	C146.259796,81.228508 144.660080,81.752579 143.060364,82.276649 
	C143.047104,82.603958 143.033844,82.931267 143.020599,83.258575 
	C144.127869,83.461205 145.235153,83.663834 146.735138,83.873352 
z"/>
<path fill="#1C91D3" opacity="1.000000" stroke="none" 
	d="
M111.045540,82.516281 
	C111.967064,79.934402 112.496277,76.610077 114.170609,75.867424 
	C115.963524,75.072151 119.427383,76.055984 121.028831,77.510742 
	C122.110054,78.492920 122.104713,82.582581 121.018562,83.585724 
	C119.439232,85.044357 116.464622,85.270767 114.050697,85.404800 
	C113.135208,85.455620 112.124535,83.792221 111.045540,82.516281 
M114.472580,77.919060 
	C114.447876,79.646606 114.194786,81.426125 114.567284,83.063301 
	C114.654816,83.448044 117.252625,83.887741 117.984451,83.344368 
	C118.941078,82.634094 119.925575,80.139076 119.614960,79.864761 
	C118.375443,78.770081 116.638260,78.238907 114.472580,77.919060 
z"/>
<path fill="#2897D4" opacity="1.000000" stroke="none" 
	d="
M109.170021,75.280914 
	C108.501144,78.485374 107.544312,81.703278 106.284538,84.797867 
	C106.180717,85.052895 103.313766,84.869980 102.939529,84.207565 
	C101.426048,81.528717 100.385986,78.582428 99.171181,75.734848 
	C99.661224,75.408897 100.151268,75.082954 100.641312,74.757011 
	C101.994209,76.967049 103.347115,79.177086 104.783905,81.524178 
	C106.072983,79.515923 107.438156,77.389114 109.170021,75.280914 
z"/>
<path fill="#0085CD" opacity="1.000000" stroke="none" 
	d="
M85.462517,114.077744 
	C85.172844,113.420837 85.340759,112.873070 86.044807,112.462677 
	C88.376495,112.733177 90.171555,112.974266 91.967690,112.982552 
	C108.484848,113.058746 125.002182,113.094620 141.519470,113.142235 
	C140.006317,113.504372 138.494278,114.175858 136.979843,114.181274 
	C119.960144,114.242256 102.940079,114.200798 85.462517,114.077744 
z"/>
<path fill="#2296D4" opacity="1.000000" stroke="none" 
	d="
M131.142365,80.126770 
	C133.094910,81.863045 135.077148,83.218781 137.667862,84.990669 
	C135.981369,86.525146 133.421295,86.808968 130.803070,84.916512 
	C127.860413,82.789574 127.594124,79.776268 129.821991,77.079254 
	C132.361679,74.004761 135.295761,74.684273 138.368301,76.392937 
	C135.546814,77.707687 133.359436,78.726959 131.142365,80.126770 
z"/>
<path fill="#2290CD" opacity="1.000000" stroke="none" 
	d="
M141.520386,113.118103 
	C125.002182,113.094620 108.484848,113.058746 91.967690,112.982552 
	C90.171555,112.974266 88.376495,112.733177 86.288681,112.300430 
	C102.461021,112.000931 118.925659,111.983116 135.390137,112.026917 
	C137.185806,112.031693 138.980515,112.391624 141.168976,112.827118 
	C141.562256,113.067413 141.521286,113.093964 141.520386,113.118103 
z"/>
<path fill="#369ED7" opacity="1.000000" stroke="none" 
	d="
M85.437805,75.842407 
	C85.548149,79.478500 85.435066,82.751564 85.321976,86.024628 
	C84.604897,85.985687 83.887810,85.946754 83.170723,85.907822 
	C83.170723,82.616035 83.133316,79.322823 83.258331,76.035789 
	C83.266319,75.825821 84.533157,75.663742 85.437805,75.842407 
z"/>
<path fill="#43A0D6" opacity="1.000000" stroke="none" 
	d="
M124.032150,77.422546 
	C124.947586,76.747223 125.847908,76.511208 126.748238,76.275192 
	C126.748238,79.529610 126.748238,82.784027 126.748238,86.038445 
	C125.837837,86.038925 124.927437,86.039406 124.017036,86.039886 
	C124.017036,83.313873 124.017036,80.587860 124.032150,77.422546 
z"/>
<path fill="#1291D3" opacity="1.000000" stroke="none" 
	d="
M142.375397,100.907104 
	C142.305283,99.776131 142.623276,98.719589 143.257050,97.315704 
	C144.038422,96.680092 144.504028,96.391830 144.969635,96.103577 
	C146.293015,98.660667 147.137268,101.001068 142.375397,100.907104 
z"/>
<path fill="#0084D0" opacity="1.000000" stroke="none" 
	d="
M117.419907,141.082886 
	C119.039467,139.652115 118.517311,138.227142 117.064774,136.476685 
	C118.050896,136.761734 119.084534,137.348297 120.118164,137.934860 
	C119.359558,139.009338 118.600945,140.083817 117.419907,141.082886 
z"/>
<path fill="#0084D0" opacity="1.000000" stroke="none" 
	d="
M119.883209,123.599228 
	C118.764526,123.816116 117.568718,123.640343 116.154243,123.170151 
	C117.225746,122.986008 118.515915,123.096283 119.883209,123.599228 
z"/>
<path fill="#0085CD" opacity="1.000000" stroke="none" 
	d="
M141.536896,113.519974 
	C142.454727,113.017799 143.488174,112.930809 145.034363,112.750320 
	C145.547134,112.656822 145.535721,112.713608 145.346405,112.992935 
	C145.099396,113.473335 145.041718,113.674400 144.984039,113.875458 
	C143.873535,113.895355 142.763016,113.915260 141.536896,113.519974 
z"/>
<path fill="#1291D3" opacity="1.000000" stroke="none" 
	d="
M84.382812,100.242599 
	C84.800812,100.112465 85.246780,100.257736 85.834755,100.596222 
	C85.454765,100.698967 84.932770,100.608482 84.382812,100.242599 
z"/>
<path fill="#0084D0" opacity="1.000000" stroke="none" 
	d="
M144.660309,95.952721 
	C144.504028,96.391830 144.038422,96.680092 143.285797,96.983261 
	C142.998566,96.826485 142.998367,96.654808 142.997498,96.225586 
	C143.448196,95.912659 143.899582,95.857262 144.660309,95.952721 
z"/>
<path fill="#008BD0" opacity="1.000000" stroke="none" 
	d="
M85.667053,136.090759 
	C85.560104,136.414261 85.155533,136.682434 84.495880,136.969238 
	C84.617004,136.670395 84.993225,136.352905 85.667053,136.090759 
z"/>
<path fill="#1C90D3" opacity="1.000000" stroke="none" 
	d="
M145.203033,113.874725 
	C145.041718,113.674400 145.099396,113.473335 145.349091,113.021774 
	C145.604706,113.037529 145.700684,113.302109 145.714600,113.570930 
	C145.719543,113.666649 145.525330,113.772667 145.203033,113.874725 
z"/>
<path fill="#0085CD" opacity="1.000000" stroke="none" 
	d="
M145.595963,110.954643 
	C145.362213,110.898819 145.202789,110.553566 145.299591,110.143456 
	C145.593979,110.274147 145.632126,110.469681 145.595963,110.954643 
z"/>
<path fill="#008BD0" opacity="1.000000" stroke="none" 
	d="
M115.733788,136.114105 
	C115.710770,136.263153 115.455162,136.353699 115.115585,136.298798 
	C115.031616,136.153351 115.501205,136.055603 115.733788,136.114105 
z"/>
<path fill="#0084D0" opacity="1.000000" stroke="none" 
	d="
M85.256668,141.023376 
	C85.289017,140.844711 85.562309,140.757935 85.918304,140.837051 
	C85.833214,141.040390 85.665413,141.077835 85.256668,141.023376 
z"/>
<path fill="#0084D0" opacity="1.000000" stroke="none" 
	d="
M85.751793,95.869446 
	C86.009254,96.099747 86.007256,96.280022 86.001877,96.730743 
	C85.998489,97.001175 85.509689,96.999290 85.256088,96.753151 
	C85.002495,96.507011 85.001854,96.016121 85.001854,96.016121 
	C85.165352,95.950554 85.328850,95.884987 85.751793,95.869446 
z"/>
<path fill="#1291D3" opacity="1.000000" stroke="none" 
	d="
M84.723961,96.028961 
	C85.001854,96.016121 85.002495,96.507011 85.011688,96.752235 
	C85.020889,96.997459 84.632881,97.009529 84.439636,97.014832 
	C84.312950,96.694023 84.379509,96.367912 84.723961,96.028961 
z"/>
<path fill="#0084D0" opacity="1.000000" stroke="none" 
	d="
M85.772095,122.825806 
	C85.767769,123.028885 85.493576,123.182343 85.110817,123.169067 
	C85.168900,122.926956 85.335564,122.851578 85.772095,122.825806 
z"/>
<path fill="#0085CD" opacity="1.000000" stroke="none" 
	d="
M142.652039,110.739899 
	C142.637558,110.995201 142.500992,111.134476 142.364426,111.273758 
	C142.419586,111.057129 142.474762,110.840500 142.652039,110.739899 
z"/>
<path fill="#E8F4F6" opacity="1.000000" stroke="none" 
	d="
M114.778931,77.709106 
	C116.638260,78.238907 118.375443,78.770081 119.614960,79.864761 
	C119.925575,80.139076 118.941078,82.634094 117.984451,83.344368 
	C117.252625,83.887741 114.654816,83.448044 114.567284,83.063301 
	C114.194786,81.426125 114.447876,79.646606 114.778931,77.709106 
z"/>
</svg>