<svg version="1.1" id="Layer_1" xmlns="http://www.w3.org/2000/svg" xmlns:xlink="http://www.w3.org/1999/xlink" x="0px" y="0px"
	 width="100%" viewBox="0 0 225 225" enable-background="new 0 0 225 225" xml:space="preserve">
<path fill="#DA5C66" opacity="1.000000" stroke="none" 
	d="
M101.000000,1.000001 
	C108.687576,1.000000 116.375153,1.000000 124.755981,1.330933 
	C147.299042,4.171683 166.958817,12.084054 184.032684,25.974783 
	C198.441681,37.697468 209.766022,51.851566 216.197113,69.471909 
	C208.894394,62.856251 201.957932,56.093803 194.935959,49.421352 
	C192.587982,47.190273 190.021576,45.189064 187.299316,42.884628 
	C182.527588,35.037830 175.492538,31.372824 166.669464,29.762417 
	C159.890945,29.681057 153.443237,29.849604 146.759216,30.148380 
	C146.358383,30.351381 146.193863,30.424150 145.566345,30.397812 
	C139.977432,30.271706 134.851532,30.221624 129.725632,30.221910 
	C112.254250,30.222885 103.118835,39.375431 101.773712,58.138924 
	C101.333946,58.477112 101.136833,58.720764 100.554245,59.009163 
	C97.407707,59.247204 94.694153,59.478935 91.752144,59.780121 
	C91.523689,59.849571 91.082680,60.032795 90.611160,59.955193 
	C84.095573,59.920582 78.051514,59.963570 71.544647,59.927475 
	C65.420227,59.789268 59.758606,59.730152 54.080246,59.478973 
	C54.063507,59.286907 53.991051,58.908192 53.884644,58.808273 
	C53.482048,58.574219 53.238316,58.649712 52.841240,59.118729 
	C52.488033,59.633339 52.340626,59.964050 52.193256,60.744499 
	C52.193298,67.080132 52.193298,72.966019 52.193298,78.942421 
	C55.733555,79.136749 58.368069,79.281364 61.014877,79.865997 
	C61.031792,83.134705 60.891636,85.973022 61.079155,88.789536 
	C61.294277,92.020752 60.610443,93.640823 56.821064,94.424873 
	C44.152348,97.046097 36.948261,106.371628 36.906235,119.370819 
	C36.854046,135.510925 37.325943,151.667084 36.740704,167.786163 
	C36.334511,178.973755 40.232063,187.483917 49.152336,194.339569 
	C49.895912,194.729477 50.474026,194.848846 51.021648,194.971466 
	C50.991158,194.974701 51.006500,194.915283 50.934723,195.268982 
	C56.119862,201.144043 61.420280,206.625107 66.599930,212.218002 
	C67.746056,213.455536 68.465294,215.088409 69.022148,216.525055 
	C36.005222,201.791626 14.844727,177.116898 4.977652,142.748734 
	C3.395890,137.239288 2.313330,131.586517 1.000000,126.000000 
	C1.000000,117.645767 1.000000,109.291534 1.348335,100.281677 
	C1.808960,99.141830 1.947693,98.662033 2.029785,98.172737 
	C10.236142,49.260109 42.649712,14.400412 90.097099,3.470225 
	C93.728378,2.633708 97.365562,1.822808 101.000000,1.000001 
z"/>
<path fill="#BD0C15" opacity="1.000000" stroke="none" 
	d="
M69.381088,216.539246 
	C68.465294,215.088409 67.746056,213.455536 66.599930,212.218002 
	C61.420280,206.625107 56.119862,201.144043 51.319492,195.278763 
	C53.757000,195.430008 55.737961,195.925186 57.899673,196.567657 
	C58.080425,196.714951 58.529530,196.838470 58.529530,196.838470 
	C58.529530,196.838470 58.986725,196.749390 59.455315,196.774994 
	C70.265900,196.772400 80.607895,196.744232 91.416862,196.785126 
	C103.315765,196.816406 114.747704,196.778656 126.533165,196.751282 
	C127.578636,196.717514 128.270584,196.673386 129.427887,196.697525 
	C135.262314,196.694351 140.631378,196.622894 146.461792,196.636688 
	C152.221756,196.742111 157.520325,196.780365 162.818909,196.779114 
	C178.481369,196.775391 187.613739,189.209167 190.699493,173.787491 
	C191.351440,172.041245 191.958664,170.480255 191.960907,168.918365 
	C192.014038,131.888687 192.022400,94.858871 191.933029,57.829327 
	C191.929153,56.227493 190.915955,54.628094 190.235367,52.645004 
	C189.250214,49.202553 188.402618,46.142666 187.555008,43.082771 
	C190.021576,45.189064 192.587982,47.190273 194.935959,49.421352 
	C201.957932,56.093803 208.894394,62.856251 216.257126,69.555054 
	C216.649994,69.526550 216.643326,69.731705 216.555038,69.971161 
	C216.682495,70.448158 216.898239,70.685692 217.340851,71.196671 
	C219.057938,75.645287 220.827209,79.745697 221.970886,84.013748 
	C223.559784,89.943291 224.679443,95.998558 226.000000,102.000000 
	C226.000000,109.354256 226.000000,116.708504 225.647995,124.730057 
	C218.631912,172.389542 193.077728,204.186783 148.390625,220.207809 
	C140.573029,223.010544 132.145721,224.112534 124.000000,226.000000 
	C116.645744,226.000000 109.291496,226.000000 101.295670,225.639099 
	C90.743797,222.556808 80.833496,219.835403 70.800606,216.887421 
	C70.358749,216.654068 70.039482,216.647293 69.626160,216.646255 
	C69.532104,216.651993 69.381096,216.539246 69.381088,216.539246 
M170.461182,197.500015 
	C170.461182,197.500015 170.511002,197.481003 170.461182,197.500015 
z"/>
<path fill="#FFFEFE" opacity="1.000000" stroke="none" 
	d="
M226.000000,101.531342 
	C224.679443,95.998558 223.559784,89.943291 221.970886,84.013748 
	C220.827209,79.745697 219.057938,75.645287 217.372726,70.964142 
	C217.139313,70.113235 216.961182,69.871078 216.643326,69.731705 
	C216.643326,69.731705 216.649994,69.526550 216.589966,69.443405 
	C209.766022,51.851566 198.441681,37.697468 184.032684,25.974783 
	C166.958817,12.084054 147.299042,4.171683 125.224617,1.330933 
	C158.593597,1.000000 192.187195,1.000000 226.000000,1.000000 
	C226.000000,34.353909 226.000000,67.708298 226.000000,101.531342 
z"/>
<path fill="#FFFEFE" opacity="1.000000" stroke="none" 
	d="
M70.923203,217.113998 
	C80.833496,219.835403 90.743797,222.556808 100.827042,225.639099 
	C67.739731,226.000000 34.479462,226.000000 1.000000,226.000000 
	C1.000000,192.979431 1.000000,159.958374 1.000000,126.468658 
	C2.313330,131.586517 3.395890,137.239288 4.977652,142.748734 
	C14.844727,177.116898 36.005222,201.791626 69.022156,216.525055 
	C69.381096,216.539246 69.532104,216.651993 69.771484,216.832672 
	C70.010857,217.013336 70.454575,217.176544 70.454575,217.176544 
	C70.454575,217.176544 70.923203,217.113998 70.923203,217.113998 
z"/>
<path fill="#FFFDFD" opacity="1.000000" stroke="none" 
	d="
M124.468658,226.000000 
	C132.145721,224.112534 140.573029,223.010544 148.390625,220.207809 
	C193.077728,204.186783 218.631912,172.389542 225.647995,125.198669 
	C226.000000,158.593964 226.000000,192.187912 226.000000,226.000000 
	C192.312759,226.000000 158.625031,226.000000 124.468658,226.000000 
z"/>
<path fill="#FFFEFE" opacity="1.000000" stroke="none" 
	d="
M100.531342,1.000001 
	C97.365562,1.822808 93.728378,2.633708 90.097099,3.470225 
	C42.649712,14.400412 10.236142,49.260109 2.029785,98.172737 
	C1.947693,98.662033 1.808960,99.141830 1.348335,99.813034 
	C1.000000,67.072693 1.000000,34.145393 1.000000,1.000000 
	C34.020573,1.000000 67.041626,1.000000 100.531342,1.000001 
z"/>
<path fill="#83C7DA" opacity="1.000000" stroke="none" 
	d="
M190.372925,173.972321 
	C187.613739,189.209167 178.481369,196.775391 162.818909,196.779114 
	C157.520325,196.780365 152.221756,196.742111 146.454041,196.197388 
	C145.953644,189.711746 145.922379,183.750610 145.873489,177.480957 
	C145.844650,176.763641 145.833420,176.354858 145.911133,175.488174 
	C145.945145,155.040878 145.890198,135.051483 145.877411,114.716774 
	C145.699524,113.257118 145.479492,112.142784 145.457748,110.665924 
	C145.775375,108.320557 145.996277,106.337852 145.998596,104.354881 
	C146.027313,79.735580 146.024246,55.116245 146.029343,30.496920 
	C146.193863,30.424150 146.358383,30.351381 147.224792,30.207569 
	C154.284546,30.095123 160.642410,30.053722 167.000275,30.012321 
	C175.492538,31.372824 182.527588,35.037830 187.299316,42.884628 
	C188.402618,46.142666 189.250214,49.202553 190.201904,53.110523 
	C190.328293,93.963173 190.350616,133.967743 190.372925,173.972321 
M166.751541,123.020348 
	C172.507416,121.926277 175.951172,118.102676 175.676041,113.111458 
	C175.384445,107.821304 171.877243,104.536858 165.198944,103.968163 
	C159.289429,104.968208 155.951904,108.495071 156.045578,113.640800 
	C156.143906,119.043228 159.842773,122.522133 166.751541,123.020348 
M165.265121,74.376900 
	C159.057953,75.963440 155.665573,79.804840 156.058975,84.801582 
	C156.468338,90.001167 159.910629,93.117577 166.756958,93.888718 
	C172.578552,92.277824 176.010132,88.406197 175.740601,83.753067 
	C175.457535,78.865990 171.869644,75.454086 165.265121,74.376900 
M166.848511,64.200912 
	C172.378952,63.100819 175.905869,59.305199 175.757233,54.613434 
	C175.602310,49.723183 171.798767,46.024570 165.275711,45.080578 
	C158.872559,46.663280 155.385727,50.807213 156.077225,56.012520 
	C156.725159,60.889923 160.671478,64.129272 166.848511,64.200912 
M166.756897,181.897842 
	C172.651901,180.283066 176.088470,176.352432 175.730881,171.633682 
	C175.356796,166.697205 171.847687,163.480316 165.510666,162.490814 
	C159.385223,163.642578 155.856522,167.345428 156.041031,172.427811 
	C156.234909,177.767883 159.756866,181.090744 166.756897,181.897842 
M165.279144,133.100296 
	C159.071442,134.585342 155.731049,138.319962 156.044540,143.424759 
	C156.345810,148.330688 160.016998,151.702484 166.669922,152.651764 
	C172.585541,150.842239 175.958740,147.081802 175.751266,142.527847 
	C175.531006,137.693176 171.741882,134.046387 165.279144,133.100296 
z"/>
<path fill="#F6B840" opacity="1.000000" stroke="none" 
	d="
M57.718922,196.420349 
	C55.737961,195.925186 53.757000,195.430008 51.391273,194.925049 
	C51.006500,194.915283 50.991158,194.974701 50.899750,194.676788 
	C50.201183,194.275604 49.594028,194.172333 48.986874,194.069046 
	C40.232063,187.483917 36.334511,178.973755 36.740704,167.786163 
	C37.325943,151.667084 36.854046,135.510925 36.906235,119.370819 
	C36.948261,106.371628 44.152348,97.046097 56.821064,94.424873 
	C60.610443,93.640823 61.294277,92.020752 61.079155,88.789536 
	C60.891636,85.973022 61.031792,83.134705 61.466164,79.780083 
	C65.278557,79.160553 68.651947,79.066956 72.485748,79.049133 
	C78.980743,79.060501 85.015327,78.996086 91.510475,79.003151 
	C98.281441,79.025536 104.591835,78.976448 111.364273,78.998840 
	C115.184120,79.163124 118.541924,79.255936 121.862381,79.503967 
	C121.825020,79.659195 121.651138,79.927010 121.204445,79.920891 
	C112.943062,79.913689 105.122688,80.089500 97.316025,79.838676 
	C93.267029,79.708580 91.711121,80.940483 91.828995,85.171364 
	C92.088211,94.475159 91.903877,103.791313 91.685196,113.252731 
	C91.322578,113.498535 91.175385,113.594040 90.570442,113.564484 
	C77.301353,113.403320 64.487389,113.501938 51.680210,113.252518 
	C47.613556,113.173317 46.215282,114.329979 46.265415,118.559258 
	C46.478409,136.527588 46.347996,154.499893 46.371780,172.470703 
	C46.373669,173.900146 46.595291,175.329315 46.725075,176.881561 
	C61.806435,176.881561 76.428703,176.881561 91.289368,176.962311 
	C91.682503,177.107986 91.837242,177.172913 91.974068,177.690857 
	C91.620735,184.334625 91.285316,190.525345 90.949890,196.716064 
	C80.607895,196.744232 70.265900,196.772400 59.268661,196.644287 
	C58.324791,196.339920 58.026627,196.317383 57.718922,196.420349 
z"/>
<path fill="#A4DCE8" opacity="1.000000" stroke="none" 
	d="
M145.566345,30.397812 
	C146.024246,55.116245 146.027313,79.735580 145.998596,104.354881 
	C145.996277,106.337852 145.775375,108.320557 145.305298,110.335754 
	C141.520370,102.238609 136.027924,96.490486 126.994293,94.633110 
	C126.996933,94.423698 127.005005,94.004913 127.366096,93.954590 
	C131.872238,92.973663 135.090515,90.901131 135.917877,86.454155 
	C136.811478,81.651253 135.339081,77.704300 130.964844,74.604927 
	C130.895828,70.492279 130.880096,66.838928 131.222595,63.078957 
	C136.249054,60.771946 136.642334,56.634377 135.846008,52.415855 
	C134.968643,47.767967 131.547348,45.604130 126.593948,45.102890 
	C117.886734,46.492710 114.323494,53.792435 118.607178,59.813217 
	C115.778503,59.927479 113.391060,59.966606 110.560501,59.973461 
	C107.471954,59.892189 104.826508,59.843189 102.151207,59.589367 
	C102.121353,59.384544 101.989784,58.992031 102.030685,58.744534 
	C102.037346,58.333347 102.003105,58.169655 101.968857,58.005959 
	C103.118835,39.375431 112.254250,30.222885 129.725632,30.221910 
	C134.851532,30.221624 139.977432,30.271706 145.566345,30.397812 
z"/>
<path fill="#A4DCE8" opacity="1.000000" stroke="none" 
	d="
M72.025345,78.973358 
	C68.651947,79.066956 65.278557,79.160553 61.453873,79.340057 
	C58.368069,79.281364 55.733555,79.136749 52.193298,78.942421 
	C52.193298,72.966019 52.193298,67.080132 52.515892,60.657669 
	C53.257988,59.971077 53.677486,59.821056 54.096989,59.671036 
	C59.758606,59.730152 65.420227,59.789268 71.543045,60.395237 
	C72.011284,66.952507 72.018318,72.962936 72.025345,78.973358 
z"/>
<path fill="#62B4CE" opacity="1.000000" stroke="none" 
	d="
M102.181061,59.794189 
	C104.826508,59.843189 107.471954,59.892189 110.557968,60.441151 
	C110.966431,66.936531 110.934334,72.931946 110.902237,78.927361 
	C104.591835,78.976448 98.281441,79.025536 91.504379,78.539734 
	C91.052704,72.014160 91.067688,66.023476 91.082680,60.032795 
	C91.082680,60.032795 91.523689,59.849571 92.203140,59.864899 
	C95.982079,59.851551 99.081573,59.822868 102.181061,59.794189 
z"/>
<path fill="#81C8DC" opacity="1.000000" stroke="none" 
	d="
M90.611160,59.955193 
	C91.067688,66.023476 91.052704,72.014160 91.043808,78.468262 
	C85.015327,78.996086 78.980743,79.060501 72.485748,79.049133 
	C72.018318,72.962936 72.011284,66.952507 72.005852,60.474319 
	C78.051514,59.963570 84.095573,59.920582 90.611160,59.955193 
z"/>
<path fill="#D8505C" opacity="1.000000" stroke="none" 
	d="
M166.669464,29.762417 
	C160.642410,30.053722 154.284546,30.095123 147.461105,30.077335 
	C153.443237,29.849604 159.890945,29.681057 166.669464,29.762417 
z"/>
<path fill="#C67E8A" opacity="1.000000" stroke="none" 
	d="
M102.151207,59.589367 
	C99.081573,59.822868 95.982079,59.851551 92.431595,59.795448 
	C94.694153,59.478935 97.407707,59.247204 100.805107,59.019997 
	C101.655891,59.013695 101.822838,59.002861 101.989784,58.992031 
	C101.989784,58.992031 102.121353,59.384544 102.151207,59.589367 
z"/>
<path fill="#BD0C15" opacity="1.000000" stroke="none" 
	d="
M49.152336,194.339569 
	C49.594028,194.172333 50.201183,194.275604 50.930237,194.673553 
	C50.474026,194.848846 49.895912,194.729477 49.152336,194.339569 
z"/>
<path fill="#C67E8A" opacity="1.000000" stroke="none" 
	d="
M54.080246,59.478970 
	C53.677486,59.821056 53.257988,59.971077 52.515854,60.207932 
	C52.340626,59.964050 52.488033,59.633339 53.077217,59.122272 
	C53.518986,58.941914 53.991051,58.908192 53.991051,58.908192 
	C53.991051,58.908192 54.063507,59.286907 54.080246,59.478970 
z"/>
<path fill="#D9535F" opacity="1.000000" stroke="none" 
	d="
M102.030685,58.744534 
	C101.822838,59.002861 101.655891,59.013695 101.238091,59.013687 
	C101.136833,58.720764 101.333946,58.477112 101.773712,58.138924 
	C102.003105,58.169655 102.037346,58.333347 102.030685,58.744534 
z"/>
<path fill="#D9535F" opacity="1.000000" stroke="none" 
	d="
M53.884644,58.808273 
	C53.991051,58.908192 53.518986,58.941914 53.283012,58.938370 
	C53.238316,58.649712 53.482048,58.574219 53.884644,58.808273 
z"/>
<path fill="#F67A21" opacity="1.000000" stroke="none" 
	d="
M126.991653,94.842522 
	C136.027924,96.490486 141.520370,102.238609 145.106995,110.698288 
	C145.479492,112.142784 145.699524,113.257118 145.657532,115.059731 
	C145.265137,116.563499 145.022034,117.378830 145.020996,118.194481 
	C144.997986,136.171082 144.985138,154.147751 145.035858,172.124222 
	C145.039459,173.398911 145.548279,174.672165 145.822189,175.946091 
	C145.833420,176.354858 145.844650,176.763641 145.642273,177.754974 
	C143.176422,187.223495 136.752426,192.262253 128.742294,196.058502 
	C127.690987,196.251053 126.935310,196.495972 126.179634,196.740906 
	C114.747704,196.778656 103.315765,196.816406 91.416862,196.785126 
	C91.285316,190.525345 91.620735,184.334625 92.443176,177.633148 
	C107.474922,177.057709 122.019669,176.993027 136.890076,176.658295 
	C137.473236,175.454285 137.952988,174.520859 137.955368,173.586227 
	C138.002792,155.039490 138.021957,136.492477 137.943359,117.945953 
	C137.937546,116.570488 137.148819,115.198349 136.353027,113.705276 
	C134.178925,113.501900 132.376389,113.359787 130.572693,113.343338 
	C118.719597,113.235161 106.866234,113.154106 94.905350,112.944855 
	C94.490456,112.650032 94.223518,112.719833 93.654785,113.133347 
	C92.841957,113.188660 92.371284,113.145538 91.900604,113.102417 
	C91.903877,103.791313 92.088211,94.475159 91.828995,85.171364 
	C91.711121,80.940483 93.267029,79.708580 97.316025,79.838676 
	C105.122688,80.089500 112.943062,79.913689 121.287994,79.993637 
	C121.818245,80.072510 122.035713,80.047447 121.972107,80.501205 
	C122.261658,85.256233 122.614807,89.557503 123.236412,93.915909 
	C123.684296,93.937263 123.863739,93.901466 124.325836,93.945580 
	C124.998978,94.053185 125.389442,94.080887 125.894302,94.355820 
	C126.336349,94.682877 126.664001,94.762703 126.991653,94.842522 
z"/>
<path fill="#BE0002" opacity="1.000000" stroke="none" 
	d="
M190.699493,173.787491 
	C190.350616,133.967743 190.328293,93.963173 190.339447,53.493080 
	C190.915955,54.628094 191.929153,56.227493 191.933029,57.829327 
	C192.022400,94.858871 192.014038,131.888687 191.960907,168.918365 
	C191.958664,170.480255 191.351440,172.041245 190.699493,173.787491 
z"/>
<path fill="#A4DBE5" opacity="1.000000" stroke="none" 
	d="
M129.037918,196.110886 
	C136.752426,192.262253 143.176422,187.223495 145.659897,178.063507 
	C145.922379,183.750610 145.953644,189.711746 145.992676,196.112152 
	C140.631378,196.622894 135.262314,196.694351 129.459427,196.569672 
	C129.025589,196.373535 129.037918,196.110886 129.037918,196.110886 
z"/>
<path fill="#83C7DA" opacity="1.000000" stroke="none" 
	d="
M128.742294,196.058502 
	C129.037918,196.110886 129.025589,196.373535 128.994049,196.501389 
	C128.270584,196.673386 127.578636,196.717514 126.533165,196.751282 
	C126.935310,196.495972 127.690987,196.251053 128.742294,196.058502 
z"/>
<path fill="#BE0002" opacity="1.000000" stroke="none" 
	d="
M170.486084,197.490509 
	C170.511002,197.481003 170.461182,197.500015 170.486084,197.490509 
z"/>
<path fill="#F67A21" opacity="1.000000" stroke="none" 
	d="
M57.899673,196.567657 
	C58.026627,196.317383 58.324791,196.339920 58.800072,196.618683 
	C58.986725,196.749390 58.529530,196.838470 58.529530,196.838470 
	C58.529530,196.838470 58.080425,196.714951 57.899673,196.567657 
z"/>
<path fill="#DA5C66" opacity="1.000000" stroke="none" 
	d="
M70.800606,216.887421 
	C70.923203,217.113998 70.454575,217.176544 70.454575,217.176544 
	C70.454575,217.176544 70.010857,217.013336 69.865540,216.826935 
	C70.039482,216.647293 70.358749,216.654068 70.800606,216.887421 
z"/>
<path fill="#DA5C66" opacity="1.000000" stroke="none" 
	d="
M216.555038,69.971161 
	C216.961182,69.871078 217.139313,70.113235 217.145844,70.690704 
	C216.898239,70.685692 216.682495,70.448158 216.555038,69.971161 
z"/>
<path fill="#F3EAE8" opacity="1.000000" stroke="none" 
	d="
M165.968719,152.539597 
	C160.016998,151.702484 156.345810,148.330688 156.044540,143.424759 
	C155.731049,138.319962 159.071442,134.585342 165.645233,133.589813 
	C165.997116,140.232758 165.982910,146.386185 165.968719,152.539597 
z"/>
<path fill="#F3EAE8" opacity="1.000000" stroke="none" 
	d="
M166.026520,181.848816 
	C159.756866,181.090744 156.234909,177.767883 156.041031,172.427811 
	C155.856522,167.345428 159.385223,163.642578 165.770615,163.124390 
	C166.029221,169.788254 166.027878,175.818542 166.026520,181.848816 
z"/>
<path fill="#F3EAE8" opacity="1.000000" stroke="none" 
	d="
M166.074341,64.218735 
	C160.671478,64.129272 156.725159,60.889923 156.077225,56.012520 
	C155.385727,50.807213 158.872559,46.663280 165.642715,45.571503 
	C166.031265,52.114529 166.052795,58.166634 166.074341,64.218735 
z"/>
<path fill="#F3EAE8" opacity="1.000000" stroke="none" 
	d="
M166.029816,93.828491 
	C159.910629,93.117577 156.468338,90.001167 156.058975,84.801582 
	C155.665573,79.804840 159.057953,75.963440 165.625671,74.845627 
	C166.000732,81.485733 166.015274,87.657112 166.029816,93.828491 
z"/>
<path fill="#F4EAE8" opacity="1.000000" stroke="none" 
	d="
M165.971619,122.976585 
	C159.842773,122.522133 156.143906,119.043228 156.045578,113.640800 
	C155.951904,108.495071 159.289429,104.968208 165.593658,104.461945 
	C165.982788,110.962685 165.977203,116.969635 165.971619,122.976585 
z"/>
<path fill="#F3CACA" opacity="1.000000" stroke="none" 
	d="
M166.361572,122.998466 
	C165.977203,116.969635 165.982788,110.962685 165.979996,104.489578 
	C171.877243,104.536858 175.384445,107.821304 175.676041,113.111458 
	C175.951172,118.102676 172.507416,121.926277 166.361572,122.998466 
z"/>
<path fill="#F3CACA" opacity="1.000000" stroke="none" 
	d="
M166.393387,93.858604 
	C166.015274,87.657112 166.000732,81.485733 165.977402,74.887390 
	C171.869644,75.454086 175.457535,78.865990 175.740601,83.753067 
	C176.010132,88.406197 172.578552,92.277824 166.393387,93.858604 
z"/>
<path fill="#F3CACA" opacity="1.000000" stroke="none" 
	d="
M166.319321,152.595673 
	C165.982910,146.386185 165.997116,140.232758 166.020569,133.625427 
	C171.741882,134.046387 175.531006,137.693176 175.751266,142.527847 
	C175.958740,147.081802 172.585541,150.842239 166.319321,152.595673 
z"/>
<path fill="#F4CACA" opacity="1.000000" stroke="none" 
	d="
M166.391708,181.873322 
	C166.027878,175.818542 166.029221,169.788254 166.052429,163.269623 
	C171.847687,163.480316 175.356796,166.697205 175.730881,171.633682 
	C176.088470,176.352432 172.651901,180.283066 166.391708,181.873322 
z"/>
<path fill="#F4CACA" opacity="1.000000" stroke="none" 
	d="
M166.461426,64.209824 
	C166.052795,58.166634 166.031265,52.114529 166.018143,45.606796 
	C171.798767,46.024570 175.602310,49.723183 175.757233,54.613434 
	C175.905869,59.305199 172.378952,63.100819 166.461426,64.209824 
z"/>
<path fill="#FC7500" opacity="1.000000" stroke="none" 
	d="
M145.911133,175.488174 
	C145.548279,174.672165 145.039459,173.398911 145.035858,172.124222 
	C144.985138,154.147751 144.997986,136.171082 145.020996,118.194481 
	C145.022034,117.378830 145.265137,116.563499 145.615387,115.405060 
	C145.890198,135.051483 145.945145,155.040878 145.911133,175.488174 
z"/>
<path fill="#D3EBEF" opacity="1.000000" stroke="none" 
	d="
M136.564407,176.928345 
	C122.019669,176.993027 107.474922,177.057709 92.461075,177.180115 
	C91.837242,177.172913 91.682503,177.107986 91.289345,176.502014 
	C91.045311,169.055191 91.039703,162.149399 91.290131,155.195038 
	C91.709862,155.088333 91.873573,155.030197 92.493713,155.001495 
	C96.080360,154.998840 99.236534,155.209717 102.334877,154.878937 
	C107.246536,154.354568 110.819534,150.335983 111.001503,145.608093 
	C111.185417,140.829803 108.190529,137.303757 102.669044,135.833710 
	C98.650879,135.398468 94.915749,135.260574 91.152756,134.647324 
	C91.092651,127.344490 91.060425,120.517014 91.028198,113.689537 
	C91.175385,113.594040 91.322578,113.498535 91.685196,113.252724 
	C92.371284,113.145538 92.841957,113.188660 93.906845,113.206497 
	C94.671692,113.142204 94.842331,113.103203 95.012962,113.064194 
	C106.866234,113.154106 118.719597,113.235161 130.572693,113.343338 
	C132.376389,113.359787 134.178925,113.501900 136.329300,114.191116 
	C136.639206,135.507019 136.601807,156.217682 136.564407,176.928345 
z"/>
<path fill="#FFFEFD" opacity="1.000000" stroke="none" 
	d="
M90.570442,113.564484 
	C91.060425,120.517014 91.092651,127.344490 90.753471,134.811646 
	C87.743919,135.636826 85.106483,135.965927 82.467484,135.978973 
	C76.324791,136.009354 72.248703,139.407654 72.051201,144.850494 
	C71.841995,150.615784 75.828506,154.691513 82.055588,154.995911 
	C85.045311,155.142059 88.041069,155.164932 91.034103,155.243622 
	C91.039703,162.149399 91.045311,169.055191 91.050941,176.421265 
	C76.428703,176.881561 61.806435,176.881561 46.725075,176.881561 
	C46.595291,175.329315 46.373669,173.900146 46.371780,172.470703 
	C46.347996,154.499893 46.478409,136.527588 46.265415,118.559258 
	C46.215282,114.329979 47.613556,113.173317 51.680210,113.252518 
	C64.487389,113.501938 77.301353,113.403320 90.570442,113.564484 
z"/>
<path fill="#439FBF" opacity="1.000000" stroke="none" 
	d="
M111.364273,78.998840 
	C110.934334,72.931946 110.966431,66.936531 111.001068,60.473423 
	C113.391060,59.966606 115.778503,59.927479 119.048355,59.826675 
	C122.265984,59.704853 124.601196,59.644707 127.319038,59.684353 
	C128.755890,60.917953 129.810135,62.051762 130.864365,63.185570 
	C130.880096,66.838928 130.895828,70.492279 130.851471,74.979340 
	C131.112457,79.590683 128.269165,79.029106 125.643791,79.204208 
	C124.485199,79.168495 123.707733,79.217560 122.668503,79.235313 
	C122.237740,79.252251 122.068733,79.300499 121.899734,79.348755 
	C118.541924,79.255936 115.184120,79.163124 111.364273,78.998840 
z"/>
<path fill="#F2EBEA" opacity="1.000000" stroke="none" 
	d="
M121.862381,79.503975 
	C122.068733,79.300499 122.237740,79.252251 122.549438,79.396194 
	C122.504768,79.786362 122.285957,79.939377 122.035713,80.047447 
	C122.035713,80.047447 121.818245,80.072510 121.734695,79.999756 
	C121.651138,79.927010 121.825020,79.659195 121.862381,79.503975 
z"/>
<path fill="#FCFEFE" opacity="1.000000" stroke="none" 
	d="
M126.936417,59.584560 
	C124.601196,59.644707 122.265984,59.704853 119.489578,59.751541 
	C114.323494,53.792435 117.886734,46.492710 126.601501,45.554153 
	C126.973251,50.557770 126.954834,55.071163 126.936417,59.584560 
z"/>
<path fill="#F2EBEA" opacity="1.000000" stroke="none" 
	d="
M126.024918,79.288986 
	C128.269165,79.029106 131.112457,79.590683 130.904755,75.438637 
	C135.339081,77.704300 136.811478,81.651253 135.917877,86.454155 
	C135.090515,90.901131 131.872238,92.973663 127.334518,93.925049 
	C126.941841,93.945824 126.878952,93.887154 126.914139,93.436142 
	C126.641190,88.419746 126.333054,83.854370 126.024918,79.288986 
z"/>
<path fill="#F4EAE9" opacity="1.000000" stroke="none" 
	d="
M127.319038,59.684353 
	C126.954834,55.071163 126.973251,50.557770 126.984116,45.593105 
	C131.547348,45.604130 134.968643,47.767967 135.846008,52.415855 
	C136.642334,56.634377 136.249054,60.771946 131.222595,63.078957 
	C129.810135,62.051762 128.755890,60.917953 127.319038,59.684353 
z"/>
<path fill="#F2EBEA" opacity="1.000000" stroke="none" 
	d="
M126.994293,94.633110 
	C126.664001,94.762703 126.336349,94.682877 126.169044,94.300117 
	C126.512581,93.960510 126.695763,93.923828 126.878952,93.887154 
	C126.878952,93.887154 126.941841,93.945824 126.973419,93.975372 
	C127.005005,94.004913 126.996933,94.423698 126.994293,94.633110 
z"/>
<path fill="#FFFFFF" opacity="1.000000" stroke="none" 
	d="
M126.914139,93.436142 
	C126.695763,93.923828 126.512581,93.960510 126.054657,94.052887 
	C125.389442,94.080887 124.998978,94.053185 124.212723,93.825851 
	C123.479721,93.477875 123.196732,93.555389 122.967964,93.858765 
	C122.614807,89.557503 122.261658,85.256233 121.972107,80.501205 
	C122.285957,79.939377 122.504768,79.786362 122.811203,79.427521 
	C123.707733,79.217560 124.485199,79.168495 125.643791,79.204208 
	C126.333054,83.854370 126.641190,88.419746 126.914139,93.436142 
z"/>
<path fill="#F8750C" opacity="1.000000" stroke="none" 
	d="
M136.890076,176.658295 
	C136.601807,156.217682 136.639206,135.507019 136.700317,114.310516 
	C137.148819,115.198349 137.937546,116.570488 137.943359,117.945953 
	C138.021957,136.492477 138.002792,155.039490 137.955368,173.586227 
	C137.952988,174.520859 137.473236,175.454285 136.890076,176.658295 
z"/>
<path fill="#F8750C" opacity="1.000000" stroke="none" 
	d="
M94.905350,112.944855 
	C94.842331,113.103203 94.671692,113.142204 94.248993,113.108063 
	C94.223518,112.719833 94.490456,112.650032 94.905350,112.944855 
z"/>
<path fill="#F2EBEA" opacity="1.000000" stroke="none" 
	d="
M123.236412,93.915909 
	C123.196732,93.555389 123.479721,93.477875 123.930054,93.745941 
	C123.863739,93.901466 123.684296,93.937263 123.236412,93.915909 
z"/>
<path fill="#EC9FA3" opacity="1.000000" stroke="none" 
	d="
M91.290123,155.195038 
	C88.041069,155.164932 85.045311,155.142059 82.055588,154.995911 
	C75.828506,154.691513 71.841995,150.615784 72.051201,144.850494 
	C72.248703,139.407654 76.324791,136.009354 82.467484,135.978973 
	C85.106483,135.965927 87.743919,135.636826 90.781342,135.286987 
	C94.915749,135.260574 98.650879,135.398468 102.417038,136.160278 
	C99.041832,136.943695 95.635590,137.103210 92.037292,137.271713 
	C92.037292,143.486633 92.037292,149.229340 92.037292,154.972046 
	C91.873573,155.030197 91.709862,155.088333 91.290123,155.195038 
z"/>
<path fill="#D93823" opacity="1.000000" stroke="none" 
	d="
M92.493713,155.001495 
	C92.037292,149.229340 92.037292,143.486633 92.037292,137.271713 
	C95.635590,137.103210 99.041832,136.943695 102.700073,136.457611 
	C108.190529,137.303757 111.185417,140.829803 111.001503,145.608093 
	C110.819534,150.335983 107.246536,154.354568 102.334877,154.878937 
	C99.236534,155.209717 96.080360,154.998840 92.493713,155.001495 
z"/>
</svg>