<svg version="1.1" id="Layer_1" xmlns="http://www.w3.org/2000/svg" xmlns:xlink="http://www.w3.org/1999/xlink" x="0px" y="0px"
	 width="100%" viewBox="0 0 512 512" enable-background="new 0 0 512 512" xml:space="preserve">
<path fill="#000000" opacity="1.000000" stroke="none" 
	d="
M513.000000,195.000000 
	C513.000000,301.307495 513.000000,407.114990 513.000000,512.961243 
	C342.400818,512.961243 171.801651,512.961243 1.101233,512.961243 
	C1.101233,342.442535 1.101233,171.884979 1.101233,1.163717 
	C171.666534,1.163717 342.333252,1.163717 513.000000,1.163717 
	C513.000000,65.531647 513.000000,130.015823 513.000000,195.000000 
M392.256561,189.579102 
	C392.183105,188.148590 392.109650,186.718094 392.040466,185.371323 
	C381.263977,185.371323 370.883179,185.371323 360.255188,185.371323 
	C360.255188,207.717819 360.204041,229.692856 360.366302,251.666306 
	C360.377502,253.187790 361.694153,254.987854 362.892029,256.158813 
	C366.628571,259.811462 370.599792,263.223999 373.961914,266.261536 
	C369.595795,270.962372 366.213318,274.604126 362.231812,278.890839 
	C358.681335,275.103546 355.499573,271.239532 351.796906,267.964386 
	C350.027802,266.399475 347.280914,265.156647 344.958618,265.125397 
	C327.633240,264.891907 310.303314,264.998535 292.974792,264.998535 
	C288.020569,264.998535 283.066376,264.998566 278.207581,264.998566 
	C277.886261,266.082031 277.628021,266.707611 277.518158,267.358246 
	C272.024719,299.895660 261.721466,330.835388 246.802322,360.261536 
	C246.197540,361.454407 245.999710,363.147949 246.298950,364.450409 
	C247.248596,368.583771 248.523880,372.642334 249.749680,377.001465 
	C250.881500,377.001465 252.198822,376.997711 253.516129,377.002045 
	C271.616730,377.061188 280.990448,386.370087 280.998077,404.295654 
	C281.000946,411.076263 280.998566,417.856873 280.998566,424.649567 
	C294.356750,424.649567 307.235046,424.649567 320.420868,424.649567 
	C320.420868,382.024109 320.420868,339.749786 320.420868,297.001434 
	C333.012421,297.001434 345.296448,297.010284 357.580475,296.999512 
	C379.020264,296.980713 392.206268,283.912140 392.245941,262.547485 
	C392.290497,238.554245 392.256470,214.560867 392.256561,189.579102 
M171.491699,360.998566 
	C161.163269,360.998566 150.814774,361.385406 140.514008,360.851593 
	C134.457947,360.537750 129.934738,362.122559 126.362694,366.932404 
	C124.218430,369.819702 121.855156,372.544373 119.837334,375.036987 
	C114.939651,370.367249 111.344307,366.939240 106.622688,362.437378 
	C108.446175,361.188080 110.105453,360.060669 111.755119,358.919373 
	C119.609276,353.485443 121.823624,346.123230 121.212524,336.652069 
	C120.370407,323.600555 121.001480,310.454041 121.001480,297.272400 
	C126.566429,297.272400 131.630432,297.272400 137.131409,297.272400 
	C137.131409,313.270355 137.131409,329.002502 137.131409,344.656860 
	C156.751358,344.656860 175.927216,344.656860 195.697205,344.656860 
	C184.568237,319.507874 176.957108,293.821747 172.370804,267.140808 
	C161.753769,268.166504 151.656570,269.089783 141.571030,270.126526 
	C115.142006,272.843262 93.292877,293.020905 90.042953,319.358978 
	C88.401199,332.664093 89.084480,346.277985 89.042267,359.753296 
	C88.981018,379.304535 102.784866,392.944153 122.429863,392.990967 
	C141.920883,393.037415 161.412094,393.005432 180.903229,392.992035 
	C182.178467,392.991180 183.453598,392.855713 184.705627,392.784180 
	C184.705627,382.046295 184.705627,371.649567 184.705627,360.998566 
	C180.437622,360.998566 176.462997,360.998566 171.491699,360.998566 
M424.999390,58.500000 
	C424.999390,47.405396 424.999390,36.310791 424.999390,25.295193 
	C392.681610,25.295193 360.952057,25.295193 329.294250,25.295193 
	C329.294250,62.652103 329.294250,99.713737 329.294250,136.704865 
	C361.318329,136.704865 393.047882,136.704865 424.999390,136.704865 
	C424.999390,110.774002 424.999390,85.137001 424.999390,58.500000 
M250.556091,136.184097 
	C242.459442,134.651825 236.360046,130.099838 231.216705,123.844086 
	C230.068314,122.447311 227.879776,121.164291 226.136597,121.119019 
	C215.306885,120.837692 205.453979,117.842590 196.882339,111.191505 
	C194.730896,109.522102 193.210114,109.685371 191.188766,111.123184 
	C182.661362,117.188881 177.441681,125.349304 177.144592,135.806091 
	C176.728256,150.459717 176.660004,165.148773 177.169662,179.797379 
	C177.995987,203.547073 198.076538,223.522324 221.836639,224.903458 
	C246.312683,226.326202 269.159821,209.418655 271.757690,185.521332 
	C273.629425,168.303345 272.122345,150.718033 272.122345,133.098297 
	C265.813477,136.164474 258.863098,138.103973 250.556091,136.184097 
M179.578293,88.025070 
	C179.141220,86.864014 178.704132,85.702965 178.208542,84.386475 
	C182.997406,82.033745 187.420654,79.860657 192.345871,77.440933 
	C198.427399,92.483582 206.982681,104.025375 225.067657,104.831978 
	C225.067657,99.382591 225.067657,94.451698 225.067657,89.374321 
	C230.588577,89.374321 235.627136,89.374321 241.032974,89.374321 
	C241.032974,95.219543 240.830673,100.706535 241.085342,106.172241 
	C241.388382,112.675926 245.908188,118.145912 252.153152,120.178879 
	C258.614136,122.282158 265.224792,120.235329 269.587891,114.780647 
	C273.534424,109.846756 274.137848,103.013969 271.052032,97.410461 
	C268.088531,92.029152 263.187683,89.545273 257.377777,88.717163 
	C257.377777,83.381943 257.377777,78.319687 257.377777,73.278206 
	C271.744476,73.037407 285.561798,83.540176 287.827332,97.610115 
	C289.295441,106.727470 288.714996,116.179451 288.979034,125.483582 
	C289.085663,129.241348 288.996643,133.004684 288.996643,136.546661 
	C293.446991,137.424835 297.154053,138.156342 300.914276,138.898331 
	C301.320343,138.088440 301.685333,137.532135 301.892731,136.922226 
	C314.966187,98.480347 285.886963,57.441269 245.226685,57.021812 
	C232.729752,56.892887 220.230392,56.988956 207.732147,56.998688 
	C175.030746,57.024158 150.113937,78.405968 145.409912,110.844849 
	C144.015778,120.458885 145.231049,129.939255 149.048157,138.960678 
	C153.284393,138.078720 156.981064,137.309097 160.887695,136.495773 
	C161.946213,119.376755 169.812363,106.126083 183.930588,96.748428 
	C182.428665,93.735855 181.166473,91.204155 179.578293,88.025070 
M171.965179,460.218964 
	C170.399445,459.145813 168.922653,457.352234 167.249924,457.145752 
	C163.477280,456.679962 159.568237,456.653687 155.787445,457.085602 
	C150.933426,457.640045 147.899002,455.748566 144.942245,451.988495 
	C137.500031,442.524292 129.591904,433.426514 120.999146,423.138519 
	C120.999146,425.649719 120.999146,426.748840 120.999146,427.847961 
	C120.999176,444.833771 120.980080,461.819611 121.008041,478.805389 
	C121.020355,486.283783 123.746284,488.989868 131.284775,488.992889 
	C172.417099,489.009399 213.549408,489.009155 254.681732,488.993195 
	C262.221466,488.990295 264.978271,486.274017 264.991333,478.832153 
	C265.021149,461.846405 265.007751,444.860535 264.985657,427.874756 
	C264.984161,426.709656 264.765411,425.544861 264.573120,423.641724 
	C255.790741,434.174011 247.696152,444.113586 239.272064,453.765564 
	C237.792084,455.461243 235.000305,456.620483 232.693863,456.858063 
	C228.080048,457.333435 223.365387,456.771637 218.729828,457.126953 
	C217.172577,457.246307 215.101196,458.487457 214.328705,459.828674 
	C204.462051,476.958923 183.444153,477.556793 171.965179,460.218964 
M236.554459,402.123718 
	C230.262146,407.017395 223.111618,409.058044 215.168045,409.031494 
	C188.857880,408.943604 162.547241,408.998444 136.236786,408.998474 
	C134.534286,408.998474 132.831787,408.998474 130.128235,408.998474 
	C137.719254,418.133667 145.055389,425.922607 151.124878,434.597748 
	C155.913635,441.442322 161.735458,441.791107 169.174072,440.497375 
	C169.174072,435.355865 169.174072,430.291809 169.174072,425.369476 
	C185.393051,425.369476 201.109894,425.369476 217.140381,425.369476 
	C217.140381,430.678192 217.140381,435.622833 217.140381,440.510376 
	C228.479904,442.014709 228.463776,442.001312 235.141251,433.952057 
	C243.857315,423.445374 252.651505,413.002808 261.278076,402.423401 
	C262.492706,400.933807 264.102448,397.881683 263.533356,397.186310 
	C262.009369,395.324127 259.491241,393.418427 257.206573,393.197083 
	C250.405746,392.538300 243.105026,391.474030 239.292450,399.645966 
	C238.903854,400.478882 237.855820,401.004150 236.554459,402.123718 
M281.000732,454.508636 
	C281.000732,465.894073 281.000732,477.279541 281.000732,488.657349 
	C293.570770,488.657349 306.786774,488.657349 319.850616,488.657349 
	C319.850616,472.623932 319.850616,456.935364 319.850616,441.310608 
	C306.737732,441.310608 294.020752,441.310608 281.000732,441.310608 
	C281.000732,445.582275 281.000732,449.547241 281.000732,454.508636 
M242.949570,330.350220 
	C243.213684,328.637207 244.334473,326.278046 243.606689,325.313202 
	C237.660873,317.430359 231.370117,309.807739 224.983994,301.856720 
	C221.428680,306.292053 218.317078,310.170135 215.209427,314.051392 
	C204.889999,326.939697 204.890564,326.940125 212.069534,341.854980 
	C212.213272,342.153564 212.275284,342.559662 212.510193,342.734497 
	C213.574570,343.526703 214.596298,344.671814 215.798141,344.933746 
	C221.833038,346.248993 227.919586,347.327179 234.733078,348.631256 
	C237.098846,343.393250 239.879929,337.235687 242.949570,330.350220 
M236.968964,239.853058 
	C227.611969,239.853058 218.254990,239.853058 208.516357,239.853058 
	C206.910629,243.804337 204.975586,248.198746 203.395065,252.717148 
	C203.006744,253.827225 203.307724,255.791107 204.085144,256.600220 
	C210.847702,263.638397 217.791046,270.502838 225.043945,277.783630 
	C229.449997,273.322327 233.492188,269.190063 237.577347,265.100677 
	C247.940994,254.726334 247.948654,254.734085 241.853058,241.443893 
	C241.783829,241.292984 241.764175,241.034088 241.660416,240.997208 
	C240.372025,240.539337 239.072281,240.113327 236.968964,239.853058 
M200.996689,373.511047 
	C200.996689,379.925903 200.996689,386.340759 200.996689,392.976227 
	C207.033585,392.976227 212.502121,393.184174 217.948669,392.926910 
	C225.890930,392.551727 232.370255,386.040466 232.960571,378.238495 
	C233.567703,370.214294 227.946182,362.346710 219.909988,361.373230 
	C213.760559,360.628265 207.448578,361.225037 200.996689,361.225037 
	C200.996689,365.246033 200.996689,368.881836 200.996689,373.511047 
M360.248932,161.473846 
	C360.248932,163.899658 360.248932,166.325470 360.248932,168.709396 
	C371.276367,168.709396 381.656311,168.709396 391.945312,168.709396 
	C391.945312,163.364227 391.945312,158.317505 391.945312,153.320694 
	C381.275513,153.320694 370.922668,153.320694 360.248932,153.320694 
	C360.248932,155.936264 360.248932,158.231674 360.248932,161.473846 
M257.429718,285.965729 
	C258.869812,279.114746 260.309906,272.263763 261.803650,265.157471 
	C253.113876,273.886932 244.903381,282.134918 236.485382,290.591370 
	C240.856216,296.020599 245.671219,302.001556 251.214035,308.886566 
	C253.416321,300.756653 255.311142,293.761749 257.429718,285.965729 
M192.947693,268.252258 
	C191.812576,267.337341 190.677460,266.422424 189.542358,265.507507 
	C189.031464,265.820221 188.520584,266.132965 188.009689,266.445679 
	C191.442139,280.286926 194.874588,294.128204 198.612213,309.200073 
	C204.525146,301.798431 209.357788,295.749084 214.329712,289.525391 
	C207.150864,282.397736 200.308517,275.604187 192.947693,268.252258 
M148.051193,178.313461 
	C151.399414,182.519348 155.506149,185.105743 160.951599,184.795898 
	C160.951599,174.015686 160.951599,163.592224 160.951599,153.147491 
	C147.605957,154.068924 141.430984,165.769592 148.051193,178.313461 
M292.752228,153.439850 
	C291.628021,153.309967 290.503815,153.180099 288.996704,153.005997 
	C288.996704,158.548981 288.996704,163.847885 288.996704,169.146790 
	C288.996704,174.375351 288.996704,179.603912 288.996704,184.838501 
	C297.525970,184.314758 303.632812,179.058762 304.849396,171.413879 
	C306.075531,163.708847 301.720520,156.911789 292.752228,153.439850 
M201.001373,444.517212 
	C200.321213,443.346252 199.707520,441.214203 198.949966,441.161835 
	C194.373306,440.845215 189.763763,441.004303 185.019943,441.004303 
	C185.019943,444.120972 184.887161,446.616638 185.048431,449.093170 
	C185.354965,453.800476 188.720993,457.017181 193.077393,456.969360 
	C197.227661,456.923798 200.477325,453.850098 200.941147,449.430084 
	C201.079636,448.110168 200.987778,446.766083 201.001373,444.517212 
z"/>
<path fill="#FBD66F" opacity="1.000000" stroke="none" 
	d="
M392.256592,190.073318 
	C392.256470,214.560867 392.290497,238.554245 392.245941,262.547485 
	C392.206268,283.912140 379.020264,296.980713 357.580475,296.999512 
	C345.296448,297.010284 333.012421,297.001434 320.420868,297.001434 
	C320.420868,339.749786 320.420868,382.024109 320.420868,424.649567 
	C307.235046,424.649567 294.356750,424.649567 280.998566,424.649567 
	C280.998566,417.856873 281.000946,411.076263 280.998077,404.295654 
	C280.990448,386.370087 271.616730,377.061188 253.516129,377.002045 
	C252.198822,376.997711 250.881500,377.001465 249.749680,377.001465 
	C248.523880,372.642334 247.248596,368.583771 246.298950,364.450409 
	C245.999710,363.147949 246.197540,361.454407 246.802322,360.261536 
	C261.721466,330.835388 272.024719,299.895660 277.518158,267.358246 
	C277.628021,266.707611 277.886261,266.082031 278.207581,264.998566 
	C283.066376,264.998566 288.020569,264.998535 292.974792,264.998535 
	C310.303314,264.998535 327.633240,264.891907 344.958618,265.125397 
	C347.280914,265.156647 350.027802,266.399475 351.796906,267.964386 
	C355.499573,271.239532 358.681335,275.103546 362.231812,278.890839 
	C366.213318,274.604126 369.595795,270.962372 373.961914,266.261536 
	C370.599792,263.223999 366.628571,259.811462 362.892029,256.158813 
	C361.694153,254.987854 360.377502,253.187790 360.366302,251.666306 
	C360.204041,229.692856 360.255188,207.717819 360.255188,185.371323 
	C370.883179,185.371323 381.263977,185.371323 392.040466,185.371323 
	C392.109650,186.718094 392.183105,188.148590 392.256592,190.073318 
z"/>
<path fill="#FBD66F" opacity="1.000000" stroke="none" 
	d="
M171.990036,360.998566 
	C176.462997,360.998566 180.437622,360.998566 184.705627,360.998566 
	C184.705627,371.649567 184.705627,382.046295 184.705627,392.784180 
	C183.453598,392.855713 182.178467,392.991180 180.903229,392.992035 
	C161.412094,393.005432 141.920883,393.037415 122.429863,392.990967 
	C102.784866,392.944153 88.981018,379.304535 89.042267,359.753296 
	C89.084480,346.277985 88.401199,332.664093 90.042953,319.358978 
	C93.292877,293.020905 115.142006,272.843262 141.571030,270.126526 
	C151.656570,269.089783 161.753769,268.166504 172.370804,267.140808 
	C176.957108,293.821747 184.568237,319.507874 195.697205,344.656860 
	C175.927216,344.656860 156.751358,344.656860 137.131409,344.656860 
	C137.131409,329.002502 137.131409,313.270355 137.131409,297.272400 
	C131.630432,297.272400 126.566429,297.272400 121.001480,297.272400 
	C121.001480,310.454041 120.370407,323.600555 121.212524,336.652069 
	C121.823624,346.123230 119.609276,353.485443 111.755119,358.919373 
	C110.105453,360.060669 108.446175,361.188080 106.622688,362.437378 
	C111.344307,366.939240 114.939651,370.367249 119.837334,375.036987 
	C121.855156,372.544373 124.218430,369.819702 126.362694,366.932404 
	C129.934738,362.122559 134.457947,360.537750 140.514008,360.851593 
	C150.814774,361.385406 161.163269,360.998566 171.990036,360.998566 
z"/>
<path fill="#E6E9ED" opacity="1.000000" stroke="none" 
	d="
M424.999390,59.000000 
	C424.999390,85.137001 424.999390,110.774002 424.999390,136.704865 
	C393.047882,136.704865 361.318329,136.704865 329.294250,136.704865 
	C329.294250,99.713737 329.294250,62.652103 329.294250,25.295193 
	C360.952057,25.295193 392.681610,25.295193 424.999390,25.295193 
	C424.999390,36.310791 424.999390,47.405396 424.999390,59.000000 
M357.510437,72.999359 
	C353.409821,72.999359 349.309204,72.999359 345.295776,72.999359 
	C345.295776,78.651237 345.295776,83.719284 345.295776,88.710709 
	C366.653076,88.710709 387.712738,88.710709 408.703979,88.710709 
	C408.703979,83.348206 408.703979,78.280151 408.703979,72.999359 
	C391.774902,72.999359 375.141510,72.999359 357.510437,72.999359 
M392.498322,57.000645 
	C397.926819,57.000645 403.355347,57.000645 408.702332,57.000645 
	C408.702332,51.343224 408.702332,46.275673 408.702332,41.290928 
	C387.343262,41.290928 366.283752,41.290928 345.297607,41.290928 
	C345.297607,46.656651 345.297607,51.724213 345.297607,57.000645 
	C360.896149,57.000645 376.197418,57.000645 392.498322,57.000645 
M349.623505,104.999359 
	C348.182678,104.999359 346.741852,104.999359 345.255493,104.999359 
	C345.255493,110.572845 345.255493,115.639496 345.255493,120.745834 
	C355.909607,120.745834 366.305695,120.745834 376.741058,120.745834 
	C376.741058,115.420326 376.741058,110.353477 376.741058,104.999359 
	C367.857452,104.999359 359.230255,104.999359 349.623505,104.999359 
M398.579285,104.999359 
	C396.809601,104.999359 395.039948,104.999359 393.268127,104.999359 
	C393.268127,110.601646 393.268127,115.667740 393.268127,120.728928 
	C398.607513,120.728928 403.673645,120.728928 408.725952,120.728928 
	C408.725952,115.386497 408.725952,110.320442 408.725952,104.999359 
	C405.486786,104.999359 402.515717,104.999359 398.579285,104.999359 
z"/>
<path fill="#EECEB3" opacity="1.000000" stroke="none" 
	d="
M250.968109,136.285583 
	C258.863098,138.103973 265.813477,136.164474 272.122345,133.098297 
	C272.122345,150.718033 273.629425,168.303345 271.757690,185.521332 
	C269.159821,209.418655 246.312683,226.326202 221.836639,224.903458 
	C198.076538,223.522324 177.995987,203.547073 177.169662,179.797379 
	C176.660004,165.148773 176.728256,150.459717 177.144592,135.806091 
	C177.441681,125.349304 182.661362,117.188881 191.188766,111.123184 
	C193.210114,109.685371 194.730896,109.522102 196.882339,111.191505 
	C205.453979,117.842590 215.306885,120.837692 226.136597,121.119019 
	C227.879776,121.164291 230.068314,122.447311 231.216705,123.844086 
	C236.360046,130.099838 242.459442,134.651825 250.968109,136.285583 
M205.377777,202.173981 
	C216.699234,210.447906 228.721390,211.491531 240.890442,204.637497 
	C251.311844,198.767807 256.458435,189.379715 256.978119,177.174011 
	C251.430573,177.174011 246.321640,177.174011 241.246902,177.174011 
	C239.325195,187.170502 233.600128,192.812973 225.348480,192.986099 
	C216.862930,193.164169 211.233139,187.899887 208.508484,177.240417 
	C203.406769,177.240417 198.305069,177.240417 192.955170,177.240417 
	C193.392944,187.329712 197.281876,195.411224 205.377777,202.173981 
M246.318481,145.486252 
	C240.072678,149.216614 239.151077,155.881393 244.429260,159.505798 
	C247.508133,161.619980 250.733734,161.617508 253.708939,159.369400 
	C256.642792,157.152573 257.833466,154.079803 256.538696,150.542755 
	C254.945404,146.190155 251.635757,144.468124 246.318481,145.486252 
M205.114014,146.144287 
	C199.418167,144.074173 194.926910,145.791656 193.363983,150.637604 
	C192.037567,154.750168 194.335785,159.250137 198.581757,160.579941 
	C202.402206,161.776459 205.610062,160.538177 207.672180,157.250748 
	C210.159805,153.285034 209.250076,149.632843 205.114014,146.144287 
z"/>
<path fill="#646C77" opacity="1.000000" stroke="none" 
	d="
M179.741287,88.348763 
	C181.166473,91.204155 182.428665,93.735855 183.930588,96.748428 
	C169.812363,106.126083 161.946213,119.376755 160.887695,136.495773 
	C156.981064,137.309097 153.284393,138.078720 149.048157,138.960678 
	C145.231049,129.939255 144.015778,120.458885 145.409912,110.844849 
	C150.113937,78.405968 175.030746,57.024158 207.732147,56.998688 
	C220.230392,56.988956 232.729752,56.892887 245.226685,57.021812 
	C285.886963,57.441269 314.966187,98.480347 301.892731,136.922226 
	C301.685333,137.532135 301.320343,138.088440 300.914276,138.898331 
	C297.154053,138.156342 293.446991,137.424835 288.996643,136.546661 
	C288.996643,133.004684 289.085663,129.241348 288.979034,125.483582 
	C288.714996,116.179451 289.295441,106.727470 287.827332,97.610115 
	C285.561798,83.540176 271.744476,73.037407 257.377777,73.278206 
	C257.377777,78.319687 257.377777,83.381943 257.377777,88.717163 
	C263.187683,89.545273 268.088531,92.029152 271.052032,97.410461 
	C274.137848,103.013969 273.534424,109.846756 269.587891,114.780647 
	C265.224792,120.235329 258.614136,122.282158 252.153152,120.178879 
	C245.908188,118.145912 241.388382,112.675926 241.085342,106.172241 
	C240.830673,100.706535 241.032974,95.219543 241.032974,89.374321 
	C235.627136,89.374321 230.588577,89.374321 225.067657,89.374321 
	C225.067657,94.451698 225.067657,99.382591 225.067657,104.831978 
	C206.982681,104.025375 198.427399,92.483582 192.345871,77.440933 
	C187.420654,79.860657 182.997406,82.033745 178.208542,84.386475 
	C178.704132,85.702965 179.141220,86.864014 179.741287,88.348763 
z"/>
<path fill="#CE9D76" opacity="1.000000" stroke="none" 
	d="
M172.140640,460.563019 
	C183.444153,477.556793 204.462051,476.958923 214.328705,459.828674 
	C215.101196,458.487457 217.172577,457.246307 218.729828,457.126953 
	C223.365387,456.771637 228.080048,457.333435 232.693863,456.858063 
	C235.000305,456.620483 237.792084,455.461243 239.272064,453.765564 
	C247.696152,444.113586 255.790741,434.174011 264.573120,423.641724 
	C264.765411,425.544861 264.984161,426.709656 264.985657,427.874756 
	C265.007751,444.860535 265.021149,461.846405 264.991333,478.832153 
	C264.978271,486.274017 262.221466,488.990295 254.681732,488.993195 
	C213.549408,489.009155 172.417099,489.009399 131.284775,488.992889 
	C123.746284,488.989868 121.020355,486.283783 121.008041,478.805389 
	C120.980080,461.819611 120.999176,444.833771 120.999146,427.847961 
	C120.999146,426.748840 120.999146,425.649719 120.999146,423.138519 
	C129.591904,433.426514 137.500031,442.524292 144.942245,451.988495 
	C147.899002,455.748566 150.933426,457.640045 155.787445,457.085602 
	C159.568237,456.653687 163.477280,456.679962 167.249924,457.145752 
	C168.922653,457.352234 170.399445,459.145813 172.140640,460.563019 
z"/>
<path fill="#D29F6B" opacity="1.000000" stroke="none" 
	d="
M236.834122,401.897949 
	C237.855820,401.004150 238.903854,400.478882 239.292450,399.645966 
	C243.105026,391.474030 250.405746,392.538300 257.206573,393.197083 
	C259.491241,393.418427 262.009369,395.324127 263.533356,397.186310 
	C264.102448,397.881683 262.492706,400.933807 261.278076,402.423401 
	C252.651505,413.002808 243.857315,423.445374 235.141251,433.952057 
	C228.463776,442.001312 228.479904,442.014709 217.140381,440.510376 
	C217.140381,435.622833 217.140381,430.678192 217.140381,425.369476 
	C201.109894,425.369476 185.393051,425.369476 169.174072,425.369476 
	C169.174072,430.291809 169.174072,435.355865 169.174072,440.497375 
	C161.735458,441.791107 155.913635,441.442322 151.124878,434.597748 
	C145.055389,425.922607 137.719254,418.133667 130.128235,408.998474 
	C132.831787,408.998474 134.534286,408.998474 136.236786,408.998474 
	C162.547241,408.998444 188.857880,408.943604 215.168045,409.031494 
	C223.111618,409.058044 230.262146,407.017395 236.834122,401.897949 
z"/>
<path fill="#969FAA" opacity="1.000000" stroke="none" 
	d="
M281.000732,454.010437 
	C281.000732,449.547241 281.000732,445.582275 281.000732,441.310608 
	C294.020752,441.310608 306.737732,441.310608 319.850616,441.310608 
	C319.850616,456.935364 319.850616,472.623932 319.850616,488.657349 
	C306.786774,488.657349 293.570770,488.657349 281.000732,488.657349 
	C281.000732,477.279541 281.000732,465.894073 281.000732,454.010437 
z"/>
<path fill="#B1DA7D" opacity="1.000000" stroke="none" 
	d="
M242.805283,330.714172 
	C239.879929,337.235687 237.098846,343.393250 234.733078,348.631256 
	C227.919586,347.327179 221.833038,346.248993 215.798141,344.933746 
	C214.596298,344.671814 213.574570,343.526703 212.510193,342.734497 
	C212.275284,342.559662 212.213272,342.153564 212.069534,341.854980 
	C204.890564,326.940125 204.889999,326.939697 215.209427,314.051392 
	C218.317078,310.170135 221.428680,306.292053 224.983994,301.856720 
	C231.370117,309.807739 237.660873,317.430359 243.606689,325.313202 
	C244.334473,326.278046 243.213684,328.637207 242.805283,330.714172 
z"/>
<path fill="#EECEB3" opacity="1.000000" stroke="none" 
	d="
M237.372223,239.766098 
	C239.072281,240.113327 240.372025,240.539337 241.660416,240.997208 
	C241.764175,241.034088 241.783829,241.292984 241.853058,241.443893 
	C247.948654,254.734085 247.940994,254.726334 237.577347,265.100677 
	C233.492188,269.190063 229.449997,273.322327 225.043945,277.783630 
	C217.791046,270.502838 210.847702,263.638397 204.085144,256.600220 
	C203.307724,255.791107 203.006744,253.827225 203.395065,252.717148 
	C204.975586,248.198746 206.910629,243.804337 208.516357,239.853058 
	C218.254990,239.853058 227.611969,239.853058 237.372223,239.766098 
z"/>
<path fill="#EECEB3" opacity="1.000000" stroke="none" 
	d="
M200.996689,373.014343 
	C200.996689,368.881836 200.996689,365.246033 200.996689,361.225037 
	C207.448578,361.225037 213.760559,360.628265 219.909988,361.373230 
	C227.946182,362.346710 233.567703,370.214294 232.960571,378.238495 
	C232.370255,386.040466 225.890930,392.551727 217.948669,392.926910 
	C212.502121,393.184174 207.033585,392.976227 200.996689,392.976227 
	C200.996689,386.340759 200.996689,379.925903 200.996689,373.014343 
z"/>
<path fill="#EECEB3" opacity="1.000000" stroke="none" 
	d="
M360.248932,161.000458 
	C360.248932,158.231674 360.248932,155.936264 360.248932,153.320694 
	C370.922668,153.320694 381.275513,153.320694 391.945312,153.320694 
	C391.945312,158.317505 391.945312,163.364227 391.945312,168.709396 
	C381.656311,168.709396 371.276367,168.709396 360.248932,168.709396 
	C360.248932,166.325470 360.248932,163.899658 360.248932,161.000458 
z"/>
<path fill="#9CCF66" opacity="1.000000" stroke="none" 
	d="
M257.317841,286.366272 
	C255.311142,293.761749 253.416321,300.756653 251.214035,308.886566 
	C245.671219,302.001556 240.856216,296.020599 236.485382,290.591370 
	C244.903381,282.134918 253.113876,273.886932 261.803650,265.157471 
	C260.309906,272.263763 258.869812,279.114746 257.317841,286.366272 
z"/>
<path fill="#9CCF66" opacity="1.000000" stroke="none" 
	d="
M193.206940,268.531433 
	C200.308517,275.604187 207.150864,282.397736 214.329712,289.525391 
	C209.357788,295.749084 204.525146,301.798431 198.612213,309.200073 
	C194.874588,294.128204 191.442139,280.286926 188.009689,266.445679 
	C188.520584,266.132965 189.031464,265.820221 189.542358,265.507507 
	C190.677460,266.422424 191.812576,267.337341 193.206940,268.531433 
z"/>
<path fill="#EECEB3" opacity="1.000000" stroke="none" 
	d="
M147.837830,178.006165 
	C141.430984,165.769592 147.605957,154.068924 160.951599,153.147491 
	C160.951599,163.592224 160.951599,174.015686 160.951599,184.795898 
	C155.506149,185.105743 151.399414,182.519348 147.837830,178.006165 
z"/>
<path fill="#EECEB3" opacity="1.000000" stroke="none" 
	d="
M293.133728,153.582001 
	C301.720520,156.911789 306.075531,163.708847 304.849396,171.413879 
	C303.632812,179.058762 297.525970,184.314758 288.996704,184.838501 
	C288.996704,179.603912 288.996704,174.375351 288.996704,169.146790 
	C288.996704,163.847885 288.996704,158.548981 288.996704,153.005997 
	C290.503815,153.180099 291.628021,153.309967 293.133728,153.582001 
z"/>
<path fill="#FBD66F" opacity="1.000000" stroke="none" 
	d="
M201.001419,444.975159 
	C200.987778,446.766083 201.079636,448.110168 200.941147,449.430084 
	C200.477325,453.850098 197.227661,456.923798 193.077393,456.969360 
	C188.720993,457.017181 185.354965,453.800476 185.048431,449.093170 
	C184.887161,446.616638 185.019943,444.120972 185.019943,441.004303 
	C189.763763,441.004303 194.373306,440.845215 198.949966,441.161835 
	C199.707520,441.214203 200.321213,443.346252 201.001419,444.975159 
z"/>
<path fill="#000000" opacity="1.000000" stroke="none" 
	d="
M358.009277,72.999359 
	C375.141510,72.999359 391.774902,72.999359 408.703979,72.999359 
	C408.703979,78.280151 408.703979,83.348206 408.703979,88.710709 
	C387.712738,88.710709 366.653076,88.710709 345.295776,88.710709 
	C345.295776,83.719284 345.295776,78.651237 345.295776,72.999359 
	C349.309204,72.999359 353.409821,72.999359 358.009277,72.999359 
z"/>
<path fill="#000000" opacity="1.000000" stroke="none" 
	d="
M391.998535,57.000645 
	C376.197418,57.000645 360.896149,57.000645 345.297607,57.000645 
	C345.297607,51.724213 345.297607,46.656651 345.297607,41.290928 
	C366.283752,41.290928 387.343262,41.290928 408.702332,41.290928 
	C408.702332,46.275673 408.702332,51.343224 408.702332,57.000645 
	C403.355347,57.000645 397.926819,57.000645 391.998535,57.000645 
z"/>
<path fill="#000000" opacity="1.000000" stroke="none" 
	d="
M350.113281,104.999359 
	C359.230255,104.999359 367.857452,104.999359 376.741058,104.999359 
	C376.741058,110.353477 376.741058,115.420326 376.741058,120.745834 
	C366.305695,120.745834 355.909607,120.745834 345.255493,120.745834 
	C345.255493,115.639496 345.255493,110.572845 345.255493,104.999359 
	C346.741852,104.999359 348.182678,104.999359 350.113281,104.999359 
z"/>
<path fill="#000000" opacity="1.000000" stroke="none" 
	d="
M399.061951,104.999359 
	C402.515717,104.999359 405.486786,104.999359 408.725952,104.999359 
	C408.725952,110.320442 408.725952,115.386497 408.725952,120.728928 
	C403.673645,120.728928 398.607513,120.728928 393.268127,120.728928 
	C393.268127,115.667740 393.268127,110.601646 393.268127,104.999359 
	C395.039948,104.999359 396.809601,104.999359 399.061951,104.999359 
z"/>
<path fill="#030302" opacity="1.000000" stroke="none" 
	d="
M205.080231,201.972672 
	C197.281876,195.411224 193.392944,187.329712 192.955170,177.240417 
	C198.305069,177.240417 203.406769,177.240417 208.510101,177.241455 
	C211.233139,187.899887 216.862930,193.164169 225.348480,192.986099 
	C233.600128,192.812973 239.325195,187.170502 241.246902,177.174011 
	C246.321640,177.174011 251.430573,177.174011 256.978119,177.174011 
	C256.458435,189.379715 251.311844,198.767807 240.890442,204.637497 
	C228.721390,211.491531 216.699234,210.447906 205.080231,201.972672 
z"/>
<path fill="#0B0A08" opacity="1.000000" stroke="none" 
	d="
M246.688675,145.342834 
	C251.635757,144.468124 254.945404,146.190155 256.538696,150.542755 
	C257.833466,154.079803 256.642792,157.152573 253.708939,159.369400 
	C250.733734,161.617508 247.508133,161.619980 244.429260,159.505798 
	C239.151077,155.881393 240.072678,149.216614 246.688675,145.342834 
z"/>
<path fill="#0B0A08" opacity="1.000000" stroke="none" 
	d="
M205.431091,146.370209 
	C209.250076,149.632843 210.159805,153.285034 207.672180,157.250748 
	C205.610062,160.538177 202.402206,161.776459 198.581757,160.579941 
	C194.335785,159.250137 192.037567,154.750168 193.363983,150.637604 
	C194.926910,145.791656 199.418167,144.074173 205.431091,146.370209 
z"/>
</svg>